<?xml version="1.0" encoding="utf-8"?>
<!-- Generator: Adobe Illustrator 19.1.0, SVG Export Plug-In . SVG Version: 6.00 Build 0)  -->
<svg version="1.1" id="Layer_1" xmlns="http://www.w3.org/2000/svg" xmlns:xlink="http://www.w3.org/1999/xlink" x="0px" y="0px"
	 viewBox="0 0 36 36" style="enable-background:new 0 0 36 36;" xml:space="preserve">
<style type="text/css">
	.st0{fill-rule:evenodd;clip-rule:evenodd;fill:#FFC70B;}
	.st1{fill-rule:evenodd;clip-rule:evenodd;fill:#FFFFFF;}
	.st2{fill-rule:evenodd;clip-rule:evenodd;fill:#3A5899;}
	.st3{fill-rule:evenodd;clip-rule:evenodd;fill:#0274B3;}
</style>
<g>
	<rect x="4" y="2.5" class="st1" width="28" height="30.7"/>
	<path class="st3" d="M33.1,36H2.9C1.3,36,0,34.7,0,33.1V2.9C0,1.3,1.3,0,2.9,0h30.2C34.7,0,36,1.3,36,2.9v30.2
		C36,34.7,34.7,36,33.1,36z M5.8,29.9h5.3V13.8H5.8V29.9z M8.5,6.1c-1.7,0-3,1.3-3,3c0,1.7,1.3,3,3,3c1.7,0,3-1.3,3-3
		C11.5,7.4,10.2,6.1,8.5,6.1z M30.2,18.2c-0.5-1.8-1.3-3-2.7-3.9c-1.1-0.7-2.1-0.8-3.8-0.8c-1.4,0-2.8,0.6-3.7,1.8
		c-0.2,0.2-0.5,0.7-0.5,0.8c0,0-0.1,0-0.1,0v-2.2h-5.3v16.2h5.4c0,0,0-3.6,0-7.5c0-0.9,0-2.2,0.3-2.9c0.6-1.8,2.2-2,2.6-2
		c0.4,0,1.4-0.1,2.4,1.5c0.5,0.9,0.5,2.2,0.5,3.6c0,2.5,0,7.2,0,7.2h5.4c0,0,0-4.9,0-7.4C30.5,21.1,30.6,19.4,30.2,18.2z"/>
</g>
</svg>
