<?xml version="1.0" encoding="utf-8"?>
<!-- Generator: Adobe Illustrator 19.1.0, SVG Export Plug-In . SVG Version: 6.00 Build 0)  -->
<svg version="1.1" id="Layer_1" xmlns="http://www.w3.org/2000/svg" xmlns:xlink="http://www.w3.org/1999/xlink" x="0px" y="0px"
	 viewBox="0 0 36 36" style="enable-background:new 0 0 36 36;" xml:space="preserve">
<style type="text/css">
	.st0{fill-rule:evenodd;clip-rule:evenodd;fill:#FFC70B;}
	.st1{fill-rule:evenodd;clip-rule:evenodd;fill:#FFFFFF;}
	.st2{fill-rule:evenodd;clip-rule:evenodd;fill:#3A5899;}
	.st3{fill-rule:evenodd;clip-rule:evenodd;fill:#0274B3;}
</style>
<g>
	<rect x="12" y="2.5" class="st1" width="20.2" height="33.5"/>
	<path class="st2" d="M33.1,36h-8.3c0-4.7,0-9.3,0-14c0.8,0,4.3,0,4.5,0c0.2,0,0.2,0,0.3-0.1c0.1-0.5,0.6-5,0.7-5.3c0,0,0,0,0,0
		c0,0,0,0,0,0c-0.4,0-5.4,0-5.2,0c-0.1,0-0.2,0-0.3-0.2c0-1.7-0.2-4.3,0.5-5.3c0.2-0.3,0.7-0.5,1-0.6c0.3-0.1,1.4-0.1,3-0.1
		c0.4,0,0.9,0.1,1.2,0c0-1.2,0-2.3,0-3.5c0-0.3,0.1-1.2,0-1.3c-0.2-0.1-0.5,0-0.8-0.1c-1-0.1-1.9-0.1-2.6-0.1
		c-2.2-0.1-3.6,0.4-3.7,0.4c-1.7,0.7-2.7,1.8-3.5,3.4c-0.4,0.8-0.6,1.8-0.6,2.7c0,1.3,0,3.6,0,4.4c0,0.1,0,0.3,0,0.3
		c-0.1,0-3.2,0-4.7,0c0,0-0.1,0-0.1,0.1c-0.1,0.8,0,4.6,0,5.3c0,0,0,0,0,0.1c1.1,0,2.2,0,3.2,0c0.5,0,1.1-0.1,1.5,0
		c0,4.7,0,9.3,0,13.9H2.9C1.3,36,0,34.7,0,33.1V2.9C0,1.3,1.3,0,2.9,0h30.2C34.7,0,36,1.3,36,2.9v30.2C36,34.7,34.7,36,33.1,36z"/>
</g>
</svg>
