<?xml version="1.0" encoding="utf-8"?>
<!-- Generator: Adobe Illustrator 19.1.0, SVG Export Plug-In . SVG Version: 6.00 Build 0)  -->
<svg version="1.1" id="Layer_1" xmlns="http://www.w3.org/2000/svg" xmlns:xlink="http://www.w3.org/1999/xlink" x="0px" y="0px"
	 viewBox="0 0 630.9 156.2" style="enable-background:new 0 0 630.9 156.2;" xml:space="preserve">
<style type="text/css">
	.st0{fill-rule:evenodd;clip-rule:evenodd;fill:#FFC70B;}
	.st1{fill-rule:evenodd;clip-rule:evenodd;fill:#FFFFFF;}
	.st2{fill-rule:evenodd;clip-rule:evenodd;fill:#3A5899;}
	.st3{fill-rule:evenodd;clip-rule:evenodd;fill:#0274B3;}
</style>
<path class="st1" d="M626.8,140.5c0,1.7,0,2.6,0.1,2.9c0.1,0.3,0.2,0.5,0.5,0.7c0.3,0.2,0.6,0.3,0.9,0.3c0.5,0,1.2-0.2,2.2-0.5
	l0.5,4.2c-1.3,0.5-2.7,0.8-4.3,0.8c-1,0-1.9-0.2-2.6-0.5c-0.8-0.3-1.4-0.8-1.7-1.3c-0.4-0.5-0.6-1.2-0.8-2.1
	c-0.1-0.6-0.2-1.9-0.2-3.8v-8.9h-2.5V128h2.5v-4.1l5.4-3.2v7.2h3.7v4.3h-3.7V140.5z M610.2,138c0-2.2-0.1-3.6-0.3-4.3
	c-0.2-0.6-0.6-1.2-1.1-1.5c-0.5-0.4-1.1-0.5-1.9-0.5c-0.9,0-1.8,0.3-2.5,0.8c-0.7,0.5-1.3,1.2-1.5,2c-0.3,0.8-0.4,2.4-0.4,4.7v9.3
	H597V128h5v3c1.8-2.3,4-3.5,6.7-3.5c1.2,0,2.3,0.2,3.3,0.6c1,0.4,1.7,1,2.2,1.6c0.5,0.7,0.9,1.4,1.1,2.3c0.2,0.8,0.3,2.1,0.3,3.6
	v12.7h-5.4V138z M580.3,143.5c0.8,0.9,1.9,1.3,3.1,1.3c0.8,0,1.6-0.2,2.1-0.7c0.6-0.5,1-1.2,1.3-2.2l5.4,0.9c-0.7,2-1.8,3.5-3.3,4.5
	c-1.5,1-3.4,1.5-5.6,1.5c-3.6,0-6.2-1.2-7.9-3.5c-1.3-1.9-2-4.2-2-7c0-3.4,0.9-6,2.7-8c1.8-1.9,4-2.9,6.7-2.9c3,0,5.4,1,7.2,3
	c1.8,2,2.6,5.1,2.5,9.2H579C579.1,141.3,579.5,142.6,580.3,143.5z M587.2,136.4c0-1.6-0.4-2.8-1.2-3.6c-0.8-0.8-1.7-1.2-2.8-1.2
	c-1.2,0-2.2,0.4-2.9,1.3c-0.8,0.9-1.1,2-1.1,3.5H587.2z M564.2,136.7c0-2-0.2-3.3-0.6-3.9c-0.5-0.8-1.3-1.2-2.3-1.2
	c-0.8,0-1.5,0.2-2.1,0.7c-0.7,0.5-1.2,1.1-1.4,2c-0.3,0.9-0.4,2.3-0.4,4.2v9.8h-5.4v-11.2c0-2-0.1-3.3-0.3-3.8
	c-0.2-0.6-0.5-1-0.9-1.3c-0.4-0.3-1-0.4-1.6-0.4c-0.8,0-1.6,0.2-2.3,0.7c-0.7,0.4-1.1,1.1-1.4,1.9c-0.3,0.8-0.4,2.3-0.4,4.2v9.9
	h-5.4V128h5v2.8c1.8-2.2,3.9-3.3,6.4-3.3c1.3,0,2.4,0.3,3.4,0.8c1,0.5,1.8,1.4,2.4,2.4c0.9-1.1,1.9-1.9,2.9-2.4
	c1-0.5,2.2-0.8,3.3-0.8c1.5,0,2.8,0.3,3.8,0.9c1,0.6,1.8,1.5,2.3,2.7c0.4,0.9,0.6,2.3,0.6,4.2v13.1h-5.4V136.7z M527.1,148.9
	c-1.1,0-2.2-0.2-3.1-0.7c-0.9-0.4-1.9-1.2-2.9-2.3v10.3h-5.4V128h5v3c0.7-1,1.5-1.9,2.7-2.5c1.1-0.6,2.4-1,3.7-1
	c2.4,0,4.4,0.9,6.1,2.8c1.7,1.9,2.5,4.4,2.5,7.8c0,3.4-0.8,6.1-2.5,8C531.5,147.9,529.5,148.9,527.1,148.9z M528.9,133.3
	c-0.9-1-1.9-1.6-3.2-1.6c-1.3,0-2.4,0.5-3.3,1.5c-0.9,1-1.3,2.5-1.3,4.5c0,2.3,0.5,4,1.4,5.1c0.9,1.1,2,1.6,3.3,1.6
	c1.3,0,2.3-0.5,3.1-1.5c0.8-1,1.3-2.7,1.3-5C530.2,136,529.7,134.4,528.9,133.3z M489.3,74.9c-3.3-1.9-5.9-4.7-7.8-8.3
	c-1.8-3.6-2.8-7.8-2.8-12.7V1.3h24.1v48.1c0,4.4,2.6,6.7,7.7,6.7h12.2v21.7h-22.1C496.4,77.8,492.6,76.8,489.3,74.9z M464.1,143.5
	c0.8,0.9,1.9,1.3,3.1,1.3c0.8,0,1.6-0.2,2.1-0.7c0.6-0.5,1-1.2,1.3-2.2l5.4,0.9c-0.7,2-1.8,3.5-3.3,4.5c-1.5,1-3.4,1.5-5.6,1.5
	c-3.6,0-6.2-1.2-7.9-3.5c-1.3-1.9-2-4.2-2-7c0-3.4,0.9-6,2.7-8c1.8-1.9,4-2.9,6.7-2.9c3,0,5.4,1,7.2,3c1.8,2,2.6,5.1,2.5,9.2h-13.6
	C462.8,141.3,463.3,142.6,464.1,143.5z M471,136.4c0-1.6-0.4-2.8-1.2-3.6c-0.8-0.8-1.7-1.2-2.8-1.2c-1.2,0-2.2,0.4-2.9,1.3
	c-0.8,0.9-1.1,2-1.1,3.5H471z M440.6,74.5c-4.8-2.2-8.9-5.1-12.2-8.9c-3.3-3.7-5.8-8-7.5-12.8c-1.7-4.8-2.5-9.7-2.5-14.7
	c0.1-4.7,1-9.3,2.8-13.8c1.8-4.4,4.4-8.4,7.8-11.9c3.4-3.5,7.4-6.2,12.1-8.2c4.7-2,9.9-3,15.6-3h12.6v20.4h-8.6
	c-3.9,0-7.2,0.6-9.9,1.9c-2.7,1.3-4.7,3.5-6,6.8h24.5v18.3h-24.5c0.7,2.2,2.3,4.2,4.9,6c2.6,1.8,5.9,2.7,10,2.7h9.7v20.3h-12.4
	C450.9,77.8,445.4,76.7,440.6,74.5z M422.7,127.5c3,0,5.4,1,7.2,3c1.8,2,2.6,5.1,2.5,9.2h-13.6c0,1.6,0.5,2.9,1.3,3.7
	c0.8,0.9,1.9,1.3,3.1,1.3c0.8,0,1.6-0.2,2.1-0.7c0.6-0.5,1-1.2,1.3-2.2l5.4,0.9c-0.7,2-1.8,3.5-3.3,4.5c-1.5,1-3.4,1.5-5.6,1.5
	c-3.6,0-6.2-1.2-7.9-3.5c-1.3-1.9-2-4.2-2-7c0-3.4,0.9-6,2.7-8C417.8,128.5,420,127.5,422.7,127.5z M427.1,136.4
	c0-1.6-0.4-2.8-1.2-3.6c-0.8-0.8-1.7-1.2-2.8-1.2c-1.2,0-2.2,0.4-2.9,1.3c-0.8,0.9-1.2,2-1.1,3.5H427.1z M397.9,71.1
	c-1,2.1-2.8,4-5.5,5.6c-2.6,1.6-6.2,2.4-10.7,2.4c-5.5-0.1-9.6-1.2-12.4-3.3c-2.7-2.1-4.6-5.5-5.7-10.3L349.5,1.3h24.7l7.5,47.9
	l7.7-47.9h24.5l-13.7,62.6C399.7,66.6,398.9,69,397.9,71.1z M349.5,23.2h-12.8v54.5h-23.8V23.2h-12.6V1.5h49.3V23.2z M276.9,77.8
	h-24.1V28.6c0-6.5,1.1-11.7,3.2-15.8c2.1-4,5.2-7,9.2-8.8c4-1.8,8.8-2.7,14.4-2.7h18.2v21.3h-12.4c-2.5,0-4.4,0.3-5.6,1
	c-1.2,0.7-2,1.7-2.4,3c-0.4,1.3-0.6,3.1-0.6,5.4h21v19.6h-21.2L276.9,77.8z M257.7,131c1.8-2.3,4-3.5,6.7-3.5c1.2,0,2.3,0.2,3.3,0.6
	c1,0.4,1.7,1,2.2,1.6c0.5,0.7,0.9,1.4,1.1,2.3c0.2,0.8,0.3,2.1,0.3,3.6v12.7h-5.4V138c0-2.2-0.1-3.6-0.3-4.3
	c-0.2-0.6-0.6-1.2-1.1-1.5c-0.5-0.4-1.1-0.5-1.9-0.5c-0.9,0-1.8,0.3-2.5,0.8c-0.7,0.5-1.3,1.2-1.5,2c-0.3,0.8-0.4,2.4-0.4,4.7v9.3
	h-5.4V128h5V131z M241,142h-11.3l-2.3,6.4h-6.1l11-28.2h6l11.3,28.2h-6.2L241,142z M235.3,126.8l-3.8,10.5h7.7L235.3,126.8z
	 M231.3,67.9c-3.8,3.5-8,6.2-12.7,8.1c-4.7,1.9-9.4,2.9-14.3,3c-5.3,0-10.4-1-15.3-2.9c-4.9-2-9.2-4.7-12.9-8.3
	c-3.8-3.6-6.7-7.9-8.8-12.8c-2.1-4.9-3.1-10.2-3.1-16c0-4.3,0.9-8.8,2.7-13.4c1.8-4.6,4.4-8.9,7.9-12.8c3.5-3.9,7.6-7,12.5-9.4
	c4.9-2.3,10.3-3.5,16.4-3.5c5.7,0,11,1,15.9,3.1c4.9,2.1,9.2,5,12.8,8.7c3.6,3.7,6.4,8,8.3,12.9c1.9,4.8,2.9,9.9,2.9,15.3
	c0,5.6-1.1,10.8-3.3,15.6C238.1,60.4,235.1,64.5,231.3,67.9z M217,31.3c-1.4-2.3-3.3-4-5.6-5.1c-2.3-1.1-4.8-1.7-7.5-1.7
	c-2.6,0-5.1,0.6-7.4,1.8c-2.3,1.2-4.2,3-5.6,5.3c-1.4,2.4-2.1,5.1-2.1,8.4c0,3.1,0.7,5.8,2.1,8c1.4,2.2,3.2,3.9,5.5,5.1
	c2.3,1.1,4.7,1.8,7.2,1.9c2.7-0.1,5.3-0.7,7.7-1.9c2.4-1.2,4.3-2.9,5.8-5.2c1.5-2.3,2.2-5.1,2.2-8.2C219.1,36.4,218.4,33.6,217,31.3
	z M173,134.3c0,4.6-1.2,8.1-3.7,10.7c-2.5,2.6-5.8,3.9-9.9,3.9c-4.2,0-7.5-1.3-10-3.8c-2.5-2.6-3.7-6.1-3.7-10.6
	c0-2.9,0.4-5.3,1.3-7.2c0.6-1.4,1.5-2.7,2.6-3.9c1.1-1.1,2.3-2,3.7-2.5c1.8-0.7,3.8-1.1,6.1-1.1c4.2,0,7.5,1.3,10,3.9
	C171.7,126.2,173,129.7,173,134.3z M165,127c-1.4-1.6-3.3-2.4-5.7-2.4c-2.4,0-4.2,0.8-5.7,2.4c-1.4,1.6-2.2,4-2.2,7.3
	c0,3.2,0.7,5.6,2.2,7.3c1.5,1.6,3.4,2.5,5.6,2.5c2.3,0,4.1-0.8,5.6-2.5c1.5-1.6,2.2-4.1,2.2-7.4C167.1,131,166.4,128.6,165,127z
	 M144.6,75.6c-4.2,1.4-8.6,2.1-13.2,2.1h-23.6V56.1h17.9c1.3,0,2.6-0.2,3.6-0.7c1.1-0.5,1.6-1.3,1.6-2.4c0-1.8-1.2-3.7-3.6-5.7
	c-2.6-2.3-5.1-4.5-7.7-6.7c-2.5-2.2-4.6-4.3-6.3-6.2c-1.7-1.9-3-3.9-4-6c-0.9-2.1-1.4-4.3-1.4-6.7c0.1-5.3,1.5-9.5,4.2-12.6
	c2.7-3,5.9-5.1,9.5-6.2c3.6-1.1,7.1-1.6,10.4-1.6h23.8v21.5h-15.9c-3.6,0-5.5,0.9-5.7,2.6c0.4,1.1,1.2,2.2,2.5,3.4
	c5.8,4.3,9.8,7.3,12.1,9.1c2.3,1.8,4.4,4.2,6.5,7.2c2.1,2.9,3.2,6.2,3.5,9.9c0.1,0.6,0.1,1.4,0.1,2.5c0,4.6-1.3,8.4-4,11.4
	C152.2,72,148.8,74.2,144.6,75.6z M112.3,121.6c1.4,1.2,2.1,2.8,2.1,4.6c0,1.1-0.3,2.2-1,3.2c-0.7,1-2.1,2.2-4.1,3.5l3.9,5.2
	c0.5-0.8,0.9-1.9,1.2-3.2l4.9,1.1c-0.5,1.7-0.9,3-1.3,3.8c-0.4,0.8-0.7,1.5-1.2,2c0.6,0.6,1.4,1.2,2.3,1.9c1,0.7,1.7,1.1,2.1,1.3
	l-3.3,4.2c-1.6-0.8-3.1-1.9-4.6-3.2c-1.1,1-2.4,1.8-3.6,2.3c-1.3,0.5-2.8,0.7-4.6,0.7c-3.5,0-6.2-1-7.9-3c-1.4-1.5-2.1-3.3-2.1-5.3
	c0-1.8,0.5-3.4,1.6-4.9c1.1-1.4,2.7-2.7,4.8-3.8c-1-1.1-1.7-2.2-2.2-3.3c-0.5-1-0.7-2-0.7-2.9c0-1.7,0.7-3.2,2.1-4.3
	c1.4-1.2,3.3-1.8,5.8-1.8C109.1,119.7,111,120.3,112.3,121.6z M100.7,140.5c0,1.2,0.4,2.1,1.1,2.9c0.8,0.7,1.8,1.1,3.1,1.1
	c0.8,0,1.7-0.2,2.4-0.5c0.8-0.3,1.6-0.9,2.6-1.7l-5.5-6.8c-1.2,0.6-2.2,1.4-2.8,2.3C101,138.6,100.7,139.5,100.7,140.5z
	 M106.7,123.5c-0.9,0-1.5,0.2-2,0.6c-0.5,0.4-0.7,0.9-0.7,1.5c0,0.7,0.4,1.5,1.2,2.4l1.3,1.5l1.5-1.1c1.1-0.8,1.6-1.7,1.6-2.5
	c0-0.7-0.3-1.3-0.8-1.8C108.3,123.8,107.6,123.5,106.7,123.5z M72.4,148.9c-1.2,0-2.3-0.3-3.5-0.9c-1.1-0.6-2.1-1.4-2.9-2.6v3h-5
	v-28.2h5.4v10.2c1.7-1.9,3.6-2.8,5.9-2.8c2.5,0,4.6,0.9,6.2,2.7c1.6,1.8,2.4,4.4,2.4,7.8c0,3.5-0.8,6.2-2.5,8.1
	C76.8,147.9,74.8,148.9,72.4,148.9z M74.1,133.2c-0.8-1-1.9-1.5-3.3-1.5c-1.3,0-2.4,0.5-3.2,1.5c-0.9,1-1.3,2.5-1.3,4.6
	c0,2.1,0.3,3.7,1,4.7c0.9,1.4,2.2,2.2,3.7,2.2c1.2,0,2.2-0.5,3.1-1.5c0.8-1,1.3-2.6,1.3-4.8C75.4,135.9,75,134.2,74.1,133.2z
	 M44.5,143.5c0.8,0.9,1.9,1.3,3.1,1.3c0.8,0,1.6-0.2,2.1-0.7c0.6-0.5,1-1.2,1.3-2.2l5.4,0.9c-0.7,2-1.8,3.5-3.3,4.5
	c-1.5,1-3.4,1.5-5.6,1.5c-3.6,0-6.2-1.2-7.9-3.5c-1.3-1.9-2-4.2-2-7c0-3.4,0.9-6,2.7-8c1.8-1.9,4-2.9,6.7-2.9c3,0,5.4,1,7.2,3
	c1.8,2,2.6,5.1,2.5,9.2H43.2C43.2,141.3,43.7,142.6,44.5,143.5z M51.4,136.4c0-1.6-0.4-2.8-1.2-3.6c-0.8-0.8-1.7-1.2-2.8-1.2
	c-1.2,0-2.2,0.4-2.9,1.3c-0.8,0.9-1.1,2-1.1,3.5H51.4z M24.2,148.4l-5.6-21.1l-5.6,21.1H6.7L0,120.2h5.8l4.3,19.4l5.2-19.4H22
	l5,19.7l4.3-19.7h5.7l-6.9,28.2H24.2z M141.1,125.2h-5.4v-5h5.4V125.2z M141.1,148.4h-5.4V128h5.4V148.4z M183.6,142.8
	c1,0.9,2.4,1.3,4.1,1.3c1.8,0,3.2-0.4,4.2-1.2c0.9-0.8,1.4-1.7,1.4-2.7c0-0.7-0.2-1.2-0.6-1.7c-0.4-0.5-1.1-0.9-2.1-1.2
	c-0.7-0.2-2.2-0.6-4.6-1.2c-3.1-0.8-5.2-1.7-6.4-2.8c-1.7-1.6-2.6-3.4-2.6-5.7c0-1.4,0.4-2.8,1.2-4c0.8-1.3,2-2.2,3.5-2.9
	c1.5-0.7,3.4-1,5.6-1c3.5,0,6.2,0.8,8,2.3c1.8,1.6,2.7,3.6,2.8,6.2l-5.7,0.3c-0.2-1.4-0.8-2.5-1.6-3.1c-0.8-0.6-2-1-3.6-1
	c-1.7,0-3,0.3-3.9,1c-0.6,0.4-0.9,1-0.9,1.8c0,0.7,0.3,1.2,0.8,1.7c0.7,0.6,2.5,1.2,5.2,1.9c2.8,0.7,4.8,1.3,6.2,2
	c1.3,0.7,2.4,1.7,3.1,2.9c0.8,1.2,1.1,2.7,1.1,4.5c0,1.6-0.4,3.1-1.3,4.5c-0.9,1.4-2.2,2.5-3.8,3.1c-1.6,0.7-3.7,1-6.1,1
	c-3.6,0-6.3-0.8-8.2-2.5c-1.9-1.6-3.1-4-3.4-7.2l5.6-0.5C181.9,140.5,182.6,141.9,183.6,142.8z M212.9,131.9c2.5,0,4.5,2,4.5,4.4
	c0,2.5-2,4.4-4.5,4.4c-2.5,0-4.5-2-4.5-4.4C208.4,133.9,210.4,131.9,212.9,131.9z M284.2,127.5c2.3,0,4.3,0.9,5.9,2.8v-10.2h5.4
	v28.2h-5v-3c-0.8,1.2-1.8,2-3,2.6c-1.1,0.6-2.3,0.9-3.4,0.9c-2.4,0-4.4-0.9-6-2.8c-1.7-1.9-2.5-4.5-2.5-7.9c0-3.5,0.8-6.1,2.4-7.9
	C279.7,128.4,281.7,127.5,284.2,127.5z M282,142.5c0.9,1.4,2.1,2.1,3.7,2.1c1.2,0,2.3-0.5,3.2-1.6c0.9-1.1,1.3-2.6,1.3-4.7
	c0-2.3-0.4-4-1.3-5.1c-0.8-1-1.9-1.5-3.3-1.5c-1.3,0-2.4,0.5-3.2,1.5c-0.9,1-1.3,2.5-1.3,4.6C281.1,139.9,281.4,141.5,282,142.5z
	 M305.7,130.9c0.9-1.4,1.6-2.3,2.3-2.7c0.7-0.4,1.5-0.7,2.3-0.7c1.2,0,2.4,0.3,3.6,1l-1.7,4.7c-0.9-0.6-1.8-0.9-2.5-0.9
	c-0.8,0-1.4,0.2-1.9,0.6c-0.5,0.4-0.9,1.2-1.2,2.3c-0.3,1.1-0.5,3.4-0.5,6.8v6.3h-5.4V128h5V130.9z M320.1,128.8
	c1.6-0.9,3.4-1.3,5.4-1.3c3.1,0,5.6,1,7.6,3c2,2,3,4.5,3,7.6c0,3.1-1,5.7-3,7.7c-2,2-4.5,3-7.5,3c-1.9,0-3.7-0.4-5.4-1.3
	c-1.7-0.8-3-2.1-3.9-3.7c-0.9-1.6-1.3-3.6-1.3-6c0-1.8,0.4-3.5,1.3-5.2C317.2,131,318.5,129.7,320.1,128.8z M322,142.8
	c1,1.1,2.2,1.6,3.6,1.6c1.4,0,2.6-0.5,3.6-1.6c1-1.1,1.4-2.6,1.4-4.7c0-2-0.5-3.5-1.4-4.6c-1-1.1-2.1-1.6-3.6-1.6
	c-1.4,0-2.6,0.5-3.6,1.6c-1,1.1-1.4,2.6-1.4,4.7C320.6,140.2,321.1,141.8,322,142.8z M345.8,125.2h-5.4v-5h5.4V125.2z M345.8,148.4
	h-5.4V128h5.4V148.4z M358.8,127.5c2.3,0,4.3,0.9,5.9,2.8v-10.2h5.4v28.2h-5v-3c-0.8,1.2-1.8,2-3,2.6c-1.1,0.6-2.3,0.9-3.4,0.9
	c-2.4,0-4.4-0.9-6-2.8c-1.7-1.9-2.5-4.5-2.5-7.9c0-3.5,0.8-6.1,2.4-7.9C354.2,128.4,356.3,127.5,358.8,127.5z M356.6,142.5
	c0.9,1.4,2.1,2.1,3.7,2.1c1.2,0,2.3-0.5,3.2-1.6c0.9-1.1,1.3-2.6,1.3-4.7c0-2.3-0.4-4-1.3-5.1c-0.8-1-1.9-1.5-3.3-1.5
	c-1.3,0-2.4,0.5-3.2,1.5c-0.9,1-1.3,2.5-1.3,4.6C355.7,139.9,356,141.5,356.6,142.5z M402.2,120.7c1.7,0.5,3.1,1.4,4.3,2.6
	c1.2,1.2,2.1,2.8,2.7,4.6c0.6,1.8,0.9,4,0.9,6.7c0,2.3-0.3,4.3-0.9,6c-0.7,2.1-1.7,3.7-3,5c-1,1-2.3,1.7-4,2.3
	c-1.3,0.4-2.9,0.6-5,0.6h-10.7v-28.2h10.4C399.2,120.2,401,120.4,402.2,120.7z M392.1,125v18.7h4.3c1.6,0,2.7-0.1,3.4-0.3
	c0.9-0.2,1.7-0.6,2.3-1.2c0.6-0.6,1.1-1.5,1.5-2.7c0.4-1.3,0.6-3,0.6-5.2c0-2.2-0.2-3.9-0.6-5c-0.4-1.2-0.9-2.1-1.6-2.7
	c-0.7-0.7-1.6-1.1-2.6-1.3c-0.8-0.2-2.4-0.3-4.7-0.3H392.1z M443.8,138.4l1.1,3.5c0.3-0.9,0.5-1.5,0.6-1.8c0.2-0.6,0.4-1.2,0.6-1.7
	l3.9-10.4h5.6l-8.1,20.4h-4.9l-8.2-20.4h5.7L443.8,138.4z M486.2,148.4h-5.4v-28.2h5.4V148.4z M495.6,128.8c1.6-0.9,3.4-1.3,5.4-1.3
	c3.1,0,5.6,1,7.6,3c2,2,3,4.5,3,7.6c0,3.1-1,5.7-3,7.7c-2,2-4.5,3-7.5,3c-1.9,0-3.7-0.4-5.4-1.3c-1.7-0.8-3-2.1-3.9-3.7
	c-0.9-1.6-1.3-3.6-1.3-6c0-1.8,0.4-3.5,1.3-5.2C492.7,131,494,129.7,495.6,128.8z M497.5,142.8c1,1.1,2.2,1.6,3.6,1.6
	c1.4,0,2.6-0.5,3.6-1.6c1-1.1,1.4-2.6,1.4-4.7c0-2-0.5-3.5-1.4-4.6c-1-1.1-2.1-1.6-3.6-1.6c-1.4,0-2.6,0.5-3.6,1.6
	c-1,1.1-1.4,2.6-1.4,4.7C496,140.2,496.5,141.8,497.5,142.8z"/>
<path class="st0" d="M192.5,103.9v-3h246v3H192.5z"/>
</svg>
