<?xml version="1.0" encoding="utf-8"?>
<!-- Generator: Adobe Illustrator 19.1.0, SVG Export Plug-In . SVG Version: 6.00 Build 0)  -->
<svg version="1.1" id="Layer_1" xmlns="http://www.w3.org/2000/svg" xmlns:xlink="http://www.w3.org/1999/xlink" x="0px" y="0px"
	 viewBox="0 0 17 12" style="enable-background:new 0 0 17 12;" xml:space="preserve">
<style type="text/css">
	.st0{fill-rule:evenodd;clip-rule:evenodd;fill:#FFC70B;}
	.st1{fill-rule:evenodd;clip-rule:evenodd;fill:#FFFFFF;}
	.st2{fill-rule:evenodd;clip-rule:evenodd;fill:#3A5899;}
	.st3{fill-rule:evenodd;clip-rule:evenodd;fill:#0274B3;}
</style>
<path class="st0" d="M8.5,7.3L0,0.9V0.7C0,0.3,0.3,0,0.7,0h15.5C16.7,0,17,0.3,17,0.7v0.2L8.5,7.3z M3.5,4.9L0,8.3v-6L3.5,4.9z
	 M17,8.2l-3.4-3.3L17,2.4V8.2z M4.5,5.7l4,3l0,0l0,0l4-3L17,10v1.3c0,0.4-0.3,0.7-0.7,0.7H0.7C0.3,12,0,11.7,0,11.3v-1.2L4.5,5.7z"
	/>
</svg>
