<?xml version="1.0" encoding="utf-8"?>
<!-- Generator: Adobe Illustrator 19.1.0, SVG Export Plug-In . SVG Version: 6.00 Build 0)  -->
<svg version="1.1" id="Layer_1" xmlns="http://www.w3.org/2000/svg" xmlns:xlink="http://www.w3.org/1999/xlink" x="0px" y="0px"
	 viewBox="-297 391 17 12" style="enable-background:new -297 391 17 12;" xml:space="preserve">
<style type="text/css">
	.st0{fill:#FFFFFF;}
</style>
<path class="st0" d="M-288.5,398.3l-8.5-6.4v-0.2c0-0.4,0.3-0.7,0.7-0.7h15.5c0.5,0,0.8,0.3,0.8,0.7v0.2L-288.5,398.3z
	 M-293.5,395.9l-3.5,3.4v-6L-293.5,395.9z M-280,399.2l-3.4-3.3l3.4-2.5V399.2z M-292.5,396.7l4,3l0,0l0,0l4-3l4.5,4.3v1.3
	c0,0.4-0.3,0.7-0.7,0.7h-15.6c-0.4,0-0.7-0.3-0.7-0.7v-1.2L-292.5,396.7z"/>
</svg>
