<?xml version="1.0" encoding="utf-8"?>
<!-- Generator: Adobe Illustrator 19.1.0, SVG Export Plug-In . SVG Version: 6.00 Build 0)  -->
<svg version="1.1" id="Layer_1" xmlns="http://www.w3.org/2000/svg" xmlns:xlink="http://www.w3.org/1999/xlink" x="0px" y="0px"
	 viewBox="0 0 15 10" style="enable-background:new 0 0 15 10;" xml:space="preserve">
<style type="text/css">
	.st0{fill-rule:evenodd;clip-rule:evenodd;fill:#FFC70B;}
	.st1{fill-rule:evenodd;clip-rule:evenodd;fill:#FFFFFF;}
	.st2{fill-rule:evenodd;clip-rule:evenodd;fill:#3A5899;}
	.st3{fill-rule:evenodd;clip-rule:evenodd;fill:#0274B3;}
</style>
<path class="st0" d="M14.7,10H0.3C0.1,10,0,9.9,0,9.7V0.3C0,0.1,0.1,0,0.3,0h14.4C14.9,0,15,0.1,15,0.3v9.4C15,9.9,14.9,10,14.7,10z
	 M14.1,9.4L9.8,3.9L7.5,5.4L5.2,3.8L0.8,9.4H14.1z M0.6,8.8l4.1-5.2L0.6,0.8V8.8z M1.3,0.6l6.2,4.1l6.2-4.1H1.3z M10.3,3.5l4.1,5.3
	v-8L10.3,3.5z"/>
</svg>
