<?xml version="1.0" encoding="utf-8"?>
<!-- Generator: Adobe Illustrator 19.1.0, SVG Export Plug-In . SVG Version: 6.00 Build 0)  -->
<svg version="1.1" id="Layer_1" xmlns="http://www.w3.org/2000/svg" xmlns:xlink="http://www.w3.org/1999/xlink" x="0px" y="0px"
	 viewBox="-298 392 15 10" style="enable-background:new -298 392 15 10;" xml:space="preserve">
<style type="text/css">
	.st0{fill:#FFFFFF;}
</style>
<path class="st0" d="M-283.3,402h-14.4c-0.2,0-0.3-0.1-0.3-0.3v-9.4c0-0.2,0.1-0.3,0.3-0.3h14.4c0.2,0,0.3,0.1,0.3,0.3v9.4
	C-283,401.9-283.1,402-283.3,402z M-283.9,401.4l-4.3-5.5l-2.3,1.5l-2.3-1.6l-4.4,5.6H-283.9z M-297.4,400.8l4.1-5.2l-4.1-2.8V400.8
	z M-296.7,392.6l6.2,4.1l6.2-4.1C-284.3,392.6-296.7,392.6-296.7,392.6z M-287.7,395.5l4.1,5.3v-8L-287.7,395.5z"/>
</svg>
