<?xml version="1.0" encoding="utf-8"?>
<!-- Generator: Adobe Illustrator 19.1.0, SVG Export Plug-In . SVG Version: 6.00 Build 0)  -->
<svg version="1.1" id="Layer_1" xmlns="http://www.w3.org/2000/svg" xmlns:xlink="http://www.w3.org/1999/xlink" x="0px" y="0px"
	 viewBox="-299 389.3 13 15.7" style="enable-background:new -299 389.3 13 15.7;" xml:space="preserve">
<style type="text/css">
	.st0{fill:#FFFFFF;}
</style>
<path class="st0" d="M-286,402.3c-0.1-0.2-0.3-0.3-0.6-0.6c-0.3-0.3-1.9-1.6-2.2-1.8c-0.3-0.2-0.5-0.3-0.9,0
	c-0.3,0.3-1.2,0.9-1.5,1.1c-0.3,0.2-0.5,0.2-0.8-0.1c-0.3-0.3-1.4-0.9-2.4-2.5c-0.8-1.2-1.2-2.5-1.3-2.9c-0.1-0.4,0.1-0.6,0.4-0.7
	c0.2-0.1,0.4-0.3,0.7-0.5c0.2-0.2,0.3-0.3,0.5-0.5c0.2-0.2,0.2-0.4,0.1-0.6c0-0.2-0.3-2.1-0.4-2.9c-0.1-0.7-0.4-0.7-0.6-0.8
	c-0.2,0-0.5-0.1-0.7-0.2c-0.3,0-0.7,0-1.1,0.2c-0.4,0.3-1.6,0.9-2.1,2.6c-0.5,1.7,0.4,3.7,0.5,4c0.1,0.3,1.4,4.5,4.7,6.9
	c3.3,2.4,3.4,1.9,4.1,2c0.7,0.1,2.4-0.3,2.9-1C-286.2,403.2-286,402.5-286,402.3L-286,402.3z"/>
</svg>
