<?xml version="1.0" encoding="utf-8"?>
<!-- Generator: Adobe Illustrator 19.1.0, SVG Export Plug-In . SVG Version: 6.00 Build 0)  -->
<svg version="1.1" id="Layer_1" xmlns="http://www.w3.org/2000/svg" xmlns:xlink="http://www.w3.org/1999/xlink" x="0px" y="0px"
	 viewBox="0 0 13 15.7" style="enable-background:new 0 0 13 15.7;" xml:space="preserve">
<style type="text/css">
	.st0{fill-rule:evenodd;clip-rule:evenodd;fill:#FFC70B;}
	.st1{fill-rule:evenodd;clip-rule:evenodd;fill:#FFFFFF;}
	.st2{fill-rule:evenodd;clip-rule:evenodd;fill:#3A5899;}
	.st3{fill-rule:evenodd;clip-rule:evenodd;fill:#0274B3;}
</style>
<path class="st0" d="M13,13c-0.1-0.2-0.3-0.3-0.6-0.6c-0.3-0.3-1.9-1.6-2.2-1.8c-0.3-0.2-0.5-0.3-0.9,0c-0.3,0.3-1.2,0.9-1.5,1.1
	c-0.3,0.2-0.5,0.2-0.8-0.1c-0.3-0.3-1.4-0.9-2.4-2.5C3.8,7.9,3.4,6.6,3.3,6.2C3.2,5.8,3.4,5.6,3.7,5.5C3.9,5.4,4.1,5.2,4.4,5
	c0.2-0.2,0.3-0.3,0.5-0.5C5.1,4.3,5.1,4.1,5,3.9C5,3.7,4.7,1.8,4.6,1C4.5,0.3,4.2,0.3,4,0.2C3.8,0.2,3.5,0.1,3.3,0
	C3,0,2.6,0,2.2,0.2C1.8,0.5,0.6,1.1,0.1,2.8c-0.5,1.7,0.4,3.7,0.5,4c0.1,0.3,1.4,4.5,4.7,6.9c3.3,2.4,3.4,1.9,4.1,2
	c0.7,0.1,2.4-0.3,2.9-1C12.8,13.9,13,13.2,13,13L13,13z"/>
</svg>
