<?xml version="1.0" encoding="utf-8"?>
<!-- Generator: Adobe Illustrator 19.1.0, SVG Export Plug-In . SVG Version: 6.00 Build 0)  -->
<svg version="1.1" id="Layer_1" xmlns="http://www.w3.org/2000/svg" xmlns:xlink="http://www.w3.org/1999/xlink" x="0px" y="0px"
	 viewBox="-237 330 136 134" style="enable-background:new -237 330 136 134;" xml:space="preserve">
<style type="text/css">
	.st0{fill:#FFFFFF;}
</style>
<path class="st0" d="M-103.7,464h-130.6c-1.5,0-2.7-1.2-2.7-2.7V332.7c0-1.5,1.2-2.7,2.7-2.7h130.7c1.5,0,2.7,1.2,2.7,2.7v128.7
	C-101,462.8-102.2,464-103.7,464z M-105.2,334.3h-127.5v23.4h127.5V334.3z M-105.2,361.4h-127.5v98.4h127.5V361.4z M-220,380
	c0-1.2,1-2.1,2.1-2.1h68.8c0,0,11.5-11.5,14-14c0.8-0.7,2.3-1.5,4,0.5l20.8,20.8c0.8,0.6,2.1,2.2,1,3.6l-59.4,59.4
	c-0.3,0.4-0.8,0.8-1.4,1l-28.1,5.8c-0.2,0-19.7,0-19.7,0c-1.2,0-2.1-1-2.1-2.1c0-1.2,1-2.1,2.1-2.1h17.6l5.4-26.3
	c0.1-0.5,0.3-1,0.7-1.5l4.6-4.6h-28.3c-1.2,0-2.1-1-2.1-2.1c0-1.1,1-2.1,2.1-2.1h32.7l31.9-31.9h-64.6C-219,382.1-220,381.2-220,380
	z M-113.9,387.3l-19.3-19.3l-13,13l19.3,19.3L-113.9,387.3z M-142.2,391.4l-40.4,40.4l5,5l40.4-40.4L-142.2,391.4z M-170.5,443.9
	l40.4-40.4l-4.1-4.1l-40.4,40.4L-170.5,443.9z M-194.7,445.1l-1,4.9l4.9-1L-194.7,445.1z M-193.7,439.9l8.1,8.1l10.6-2.2l-16.5-16.5
	L-193.7,439.9z M-189.8,424.6l4.2,4.2l40.4-40.4l-4.2-4.2L-189.8,424.6z M-140.2,379.1l5.1-5.1c0.8-0.8,2.2-0.8,3,0
	c0.8,0.8,0.8,2.2,0,3l-5.1,5.1c-0.8,0.8-2.2,0.8-3,0C-141,381.2-141,379.9-140.2,379.1z M-216.7,336.7c5,0,9,4,9,9s-4,9-9,9
	s-9-4-9-9S-221.7,336.7-216.7,336.7z M-216.8,350.7c2.6,0,4.8-2.1,4.8-4.8c0-2.6-2.1-4.8-4.8-4.8s-4.8,2.1-4.8,4.8
	C-221.6,348.6-219.5,350.7-216.8,350.7z M-191.7,336.7c5,0,9,4,9,9s-4,9-9,9s-9-4-9-9C-200.8,340.7-196.7,336.7-191.7,336.7z
	 M-191.8,350.7c2.6,0,4.8-2.1,4.8-4.8c0-2.6-2.1-4.8-4.8-4.8s-4.8,2.1-4.8,4.8C-196.6,348.6-194.5,350.7-191.8,350.7z M-166.8,336.7
	c5,0,9,4,9,9s-4,9-9,9s-9-4-9-9S-171.7,336.7-166.8,336.7z M-166.9,350.7c2.6,0,4.8-2.1,4.8-4.8c0-2.6-2.1-4.8-4.8-4.8
	c-2.6,0-4.8,2.1-4.8,4.8C-171.7,348.6-169.5,350.7-166.9,350.7z M-148.3,339h25c1.2,0,2.1,1,2.1,2.1s-1,2.1-2.1,2.1h-25
	c-1.2,0-2.1-1-2.1-2.1S-149.5,339-148.3,339z M-116.4,339h4.3c1.2,0,2.1,1,2.1,2.1s-1,2.1-2.1,2.1h-4.3c-1.2,0-2.1-1-2.1-2.1
	S-117.6,339-116.4,339z"/>
</svg>
