<?xml version="1.0" encoding="utf-8"?>
<!-- Generator: Adobe Illustrator 19.1.0, SVG Export Plug-In . SVG Version: 6.00 Build 0)  -->
<svg version="1.1" id="Layer_1" xmlns="http://www.w3.org/2000/svg" xmlns:xlink="http://www.w3.org/1999/xlink" x="0px" y="0px"
	 viewBox="-233 330.4 143.3 133.6" style="enable-background:new -233 330.4 143.3 133.6;" xml:space="preserve">
<style type="text/css">
	.st0{fill:#FFFFFF;}
</style>
<path class="st0" d="M-95.2,441.9h-49.9v17.5h21.6c1.3,0,2.3,1,2.3,2.3c0,1.3-1,2.3-2.3,2.3h-75.7c-1.3,0-2.3-1-2.3-2.3
	c0-1.3,1-2.3,2.3-2.3h21.6v-17.5h-50c-3,0-5.4-2.4-5.4-5.5V335.9c0-3.1,2.4-5.5,5.4-5.5h132.4c3,0,5.4,2.4,5.4,5.5v100.5
	C-89.7,439.4-92.2,441.9-95.2,441.9z M-173.1,459.4h23.4v-17.5h-23.4V459.4z M-94.3,335.9c0-0.5-0.4-0.9-0.9-0.9h-132.4
	c-0.4,0-0.8,0.4-0.8,0.9v100.5c0,0.5,0.4,0.9,0.9,0.9h132.4c0.5,0,0.9-0.4,0.9-0.9L-94.3,335.9L-94.3,335.9z M-101.5,423.2h-119.8
	c-1.3,0-2.3-1-2.3-2.3s1-2.3,2.3-2.3h119.8c1.3,0,2.3,1,2.3,2.3S-100.2,423.2-101.5,423.2z M-120.4,398.7c-0.2,0-0.4,0-0.6-0.1
	l-48.2-13.8h-21.7v16.9c0,2.6,2.1,4.7,4.7,4.7h5.9v-14.7c0-1.3,1-2.3,2.3-2.3s2.3,1,2.3,2.3v17c0,1.3-1,2.3-2.3,2.3h-8.2
	c-5.1,0-9.2-4.2-9.2-9.3v-16.9h-2.1c-3.9,0-7.1-3.2-7.1-7.1v-14.1c0-3.9,3.2-7.1,7.1-7.1h28.3l48.2-13.8c0.7-0.2,1.4-0.1,2,0.4
	c0.6,0.4,0.9,1.1,0.9,1.8v51.5c0,0.7-0.3,1.4-0.9,1.8C-119.4,398.5-119.9,398.7-120.4,398.7z M-171.2,361.1h-26.3
	c-1.4,0-2.5,1.1-2.5,2.5v14.1c0,1.4,1.1,2.5,2.5,2.5h26.3V361.1z M-122.7,347.9l-43.9,12.6v20.3l43.9,12.6V347.9z"/>
</svg>
