<?xml version="1.0" encoding="utf-8"?>
<!-- Generator: Adobe Illustrator 19.1.0, SVG Export Plug-In . SVG Version: 6.00 Build 0)  -->
<svg version="1.1" id="Layer_1" xmlns="http://www.w3.org/2000/svg" xmlns:xlink="http://www.w3.org/1999/xlink" x="0px" y="0px"
	 viewBox="0 0 143.3 133.6" style="enable-background:new 0 0 143.3 133.6;" xml:space="preserve">
<style type="text/css">
	.st0{fill-rule:evenodd;clip-rule:evenodd;fill:#FFC70B;}
	.st1{fill-rule:evenodd;clip-rule:evenodd;fill:#FFFFFF;}
	.st2{fill-rule:evenodd;clip-rule:evenodd;fill:#3A5899;}
	.st3{fill-rule:evenodd;clip-rule:evenodd;fill:#0274B3;}
</style>
<path class="st0" d="M137.8,111.5H87.9V129h21.6c1.3,0,2.3,1,2.3,2.3c0,1.3-1,2.3-2.3,2.3H33.8c-1.3,0-2.3-1-2.3-2.3
	c0-1.3,1-2.3,2.3-2.3h21.6v-17.5H5.4c-3,0-5.4-2.4-5.4-5.5V5.5C0,2.4,2.4,0,5.4,0h132.4c3,0,5.4,2.4,5.4,5.5V106
	C143.3,109,140.8,111.5,137.8,111.5z M59.9,129h23.4v-17.5H59.9V129z M138.7,5.5c0-0.5-0.4-0.9-0.9-0.9H5.4C5,4.6,4.6,5,4.6,5.5V106
	c0,0.5,0.4,0.9,0.9,0.9h132.4c0.5,0,0.9-0.4,0.9-0.9V5.5z M131.5,92.8H11.7c-1.3,0-2.3-1-2.3-2.3c0-1.3,1-2.3,2.3-2.3h119.8
	c1.3,0,2.3,1,2.3,2.3C133.8,91.8,132.8,92.8,131.5,92.8z M112.6,68.3c-0.2,0-0.4,0-0.6-0.1L63.8,54.4H42.1v16.9
	c0,2.6,2.1,4.7,4.7,4.7h5.9V61.3c0-1.3,1-2.3,2.3-2.3c1.3,0,2.3,1,2.3,2.3v17c0,1.3-1,2.3-2.3,2.3h-8.2c-5.1,0-9.2-4.2-9.2-9.3V54.4
	h-2.1c-3.9,0-7.1-3.2-7.1-7.1V33.2c0-3.9,3.2-7.1,7.1-7.1h28.3L112,12.3c0.7-0.2,1.4-0.1,2,0.4c0.6,0.4,0.9,1.1,0.9,1.8V66
	c0,0.7-0.3,1.4-0.9,1.8C113.6,68.1,113.1,68.3,112.6,68.3z M61.8,30.7H35.5c-1.4,0-2.5,1.1-2.5,2.5v14.1c0,1.4,1.1,2.5,2.5,2.5h26.3
	V30.7z M110.3,17.5L66.4,30.1v20.3L110.3,63V17.5z"/>
</svg>
