<?xml version="1.0" encoding="utf-8"?>
<!-- Generator: Adobe Illustrator 19.1.0, SVG Export Plug-In . SVG Version: 6.00 Build 0)  -->
<svg version="1.1" id="Layer_1" xmlns="http://www.w3.org/2000/svg" xmlns:xlink="http://www.w3.org/1999/xlink" x="0px" y="0px"
	 viewBox="0 0 148 134" style="enable-background:new 0 0 148 134;" xml:space="preserve">
<style type="text/css">
	.st0{fill-rule:evenodd;clip-rule:evenodd;fill:#FFC70B;}
	.st1{fill-rule:evenodd;clip-rule:evenodd;fill:#FFFFFF;}
	.st2{fill-rule:evenodd;clip-rule:evenodd;fill:#3A5899;}
	.st3{fill-rule:evenodd;clip-rule:evenodd;fill:#0274B3;}
</style>
<path class="st0" d="M52.7,94.1c-0.4,0.7-1.2,1.2-2,1.2c-0.4,0-0.8-0.1-1.2-0.3L21.9,78.5c-0.7-0.4-1.2-1.2-1.2-2
	c0-0.8,0.4-1.6,1.2-2L49.4,58c1.1-0.7,2.6-0.3,3.2,0.8c0.7,1.1,0.3,2.6-0.8,3.2L27.8,76.5l24.1,14.4C53,91.5,53.4,93,52.7,94.1z
	 M63,95.2c-0.5,0-0.9-0.1-1.3-0.4c-1.1-0.7-1.4-2.2-0.6-3.3l22-32.8c0.7-1.1,2.2-1.4,3.3-0.6c1.1,0.7,1.4,2.2,0.6,3.3L65,94.2
	C64.5,94.9,63.8,95.2,63,95.2z M95.3,58.8c0.7-1.1,2.1-1.5,3.2-0.8l27.5,16.4c0.7,0.4,1.2,1.2,1.2,2c0,0.8-0.4,1.6-1.2,2L98.6,94.9
	c-0.4,0.2-0.8,0.3-1.2,0.3c-0.8,0-1.6-0.4-2-1.2c-0.7-1.1-0.3-2.6,0.8-3.2l24.1-14.4L96.1,62.1C95,61.4,94.6,60,95.3,58.8z
	 M145.6,104c1.3,0,2.4,1.1,2.4,2.4v25.2c0,1.3-1.1,2.4-2.4,2.4H2.4c-1.3,0-2.4-1.1-2.4-2.4V2.4C0,1.1,1.1,0,2.4,0h143.3
	c1.3,0,2.4,1.1,2.4,2.4V97c0,1.3-1.1,2.4-2.4,2.4c-1.3,0-2.4-1.1-2.4-2.4V23.6H4.7v105.6h138.6v-22.9
	C143.3,105.1,144.3,104,145.6,104z M96.8,18.9h46.4V4.7H96.8V18.9z M92.1,18.9V4.7H4.7v14.2H92.1z M133,14.3c-1.4,0-2.5-1.1-2.5-2.5
	c0-1.4,1.1-2.5,2.5-2.5c1.4,0,2.5,1.1,2.5,2.5C135.6,13.2,134.4,14.3,133,14.3z M120.1,14.3c-1.4,0-2.5-1.1-2.5-2.5
	c0-1.4,1.1-2.5,2.5-2.5c1.4,0,2.5,1.1,2.5,2.5C122.7,13.2,121.5,14.3,120.1,14.3z M107.2,14.3c-1.4,0-2.5-1.1-2.5-2.5
	c0-1.4,1.1-2.5,2.5-2.5c1.4,0,2.5,1.1,2.5,2.5C109.7,13.2,108.6,14.3,107.2,14.3z"/>
</svg>
