<?xml version="1.0" encoding="utf-8"?>
<!-- Generator: Adobe Illustrator 19.1.0, SVG Export Plug-In . SVG Version: 6.00 Build 0)  -->
<svg version="1.1" id="Layer_1" xmlns="http://www.w3.org/2000/svg" xmlns:xlink="http://www.w3.org/1999/xlink" x="0px" y="0px"
	 viewBox="-238 330 134 134" style="enable-background:new -238 330 134 134;" xml:space="preserve">
<style type="text/css">
	.st0{fill:#FFFFFF;}
</style>
<path class="st0" d="M-109.1,443.4h-5.6c-1.2,0-2.1-1-2.1-2.1c0-1.2,1-2.1,2.1-2.1h5.6c0.4,0,0.8-0.4,0.8-0.8v-94
	c0-0.4-0.4-0.8-0.8-0.8h-19.6v10.2c0,1.2-1,2.1-2.1,2.1c-1.2,0-2.1-1-2.1-2.1v-19.5H-209v7.2v80.2h7.1v-17.5c0-1.2,1-2.1,2.1-2.1
	h33.8c1.2,0,2.1,1,2.1,2.1v17.5h16.9c1.2,0,2.1,1,2.1,2.1c0,1.2-1,2.1-2.1,2.1h-80c-1.2,0-2.1-1-2.1-2.1c0-1.2,1-2.1,2.1-2.1h13.7
	v-78.1h-19.6c-0.4,0-0.8,0.4-0.8,0.8v93.9c0,0.4,0.4,0.8,0.8,0.8h85.9c1.2,0,2.1,1,2.1,2.1c0,1.2-1,2.1-2.1,2.1h-8.8v16.4h10.7
	c1.2,0,2.1,1,2.1,2.1c0,1.2-1,2.1-2.1,2.1h-61.3c-1.2,0-2.1-1-2.1-2.1c0-1.2,1-2.1,2.1-2.1h20.2v-16.4h-46.7c-2.8,0-5.1-2.3-5.1-5.1
	v-93.8c0-2.8,2.3-5.1,5.1-5.1h19.6v-7.2c0-1.2,1-2.1,2.1-2.1h80.3c1.2,0,2.1,1,2.1,2.1v7.2h19.6c2.8,0,5.1,2.3,5.1,5.1v93.9
	C-104,441.1-106.3,443.4-109.1,443.4z M-197.6,421.7h29.6v-15.3h-29.6V421.7z M-181.9,459.7h21.9v-16.4h-21.9V459.7z M-157.4,376.4
	h10.8c1.2,0,2.1,1,2.1,2.1c0,1.2-1,2.1-2.1,2.1h-10.8c-1.2,0-2.1-1-2.1-2.1S-158.5,376.4-157.4,376.4z M-157.4,393.5h10.4
	c1.2,0,2.1,1,2.1,2.1c0,1.2-1,2.1-2.1,2.1h-10.4c-1.2,0-2.1-1-2.1-2.1S-158.5,393.5-157.4,393.5z M-157.4,385h10.4
	c1.2,0,2.1,1,2.1,2.1s-1,2.1-2.1,2.1h-10.4c-1.2,0-2.1-1-2.1-2.1S-158.5,385-157.4,385z M-199.8,376.4h33.8c1.2,0,2.1,1,2.1,2.1
	c0,1.2-1,2.1-2.1,2.1h-33.8c-1.2,0-2.1-1-2.1-2.1S-200.9,376.4-199.8,376.4z M-199.8,393.5h33.8c1.2,0,2.1,1,2.1,2.1
	c0,1.2-1,2.1-2.1,2.1h-33.8c-1.2,0-2.1-1-2.1-2.1S-200.9,393.5-199.8,393.5z M-199.8,385h33.8c1.2,0,2.1,1,2.1,2.1s-1,2.1-2.1,2.1
	h-33.8c-1.2,0-2.1-1-2.1-2.1S-200.9,385-199.8,385z M-199.8,360.7c-1.2,0-2.1-1-2.1-2.1v-15.1c0-1.2,1-2.1,2.1-2.1h57.5
	c1.2,0,2.1,1,2.1,2.1v15.1c0,1.2-1,2.1-2.1,2.1H-199.8z M-144.4,345.7h-53.2v10.8h53.2C-144.4,356.5-144.4,345.7-144.4,345.7z
	 M-201.9,367.1c0-1.2,1-2.1,2.1-2.1h57.5c1.2,0,2.1,1,2.1,2.1c0,1.2-1,2.1-2.1,2.1h-57.5C-200.9,369.3-201.9,368.3-201.9,367.1z
	 M-140.5,380.9C-140.5,380.9-140.5,380.8-140.5,380.9c0-0.1,0-0.2,0-0.2s0,0,0-0.1v-0.1c0,0,0,0,0-0.1l0,0l7.6-18.9
	c0.3-0.8,1.1-1.3,2-1.3c0.9,0,1.7,0.5,2,1.3l7.6,18.9l0,0l0,0l0,0v0.1c0,0,0,0,0,0.1v0.1v0.1v0.1c0,0.1,0,0.1,0,0.2v73
	c0,5.4-4.4,9.7-9.7,9.7c-5.4,0-9.7-4.4-9.7-9.7v-73c0-0.1,0-0.1,0-0.2C-140.6,381-140.6,380.9-140.5,380.9z M-130.8,368.1l-4.4,11
	h8.9L-130.8,368.1z M-125.4,383.4h-10.9v61.1h10.9V383.4z M-136.3,454.3c0,3,2.4,5.5,5.5,5.5c3,0,5.5-2.4,5.5-5.5v-5.6h-10.9
	L-136.3,454.3L-136.3,454.3z"/>
</svg>
