<?xml version="1.0" encoding="utf-8"?>
<!-- Generator: Adobe Illustrator 19.1.0, SVG Export Plug-In . SVG Version: 6.00 Build 0)  -->
<svg version="1.1" id="Layer_1" xmlns="http://www.w3.org/2000/svg" xmlns:xlink="http://www.w3.org/1999/xlink" x="0px" y="0px"
	 viewBox="-231 330 148 134" style="enable-background:new -231 330 148 134;" xml:space="preserve">
<style type="text/css">
	.st0{fill:#FFFFFF;}
</style>
<path class="st0" d="M-178.3,424.1c-0.4,0.7-1.2,1.2-2,1.2c-0.4,0-0.8-0.1-1.2-0.3l-27.6-16.5c-0.7-0.4-1.2-1.2-1.2-2s0.4-1.6,1.2-2
	l27.5-16.5c1.1-0.7,2.6-0.3,3.2,0.8c0.7,1.1,0.3,2.6-0.8,3.2l-24,14.5l24.1,14.4C-178,421.5-177.6,423-178.3,424.1z M-168,425.2
	c-0.5,0-0.9-0.1-1.3-0.4c-1.1-0.7-1.4-2.2-0.6-3.3l22-32.8c0.7-1.1,2.2-1.4,3.3-0.6c1.1,0.7,1.4,2.2,0.6,3.3l-22,32.8
	C-166.5,424.9-167.2,425.2-168,425.2z M-135.7,388.8c0.7-1.1,2.1-1.5,3.2-0.8l27.5,16.4c0.7,0.4,1.2,1.2,1.2,2c0,0.8-0.4,1.6-1.2,2
	l-27.4,16.5c-0.4,0.2-0.8,0.3-1.2,0.3c-0.8,0-1.6-0.4-2-1.2c-0.7-1.1-0.3-2.6,0.8-3.2l24.1-14.4l-24.2-14.3
	C-136,391.4-136.4,390-135.7,388.8z M-85.4,434c1.3,0,2.4,1.1,2.4,2.4v25.2c0,1.3-1.1,2.4-2.4,2.4h-143.2c-1.3,0-2.4-1.1-2.4-2.4
	V332.4c0-1.3,1.1-2.4,2.4-2.4h143.3c1.3,0,2.4,1.1,2.4,2.4V427c0,1.3-1.1,2.4-2.4,2.4c-1.3,0-2.4-1.1-2.4-2.4v-73.4h-138.6v105.6
	h138.6v-22.9C-87.7,435.1-86.7,434-85.4,434z M-134.2,348.9h46.4v-14.2h-46.4V348.9z M-138.9,348.9v-14.2h-87.4v14.2H-138.9z
	 M-98,344.3c-1.4,0-2.5-1.1-2.5-2.5c0-1.4,1.1-2.5,2.5-2.5s2.5,1.1,2.5,2.5C-95.4,343.2-96.6,344.3-98,344.3z M-110.9,344.3
	c-1.4,0-2.5-1.1-2.5-2.5c0-1.4,1.1-2.5,2.5-2.5s2.5,1.1,2.5,2.5C-108.3,343.2-109.5,344.3-110.9,344.3z M-123.8,344.3
	c-1.4,0-2.5-1.1-2.5-2.5c0-1.4,1.1-2.5,2.5-2.5s2.5,1.1,2.5,2.5C-121.3,343.2-122.4,344.3-123.8,344.3z"/>
</svg>
