<?xml version="1.0" encoding="utf-8"?>
<!-- Generator: Adobe Illustrator 19.1.0, SVG Export Plug-In . SVG Version: 6.00 Build 0)  -->
<svg version="1.1" id="Layer_1" xmlns="http://www.w3.org/2000/svg" xmlns:xlink="http://www.w3.org/1999/xlink" x="0px" y="0px"
	 viewBox="0 0 134 134" style="enable-background:new 0 0 134 134;" xml:space="preserve">
<style type="text/css">
	.st0{fill-rule:evenodd;clip-rule:evenodd;fill:#FFC70B;}
	.st1{fill-rule:evenodd;clip-rule:evenodd;fill:#FFFFFF;}
	.st2{fill-rule:evenodd;clip-rule:evenodd;fill:#3A5899;}
	.st3{fill-rule:evenodd;clip-rule:evenodd;fill:#0274B3;}
</style>
<path class="st0" d="M128.9,113.4h-5.6c-1.2,0-2.1-1-2.1-2.1c0-1.2,1-2.1,2.1-2.1h5.6c0.4,0,0.8-0.4,0.8-0.8V14.4
	c0-0.4-0.4-0.8-0.8-0.8h-19.6v10.2c0,1.2-1,2.1-2.1,2.1c-1.2,0-2.1-1-2.1-2.1V4.3H29c0,0,0,7.2,0,7.2v80.2h7.1V74.2
	c0-1.2,1-2.1,2.1-2.1h33.8c1.2,0,2.1,1,2.1,2.1v17.5H91c1.2,0,2.1,1,2.1,2.1c0,1.2-1,2.1-2.1,2.1H11c-1.2,0-2.1-1-2.1-2.1
	c0-1.2,1-2.1,2.1-2.1h13.7V13.6H5.1c-0.4,0-0.8,0.4-0.8,0.8v93.9c0,0.4,0.4,0.8,0.8,0.8H91c1.2,0,2.1,1,2.1,2.1c0,1.2-1,2.1-2.1,2.1
	h-8.8v16.4h10.7c1.2,0,2.1,1,2.1,2.1c0,1.2-1,2.1-2.1,2.1H31.6c-1.2,0-2.1-1-2.1-2.1c0-1.2,1-2.1,2.1-2.1h20.2v-16.4H5.1
	c-2.8,0-5.1-2.3-5.1-5.1V14.4c0-2.8,2.3-5.1,5.1-5.1h19.6V2.1c0-1.2,1-2.1,2.1-2.1h80.3c1.2,0,2.1,1,2.1,2.1v7.2h19.6
	c2.8,0,5.1,2.3,5.1,5.1v93.9C134,111.1,131.7,113.4,128.9,113.4z M40.4,91.7h29.6V76.4H40.4V91.7z M56.1,129.7h21.9v-16.4H56.1
	V129.7z M80.6,46.4h10.8c1.2,0,2.1,1,2.1,2.1c0,1.2-1,2.1-2.1,2.1H80.6c-1.2,0-2.1-1-2.1-2.1C78.5,47.4,79.5,46.4,80.6,46.4z
	 M80.6,63.5H91c1.2,0,2.1,1,2.1,2.1c0,1.2-1,2.1-2.1,2.1H80.6c-1.2,0-2.1-1-2.1-2.1C78.5,64.5,79.5,63.5,80.6,63.5z M80.6,55H91
	c1.2,0,2.1,1,2.1,2.1s-1,2.1-2.1,2.1H80.6c-1.2,0-2.1-1-2.1-2.1S79.5,55,80.6,55z M38.2,46.4h33.8c1.2,0,2.1,1,2.1,2.1
	c0,1.2-1,2.1-2.1,2.1H38.2c-1.2,0-2.1-1-2.1-2.1C36.1,47.4,37.1,46.4,38.2,46.4z M38.2,63.5h33.8c1.2,0,2.1,1,2.1,2.1
	c0,1.2-1,2.1-2.1,2.1H38.2c-1.2,0-2.1-1-2.1-2.1C36.1,64.5,37.1,63.5,38.2,63.5z M38.2,55h33.8c1.2,0,2.1,1,2.1,2.1s-1,2.1-2.1,2.1
	H38.2c-1.2,0-2.1-1-2.1-2.1S37.1,55,38.2,55z M38.2,30.7c-1.2,0-2.1-1-2.1-2.1V13.5c0-1.2,1-2.1,2.1-2.1h57.5c1.2,0,2.1,1,2.1,2.1
	v15.1c0,1.2-1,2.1-2.1,2.1H38.2z M93.6,15.7H40.4v10.8h53.2V15.7z M36.1,37.1c0-1.2,1-2.1,2.1-2.1h57.5c1.2,0,2.1,1,2.1,2.1
	c0,1.2-1,2.1-2.1,2.1H38.2C37.1,39.3,36.1,38.3,36.1,37.1z M97.5,50.9C97.5,50.9,97.5,50.8,97.5,50.9c0-0.1,0-0.2,0-0.2
	c0,0,0,0,0-0.1c0,0,0-0.1,0-0.1c0,0,0,0,0-0.1c0,0,0,0,0,0l7.6-18.9c0.3-0.8,1.1-1.3,2-1.3s1.7,0.5,2,1.3l7.6,18.9c0,0,0,0,0,0l0,0
	c0,0,0,0,0,0c0,0,0,0.1,0,0.1c0,0,0,0,0,0.1c0,0,0,0.1,0,0.1c0,0,0,0.1,0,0.1c0,0,0,0.1,0,0.1c0,0.1,0,0.1,0,0.2v73
	c0,5.4-4.4,9.7-9.7,9.7c-5.4,0-9.7-4.4-9.7-9.7v-73c0-0.1,0-0.1,0-0.2C97.4,51,97.4,50.9,97.5,50.9z M107.2,38.1l-4.4,11h8.9
	L107.2,38.1z M112.6,53.4h-10.9v61.1h10.9V53.4z M101.7,124.3c0,3,2.4,5.5,5.5,5.5c3,0,5.5-2.4,5.5-5.5v-5.6h-10.9V124.3z"/>
</svg>
