<?xml version="1.0" encoding="utf-8"?>
<!-- Generator: Adobe Illustrator 19.1.0, SVG Export Plug-In . SVG Version: 6.00 Build 0)  -->
<svg version="1.1" id="Layer_1" xmlns="http://www.w3.org/2000/svg" xmlns:xlink="http://www.w3.org/1999/xlink" x="0px" y="0px"
	 viewBox="0 0 136 134" style="enable-background:new 0 0 136 134;" xml:space="preserve">
<style type="text/css">
	.st0{fill-rule:evenodd;clip-rule:evenodd;fill:#FFC70B;}
	.st1{fill-rule:evenodd;clip-rule:evenodd;fill:#FFFFFF;}
	.st2{fill-rule:evenodd;clip-rule:evenodd;fill:#3A5899;}
	.st3{fill-rule:evenodd;clip-rule:evenodd;fill:#0274B3;}
</style>
<path class="st0" d="M133.3,134H2.7c-1.5,0-2.7-1.2-2.7-2.7V2.7C0,1.2,1.2,0,2.7,0h130.7c1.5,0,2.7,1.2,2.7,2.7v128.7
	C136,132.8,134.8,134,133.3,134z M131.8,4.3H4.3v23.4h127.5V4.3z M131.8,31.4H4.3v98.4h127.5V31.4z M17,50c0-1.2,1-2.1,2.1-2.1h68.8
	c0,0,11.5-11.5,14-14c0.8-0.7,2.3-1.5,4,0.5l20.8,20.8c0.8,0.6,2.1,2.2,1,3.6l-59.4,59.4c-0.3,0.4-0.8,0.8-1.4,1L38.8,125
	c-0.2,0-19.7,0-19.7,0c-1.2,0-2.1-1-2.1-2.1c0-1.2,1-2.1,2.1-2.1h17.6l5.4-26.3c0.1-0.5,0.3-1,0.7-1.5l4.6-4.6H19.1
	c-1.2,0-2.1-1-2.1-2.1s1-2.1,2.1-2.1h32.7l31.9-31.9H19.1C18,52.1,17,51.2,17,50z M123.1,57.3L103.8,38L90.8,51l19.3,19.3
	L123.1,57.3z M94.8,61.4l-40.4,40.4l5,5l40.4-40.4L94.8,61.4z M66.5,113.9l40.4-40.4l-4.1-4.1l-40.4,40.4L66.5,113.9z M42.3,115.1
	l-1,4.9l4.9-1L42.3,115.1z M43.3,109.9l8.1,8.1l10.6-2.2L45.5,99.3L43.3,109.9z M47.2,94.6l4.2,4.2l40.4-40.4l-4.2-4.2L47.2,94.6z
	 M96.8,49.1l5.1-5.1c0.8-0.8,2.2-0.8,3,0c0.8,0.8,0.8,2.2,0,3l-5.1,5.1c-0.8,0.8-2.2,0.8-3,0C96,51.2,96,49.9,96.8,49.1z M20.3,6.7
	c5,0,9,4,9,9c0,5-4,9-9,9s-9-4-9-9C11.3,10.7,15.3,6.7,20.3,6.7z M20.2,20.7c2.6,0,4.8-2.1,4.8-4.8c0-2.6-2.1-4.8-4.8-4.8
	s-4.8,2.1-4.8,4.8C15.4,18.6,17.5,20.7,20.2,20.7z M45.3,6.7c5,0,9,4,9,9c0,5-4,9-9,9c-5,0-9-4-9-9C36.2,10.7,40.3,6.7,45.3,6.7z
	 M45.2,20.7c2.6,0,4.8-2.1,4.8-4.8c0-2.6-2.1-4.8-4.8-4.8s-4.8,2.1-4.8,4.8C40.4,18.6,42.5,20.7,45.2,20.7z M70.2,6.7c5,0,9,4,9,9
	c0,5-4,9-9,9c-5,0-9-4-9-9C61.2,10.7,65.3,6.7,70.2,6.7z M70.1,20.7c2.6,0,4.8-2.1,4.8-4.8c0-2.6-2.1-4.8-4.8-4.8
	c-2.6,0-4.8,2.1-4.8,4.8C65.3,18.6,67.5,20.7,70.1,20.7z M88.7,9h25c1.2,0,2.1,1,2.1,2.1s-1,2.1-2.1,2.1h-25c-1.2,0-2.1-1-2.1-2.1
	S87.5,9,88.7,9z M120.6,9h4.3c1.2,0,2.1,1,2.1,2.1s-1,2.1-2.1,2.1h-4.3c-1.2,0-2.1-1-2.1-2.1S119.4,9,120.6,9z"/>
</svg>
