<?xml version="1.0" encoding="utf-8"?>
<!-- Generator: Adobe Illustrator 19.1.0, SVG Export Plug-In . SVG Version: 6.00 Build 0)  -->
<svg version="1.1" id="Layer_1" xmlns="http://www.w3.org/2000/svg" xmlns:xlink="http://www.w3.org/1999/xlink" x="0px" y="0px"
	 viewBox="0 0 102 102" style="enable-background:new 0 0 102 102;" xml:space="preserve">
<style type="text/css">
	.st0{fill:#FFFFFF;}
</style>
<g>
	<g>
		<path class="st0" d="M51,0C22.8,0,0,22.8,0,51c0,28.2,22.8,51,51,51c28.2,0,51-22.8,51-51C102,22.8,79.2,0,51,0z M40.2,70.5H26.1
			L13.9,30.3h12.7l2.1,7.2c1.9,6.8,3.8,13.7,4.6,20.7c1-7,2.8-13.9,4.7-20.7l2-7.2h12.8L40.2,70.5z M71.1,71.4
			c-11.4,0-18.4-5.5-18.5-14.5h12.5c0.2,3.9,2.7,5.2,6.4,5.2c3.2,0,5.1-1.3,5.1-3.3c0-0.7-0.3-1.2-0.8-1.6c-1.7-1.4-8.7-3.1-11.5-4
			c-5.8-2-10.1-4.2-10.1-11.1c0-7.6,6.6-12.6,16.5-12.6c10.4,0,16.4,4.7,16.6,13.1H75.5c-0.1-2.4-2-3.8-5.2-3.8
			c-2.6,0-4.1,0.9-4.1,2.5c0,2.5,7,3.4,8.7,3.9c6.8,1.8,14,4.4,14,12.7S82,71.4,71.1,71.4z"/>
	</g>
</g>
</svg>
