<?xml version="1.0" encoding="utf-8"?>
<!-- Generator: Adobe Illustrator 19.1.0, SVG Export Plug-In . SVG Version: 6.00 Build 0)  -->
<svg version="1.1" id="Layer_1" xmlns="http://www.w3.org/2000/svg" xmlns:xlink="http://www.w3.org/1999/xlink" x="0px" y="0px"
	 viewBox="0 0 1920 280.6" style="enable-background:new 0 0 1920 280.6;" xml:space="preserve">
<style type="text/css">
	.st0{fill-rule:evenodd;clip-rule:evenodd;}
	.st1{fill-rule:evenodd;clip-rule:evenodd;fill:#191819;}
	.st2{fill-rule:evenodd;clip-rule:evenodd;fill:#20201F;}
	.st3{fill-rule:evenodd;clip-rule:evenodd;fill:#171717;}
	.st4{fill-rule:evenodd;clip-rule:evenodd;fill:#181818;}
	.st5{fill-rule:evenodd;clip-rule:evenodd;fill:#383838;}
	.st6{fill-rule:evenodd;clip-rule:evenodd;fill:#212221;}
	.st7{fill-rule:evenodd;clip-rule:evenodd;fill:#2B2B2B;}
	.st8{fill-rule:evenodd;clip-rule:evenodd;fill:#3D3D3D;}
	.st9{fill-rule:evenodd;clip-rule:evenodd;fill:#292929;}
	.st10{fill-rule:evenodd;clip-rule:evenodd;fill:#414141;}
	.st11{fill-rule:evenodd;clip-rule:evenodd;fill:#1A1A1A;}
	.st12{fill-rule:evenodd;clip-rule:evenodd;fill:#484848;}
	.st13{fill-rule:evenodd;clip-rule:evenodd;fill:#1F1F1F;}
	.st14{fill-rule:evenodd;clip-rule:evenodd;fill:#363636;}
	.st15{fill-rule:evenodd;clip-rule:evenodd;fill:#49494A;}
	.st16{fill-rule:evenodd;clip-rule:evenodd;fill:#3E3E3E;}
	.st17{fill-rule:evenodd;clip-rule:evenodd;fill:#0B0B0B;}
	.st18{fill-rule:evenodd;clip-rule:evenodd;fill:#2C2C2C;}
	.st19{fill-rule:evenodd;clip-rule:evenodd;fill:#131313;}
	.st20{fill-rule:evenodd;clip-rule:evenodd;fill:#323232;}
	.st21{fill-rule:evenodd;clip-rule:evenodd;fill:#464646;}
	.st22{fill-rule:evenodd;clip-rule:evenodd;fill:#272727;}
	.st23{fill-rule:evenodd;clip-rule:evenodd;fill:#282827;}
	.st24{fill-rule:evenodd;clip-rule:evenodd;fill:#333333;}
	.st25{fill-rule:evenodd;clip-rule:evenodd;fill:#2D2D2D;}
	.st26{fill-rule:evenodd;clip-rule:evenodd;fill:#1E1E1E;}
	.st27{fill-rule:evenodd;clip-rule:evenodd;fill:#030303;}
	.st28{fill-rule:evenodd;clip-rule:evenodd;fill:#0E0E0E;}
	.st29{fill-rule:evenodd;clip-rule:evenodd;fill:#121212;}
	.st30{fill-rule:evenodd;clip-rule:evenodd;fill:#0D0D0D;}
	.st31{fill-rule:evenodd;clip-rule:evenodd;fill:#2E2E2E;}
	.st32{fill-rule:evenodd;clip-rule:evenodd;fill:#484849;}
	.st33{fill-rule:evenodd;clip-rule:evenodd;fill:#242424;}
	.st34{fill-rule:evenodd;clip-rule:evenodd;fill:#0A0A0A;}
	.st35{fill-rule:evenodd;clip-rule:evenodd;fill:#161616;}
	.st36{fill-rule:evenodd;clip-rule:evenodd;fill:#0F0E0F;}
	.st37{fill-rule:evenodd;clip-rule:evenodd;fill:#4F504F;}
	.st38{fill-rule:evenodd;clip-rule:evenodd;fill:#3C3C3C;}
	.st39{fill-rule:evenodd;clip-rule:evenodd;fill:#434343;}
	.st40{fill-rule:evenodd;clip-rule:evenodd;fill:#414242;}
	.st41{fill-rule:evenodd;clip-rule:evenodd;fill:#3A3A3A;}
	.st42{fill-rule:evenodd;clip-rule:evenodd;fill:#0C0C0C;}
	.st43{fill-rule:evenodd;clip-rule:evenodd;fill:#010101;}
	.st44{fill-rule:evenodd;clip-rule:evenodd;fill:#4D4E4E;}
	.st45{fill:none;}
	.st46{fill-rule:evenodd;clip-rule:evenodd;fill:#020202;}
	.st47{fill-rule:evenodd;clip-rule:evenodd;fill:#353535;}
	.st48{fill-rule:evenodd;clip-rule:evenodd;fill:#393939;}
	.st49{fill-rule:evenodd;clip-rule:evenodd;fill:#2A2A2A;}
	.st50{fill-rule:evenodd;clip-rule:evenodd;fill:#111111;}
	.st51{fill-rule:evenodd;clip-rule:evenodd;fill:#141414;}
</style>
<polygon class="st0" points="1863.9,93.8 1920,41.3 1920,63.5 "/>
<polygon class="st1" points="1860.8,95.1 1861,94.7 1775.9,44.7 1776.3,44.5 1919.5,38.7 1920,39 1920,40 1860.7,95.5 "/>
<polygon class="st2" points="3.3,280.6 0,280.6 0,161.4 77.8,217.8 77.7,217.9 78.1,218.1 77.8,218.5 77.8,218.6 2.8,279.8 
	3.1,280.2 "/>
<polygon class="st3" points="110.1,243.3 5.6,278.8 78.6,219.2 "/>
<polygon class="st4" points="79.1,218.1 79.4,217.7 79.1,217.5 99.1,188.5 111.3,242.9 111.3,242.9 79.4,218.5 "/>
<polygon class="st5" points="100,187.6 100.1,187.2 161.4,217.3 135.3,254.7 112.5,243.8 99.9,187.6 "/>
<polygon class="st6" points="269.9,170.9 162.1,216.6 100.9,186.5 "/>
<polygon class="st6" points="195.6,251.9 163,217.3 271.1,171.5 "/>
<polygon class="st7" points="269.6,219.5 197.1,251.7 272.4,171.5 "/>
<polygon class="st5" points="388.6,198.1 270.6,219.4 273.5,169.8 "/>
<polygon class="st8" points="375.7,238.6 271.9,220.1 390.3,198.8 "/>
<polygon class="st9" points="445.5,97 390.8,196.5 320.6,46.2 "/>
<polygon class="st0" points="481.7,141.3 481.6,142 482,142.1 482,142.1 391.7,197.2 391.6,197.1 446.4,97.4 "/>
<polygon class="st10" points="482.3,143.5 482.6,143.4 484.5,203.5 392.7,197.7 482.1,143.3 "/>
<polygon class="st0" points="618.6,168.4 515.1,201.3 484.1,143 "/>
<polygon class="st5" points="634.4,105.3 619.8,166.6 562.9,47.8 "/>
<polygon class="st11" points="745.1,146.3 620.7,167.5 635.1,106.7 "/>
<polygon class="st12" points="651.1,216.4 621.7,168.3 746.9,147 "/>
<polygon class="st13" points="714,33.6 714.3,34 714.9,33.6 747.1,145.9 635.9,105.9 "/>
<polygon class="st14" points="752.4,111 748.5,145.7 748.5,145.7 748.1,145.6 717.1,37.6 "/>
<polygon class="st15" points="753.4,110.9 753.4,110.9 853.4,159.9 853.5,160.2 853.9,160.1 853.9,160.2 853.8,160.5 749.5,145.8 
	753.4,110.9 "/>
<polygon class="st16" points="813.5,184.3 750.4,147 853.4,161.4 "/>
<polygon class="st17" points="845.6,182.6 815.1,184.5 853.5,162.5 "/>
<polygon class="st18" points="908.6,114.7 908.6,114.8 908.9,115.1 908.6,115.5 908.6,115.5 854.1,158.3 835.7,57.3 "/>
<polygon class="st19" points="962.6,163.6 855.2,159.7 854.5,159.3 909.4,116.2 "/>
<polygon class="st9" points="963.1,164.8 921.9,192.6 856.3,160.7 962.7,164.6 "/>
<polygon class="st20" points="910.3,115.5 909.9,115.1 910.3,114.7 910.1,114.6 988.9,25.2 963.6,163.2 910.2,115.5 "/>
<polygon class="st21" points="1009.4,103.2 1009.5,103.2 964.8,162.1 990.1,23.9 "/>
<polygon class="st21" points="965.1,164.3 1068,150.7 1040.7,202.5 965.1,164.6 965.2,164.5 "/>
<polygon class="st22" points="1122.7,58.1 1069.3,148.5 1068.5,149.1 1012.4,102.6 "/>
<polygon class="st23" points="1135.8,100.8 1190.7,169.4 1069.6,149.9 1070.1,149.2 "/>
<polygon class="st6" points="1221.9,76.2 1222,76.3 1191.6,168.3 1191.4,168.7 1136.6,100.1 "/>
<polygon class="st24" points="1262.4,74.6 1263.9,74.6 1263.9,74.5 1326.1,124.2 1192.4,169.1 1192.5,168.7 "/>
<polygon class="st25" points="1264.8,74 1317.7,29.7 1318.6,30 1327.3,123.8 1327.1,123.8 1327.2,123.7 "/>
<polygon class="st26" points="1357.9,106.4 1357.5,106.7 1357.8,107.1 1328.3,123.3 1319.6,29.7 "/>
<polygon class="st24" points="1412.2,144 1329.2,123.9 1358.3,108 "/>
<polygon class="st27" points="1358.9,107.1 1359.3,106.9 1359.2,106.7 1486.3,2.9 1414.7,144.4 1358.9,107.2 "/>
<polygon class="st27" points="1505.3,122 1415.8,144.4 1487.8,2.2 "/>
<polygon class="st28" points="1527.5,138.7 1420,144.3 1506,122.8 "/>
<polygon class="st11" points="1506.7,121.7 1571.8,33.6 1528.9,138.6 1506.9,122.2 "/>
<polygon class="st0" points="1603.8,91.2 1529.9,138.8 1573.6,31.8 "/>
<polygon class="st17" points="1574.3,30.3 1659,70.3 1605.1,91.5 1574.1,30.6 "/>
<polygon class="st0" points="1575.1,29.6 1658.3,30.5 1660.3,69.7 1659.9,69.9 1660,69.6 "/>
<polygon class="st29" points="1719.5,122.6 1661.3,69.8 1659.4,31.9 "/>
<polygon class="st0" points="1778.3,43.4 1855.6,0 1855.6,0 1855.7,0 1855.9,-0.2 1855.7,0.1 1917.9,37.8 "/>
<polygon class="st30" points="753.2,109.6 753,110 716.4,33.8 833.6,55.3 752.7,108.7 753.3,109.5 834,56.3 834.1,56.6 834.5,56.5 
	853.2,158.7 "/>
<polygon class="st13" points="909.3,113.9 835.9,56.2 989.3,22.9 989.2,23.3 "/>
<polygon class="st0" points="1009,8 1008.9,8.1 1008.9,8 "/>
<polygon class="st0" points="1117.2,54.7 992.1,21.1 1009,8.6 "/>
<polygon class="st22" points="1124.6,57.7 1221.3,75.3 1136.2,99.2 "/>
<polygon class="st0" points="1143.2,18.9 1143,19 1143.1,18.8 "/>
<polygon class="st0" points="1124.2,56.6 1142.5,20.1 1142.5,20.1 1220.7,74.2 "/>
<polygon class="st4" points="1251.9,2.5 1252.2,3.1 1252.3,3.1 1222.2,74 1143.9,19.8 "/>
<polygon class="st31" points="1223.1,76 1224.1,75.6 1261.1,74.6 1193.5,165.7 "/>
<polygon class="st32" points="1263.2,72.7 1262.9,73.1 1262.5,72.8 1261.8,73.6 1226.2,74.5 1315.3,30.4 1264,73.3 "/>
<polygon class="st0" points="1223,74.6 1223,74.6 1253.5,2.9 1253.7,3 1254,2.6 1253.8,3.1 1316,28.9 1223.8,74.6 "/>
<polygon class="st33" points="1320.4,28.9 1483.9,0.7 1486.4,1.6 1358.7,105.7 "/>
<polygon class="st34" points="1488.6,0.8 1572.7,30.2 1572.5,30.4 1572.8,30.6 1506.2,120.8 "/>
<polygon class="st29" points="1703.3,0 1703.3,0 1703.4,-0.1 1703.8,0.1 1704,-0.3 1771.7,43.3 1660.2,29.7 "/>
<polygon class="st35" points="1071.4,147 1123.7,58.3 1135.2,99.5 1134.8,99.6 1134.9,100.2 "/>
<polygon class="st36" points="991.3,22.4 990.9,22.1 990.9,22 991,21.9 1122.3,57.2 1011.5,101.9 1011.2,101.7 1010.9,102.1 
	1010.5,101.8 1010.2,102.2 990.9,22.9 "/>
<polygon class="st0" points="965.2,163.3 1010.6,103.4 1011.3,103.1 1067.6,149.7 1067.6,149.7 1067.7,149.8 "/>
<polygon class="st0" points="442.5,4.5 505.8,45.5 323.2,43.6 434.6,1.7 "/>
<polygon class="st37" points="0,38.8 136.8,77.9 137.1,78.3 22.2,120.5 0,49.2 "/>
<polygon class="st38" points="0,149.2 0,52.6 21.4,121.3 "/>
<polygon class="st14" points="78.3,216.9 1.5,161.3 98.7,187.3 "/>
<polygon class="st11" points="0,150.8 22,122.1 22.4,122 98,186 0,159.8 "/>
<polygon class="st35" points="99.1,185.6 23.1,121.3 138.3,78.9 99.1,185.6 "/>
<polygon class="st11" points="139.2,79.4 186.2,109.1 186,109.1 186,109.4 100.3,185.4 "/>
<polygon class="st39" points="101.8,185.4 186.7,110.1 187.7,110.1 271.7,168.8 271.6,169.8 "/>
<polygon class="st19" points="189.4,110.1 279.4,108.2 271.9,167.7 "/>
<polygon class="st0" points="280.2,107 220.2,1.7 317.4,45.9 "/>
<polygon class="st11" points="216.6,3.7 185.8,107.7 139.5,78.4 139.6,78.3 139.2,78.1 "/>
<polygon class="st11" points="75.4,3 135.7,76.6 1.8,38.3 "/>
<polygon class="st0" points="0.8,37.7 0.4,37.9 0,37.8 0,0.2 27,1.1 27,1.1 27,1.1 "/>
<polygon class="st29" points="77,1.6 217.2,1.6 217.1,1.8 138.6,77.4 137.4,77.1 76.4,2.5 77.2,2.1 77,1.6 "/>
<polygon class="st39" points="218.2,1.7 218.7,2.1 219,1.6 279.1,107.2 188,109.1 187.4,108.7 187.1,109.1 187.4,108.7 186.6,108.2 
	218,2.3 218.3,2 218.2,1.8 "/>
<polygon class="st40" points="280.7,108 318.5,45.9 318.6,45.9 319,45.6 319.3,45.8 389.1,195.1 "/>
<polygon class="st31" points="446.4,95.8 446,96.1 320,44.9 320,44.8 320.6,44.6 507.4,46.5 508.6,47.3 447,96.5 "/>
<polygon class="st21" points="447.6,97.3 508.8,48.5 482.1,140.1 "/>
<polygon class="st19" points="482.8,141.1 510.2,47.4 510.2,47.4 543.8,103 543.7,103.3 483.3,141.7 "/>
<polygon class="st2" points="544.3,104.2 544.5,104.2 544.5,104.2 544.6,104.4 545.4,103.8 545.3,103.5 545.3,103.5 544.9,102.9 
	544.9,102.7 618.1,167.3 484.6,142.1 "/>
<polygon class="st41" points="559.3,44.9 544.1,101.7 511,46.7 511.3,46.5 558.4,44.6 "/>
<polygon class="st0" points="509.3,46.6 509.4,46.6 509.3,46.6 "/>
<polygon class="st13" points="446.5,5.8 555.9,43.7 510,45.6 507.7,45.5 "/>
<polygon class="st42" points="545.3,101.7 545.1,102 560.1,45.7 560.4,45.9 560.5,45.9 561.1,46.4 618.6,166.3 "/>
<polygon class="st25" points="561.5,44.9 561,45.1 561,45 561.4,44.4 713.6,32.7 635.3,105.2 635,105.1 635.3,104.7 561.9,45.7 "/>
<polygon class="st0" points="273.1,169.1 273.1,169.1 273.1,169.1 "/>
<polygon class="st18" points="280.3,109 390,197.2 390.2,197.4 273.3,168.7 272.8,168.3 "/>
<polygon class="st43" points="1659.9,30.7 1659.9,30.7 1773.6,44.6 1774.6,45.1 1786.2,80.9 1723.9,127.4 1723.8,127.1 
	1724.1,126.7 1722.5,125.3 "/>
<polygon class="st13" points="1858,94.1 1787.2,80.6 1775.9,45.9 "/>
<polygon class="st44" points="162.2,217.9 195,252.7 136.1,255.7 "/>
<polygon class="st45" points="1262.5,72.8 1262.9,73.1 1263.2,72.7 1264,73.3 1315.3,30.4 1226.2,74.5 1261.8,73.6 "/>
<polygon class="st45" points="1223,74.6 1223.8,74.6 1316,28.9 1253.8,3.1 1254,2.6 1253.7,3 1253.5,2.9 1223,74.6 "/>
<polygon class="st45" points="1223.1,76 1193.5,165.7 1261.1,74.6 1224.1,75.6 "/>
<polygon class="st45" points="1143.1,18.8 1143,19 1143.2,18.9 "/>
<polygon class="st45" points="1252.3,3.1 1252.2,3.1 1251.9,2.5 1143.9,19.8 1222.2,74 "/>
<polygon class="st45" points="1486.4,1.6 1483.9,0.7 1320.4,28.9 1358.7,105.7 "/>
<rect x="682.9" y="-17.5" class="st45" width="0" height="66.8"/>
<polygon class="st45" points="1142.5,20.1 1142.5,20.1 1124.2,56.6 1220.7,74.2 "/>
<rect x="712.3" y="-0.1" class="st45" width="0" height="31.9"/>
<rect x="710.4" y="16.4" transform="matrix(0.7887 -0.6147 0.6147 0.7887 145.6408 456.5082)" class="st45" width="53.2" height="0"/>
<polygon class="st45" points="1572.8,30.6 1572.5,30.4 1572.7,30.2 1488.6,0.8 1506.2,120.8 "/>
<rect x="549.8" y="21.7" transform="matrix(0.5214 -0.8533 0.8533 0.5214 256.7906 501.2076)" class="st45" width="50.8" height="0"/>
<polygon class="st45" points="561.5,44.9 561.9,45.7 635.3,104.7 635,105.1 635.3,105.2 713.6,32.7 561.4,44.4 561,45 561,45.1 "/>
<polygon class="st45" points="511,46.7 544.1,101.7 559.3,44.9 558.4,44.6 511.3,46.5 "/>
<polygon class="st45" points="545.3,101.7 618.6,166.3 561.1,46.4 560.5,45.9 560.4,45.9 560.1,45.7 545.1,102 "/>
<polygon class="st45" points="1136.2,99.2 1221.3,75.3 1124.6,57.7 "/>
<polygon class="st45" points="442.5,4.5 434.6,1.7 323.2,43.6 505.8,45.5 "/>
<polygon class="st45" points="509.4,46.6 509.3,46.6 509.3,46.6 "/>
<polygon class="st45" points="510,45.6 555.9,43.7 446.5,5.8 507.7,45.5 "/>
<polygon class="st45" points="544.5,104.2 544.5,104.2 544.3,104.2 484.6,142.1 618.1,167.3 544.9,102.7 544.9,102.9 545.3,103.5 
	545.3,103.5 545.4,103.8 544.6,104.4 "/>
<polygon class="st45" points="1009,8 1008.9,8 1008.9,8.1 "/>
<polygon class="st45" points="1009,8.6 992.1,21.1 1117.2,54.7 "/>
<polygon class="st45" points="1134.9,100.2 1134.8,99.6 1135.2,99.5 1123.7,58.3 1071.4,147 "/>
<polygon class="st45" points="753.2,109.6 853.2,158.7 834.5,56.5 834.1,56.6 834,56.3 753.3,109.5 752.7,108.7 833.6,55.3 
	716.4,33.8 753,110 "/>
<polygon class="st45" points="989.2,23.3 989.3,22.9 835.9,56.2 909.3,113.9 "/>
<polygon class="st45" points="1011.3,103.1 1010.6,103.4 965.2,163.3 1067.7,149.8 1067.6,149.7 1067.6,149.7 "/>
<polygon class="st45" points="1010.2,102.2 1010.5,101.8 1010.9,102.1 1011.2,101.7 1011.5,101.9 1122.3,57.2 991,21.9 990.9,22 
	990.9,22.1 991.3,22.4 990.9,22.9 "/>
<rect x="989.5" y="21.2" class="st45" width="0" height="0.7"/>
<polygon class="st45" points="446,96.1 446.4,95.8 447,96.5 508.6,47.3 507.4,46.5 320.6,44.6 320,44.8 320,44.9 "/>
<rect x="305.6" y="21.8" transform="matrix(0.3714 -0.9285 0.9285 0.3714 186.6305 319.2393)" class="st45" width="46.9" height="0"/>
<rect x="1134" y="-2.2" class="st45" width="0" height="23"/>
<rect x="988.9" y="21.5" transform="matrix(0.6023 -0.7983 0.7983 0.6023 376.2386 798.1248)" class="st45" width="0.5" height="0"/>
<rect x="1140.3" y="9.4" transform="matrix(0.7926 -0.6097 0.6097 0.7926 233.9193 706.6454)" class="st45" width="31" height="0"/>
<polygon class="st45" points="1008,7.8 1008.1,8.1 1008.1,8.1 1008,7.8 987.3,0 987.3,0 "/>
<rect x="301.4" y="-5.4" class="st45" width="0" height="55.8"/>
<rect x="1110.6" y="-22.4" class="st45" width="0" height="64.7"/>
<polygon class="st45" points="1122.6,56 1123.4,55.3 1123.4,55.3 1122.6,56 1070.4,0 1070.4,0 "/>
<rect x="1565" y="14.3" transform="matrix(0.3924 -0.9198 0.9198 0.3924 947.1268 1462.4082)" class="st45" width="31.1" height="0"/>
<rect x="1010" y="3.3" transform="matrix(0.7779 -0.6283 0.6283 0.7779 223.3794 638.6173)" class="st45" width="10.4" height="0"/>
<polygon class="st45" points="1778.3,43.4 1917.9,37.8 1855.7,0.1 1855.8,0 1855.6,0 "/>
<rect x="825.6" y="27.6" transform="matrix(0.7809 -0.6247 0.6247 0.7809 173.3569 549.4312)" class="st45" width="88.4" height="0"/>
<rect x="1755.5" y="21.7" transform="matrix(8.236158e-002 -0.9966 0.9966 8.236158e-002 1609.2548 1791.2294)" class="st45" width="43.6" height="0"/>
<rect x="1312" y="14" transform="matrix(0.5075 -0.8616 0.8616 0.5075 642.0527 1151.3171)" class="st45" width="32.5" height="0"/>
<rect x="813.2" y="-6.7" class="st45" width="0" height="67.6"/>
<polygon class="st45" points="1703.8,0.1 1703.6,0 1703.3,0 1703.3,0 1703.3,0 1703.3,0 1660.2,29.7 1771.7,43.3 1704.4,0 1703.8,0 
	"/>
<rect x="1318.4" y="27.1" class="st45" width="0" height="0.6"/>
<rect x="973.4" y="-6.9" class="st45" width="0" height="34.9"/>
<rect x="960.4" y="-18.3" class="st45" width="0" height="58.9"/>
<polygon class="st45" points="1773.6,44.6 1659.9,30.7 1659.9,30.7 1722.5,125.3 1724.1,126.7 1723.8,127.1 1723.9,127.4 
	1786.2,80.9 1774.6,45.1 "/>
<polygon class="st45" points="1070.1,149.2 1069.6,149.9 1190.7,169.4 1135.8,100.8 "/>
<polygon class="st45" points="1012.4,102.6 1068.5,149.1 1069.3,148.5 1122.7,58.1 "/>
<polygon class="st45" points="1221.9,76.2 1136.6,100.1 1191.4,168.7 1191.6,168.3 1222,76.3 "/>
<polygon class="st45" points="1329.2,123.9 1412.2,144 1358.3,108 "/>
<polygon class="st45" points="1263.9,74.6 1262.4,74.6 1192.5,168.7 1192.4,169.1 1326.1,124.2 1263.9,74.5 "/>
<polygon class="st45" points="1357.5,106.7 1357.9,106.4 1319.6,29.7 1328.3,123.3 1357.8,107.1 "/>
<polygon class="st45" points="1317.7,29.7 1264.8,74 1327.2,123.7 1327.1,123.8 1327.3,123.8 1318.6,30 "/>
<polygon class="st45" points="965.2,164.5 965.1,164.6 1040.7,202.5 1068,150.7 965.1,164.3 "/>
<polygon class="st45" points="1009.4,103.2 990.1,23.9 964.8,162.1 1009.5,103.2 "/>
<polygon class="st45" points="750.4,147 813.5,184.3 853.4,161.4 "/>
<polygon class="st45" points="908.6,115.5 908.9,115.1 908.6,114.8 908.6,114.7 835.7,57.3 854.1,158.3 908.6,115.5 "/>
<polygon class="st45" points="853.5,160.2 853.4,159.9 753.4,110.9 753.4,110.9 753.4,110.9 749.5,145.8 853.8,160.5 853.9,160.2 
	853.9,160.1 "/>
<polygon class="st45" points="910.1,114.6 910.3,114.7 909.9,115.1 910.3,115.5 910.2,115.5 963.6,163.2 988.9,25.2 "/>
<polygon class="st45" points="909.4,116.2 854.5,159.3 855.2,159.7 962.6,163.6 "/>
<polygon class="st45" points="856.3,160.7 921.9,192.6 963.1,164.8 962.7,164.6 "/>
<polygon class="st45" points="845.6,182.6 853.5,162.5 815.1,184.5 "/>
<polygon class="st45" points="1858,94.1 1775.9,45.9 1787.2,80.6 "/>
<polygon class="st45" points="73,2.1 73,1.1 73,1.1 73,2.1 28.2,1.2 2.6,36.8 2.6,36.8 28.2,1.2 "/>
<polygon class="st45" points="1051.7,0 1009.7,7.8 1009.7,7.8 1051.7,0 "/>
<rect x="1647.6" y="-3.6" class="st45" width="0" height="36.8"/>
<rect x="559" y="43.6" class="st45" width="0" height="0"/>
<polygon class="st45" points="1359.2,106.6 1359.3,106.9 1358.9,107.1 1358.9,107.2 1414.7,144.4 1486.3,2.9 "/>
<polygon class="st45" points="1506.7,121.7 1506.9,122.2 1528.9,138.6 1571.8,33.6 "/>
<polygon class="st45" points="1420,144.3 1527.5,138.7 1506,122.8 "/>
<polygon class="st45" points="1661.3,69.8 1719.5,122.6 1659.4,31.9 "/>
<polygon class="st45" points="1487.8,2.2 1415.8,144.4 1505.3,122 "/>
<polygon class="st45" points="1575.1,29.6 1660,69.6 1659.9,69.9 1660.3,69.7 1658.3,30.5 "/>
<polygon class="st45" points="1529.9,138.8 1603.8,91.2 1573.6,31.8 "/>
<polygon class="st45" points="1574.1,30.6 1605.1,91.5 1659,70.3 1574.3,30.3 "/>
<polygon class="st45" points="375.7,238.6 390.3,198.8 271.9,220.1 "/>
<polygon class="st45" points="5.6,278.8 110.1,243.3 78.6,219.2 "/>
<polygon class="st45" points="99.1,185.6 138.3,78.9 23.1,121.3 99.1,185.6 "/>
<polygon class="st45" points="98.7,187.3 1.8,161.4 78.3,216.9 "/>
<polygon class="st45" points="1.8,38.3 135.7,76.6 75.4,3 "/>
<polygon class="st45" points="138.6,77.4 217.1,1.8 217.2,1.6 77,1.6 77.2,2.1 76.4,2.5 137.4,77.1 "/>
<polygon class="st45" points="717.1,37.6 748.1,145.6 748.5,145.7 748.5,145.7 752.4,111 "/>
<polygon class="st45" points="100.9,186.5 162.1,216.6 269.9,170.9 "/>
<polygon class="st45" points="79.1,217.5 79.4,217.7 79.1,218.1 79.4,218.5 111.3,242.9 111.3,242.9 99.1,188.5 "/>
<polygon class="st45" points="100,187.6 99.9,187.6 112.5,243.8 135.3,254.7 134.9,255.6 161.4,217.3 100.1,187.2 "/>
<polygon class="st45" points="197.1,251.7 269.1,220 269,219.7 269.6,219.5 272.4,171.5 "/>
<polygon class="st45" points="271.7,168.8 187.7,110.1 186.7,110.1 101.8,185.4 271.6,169.8 "/>
<polygon class="st45" points="100.3,185.4 186,109.4 186,109.1 186.2,109.1 139.2,79.3 "/>
<polygon class="st45" points="185.8,107.7 216.6,3.7 139.2,78.1 139.6,78.3 139.5,78.4 "/>
<polygon class="st45" points="186.6,108.2 187.4,108.7 187.1,109.1 187.4,108.7 188,109.1 279.1,107.2 219,1.6 218.7,2.1 218.2,1.7 
	218.2,1.8 218.3,2 218,2.3 "/>
<polygon class="st45" points="389.1,195.1 319.3,45.8 319,45.6 318.6,45.9 318.5,45.9 280.7,108 "/>
<polygon class="st45" points="317.4,45.9 220.2,1.7 280.2,106.9 "/>
<polygon class="st45" points="390.2,197.4 390,197.2 280.3,109 272.8,168.3 273.3,168.7 "/>
<polygon class="st45" points="279.4,108.2 189.4,110.1 271.9,167.7 "/>
<polygon class="st45" points="163,217.3 195.6,251.9 271.1,171.5 "/>
<polygon class="st45" points="515.1,201.3 618.6,168.4 484.1,143 "/>
<polygon class="st45" points="543.8,103 510.2,47.4 510.2,47.4 482.8,141.1 483.3,141.7 543.7,103.3 "/>
<polygon class="st45" points="562.9,47.8 619.8,166.6 634.4,105.3 "/>
<polygon class="st45" points="651.1,216.4 746.9,147 621.7,168.3 "/>
<polygon class="st45" points="635.1,106.7 620.7,167.5 745.1,146.3 "/>
<polygon class="st45" points="714.3,34 714,33.6 635.9,105.9 747.1,145.9 714.9,33.6 "/>
<polygon class="st45" points="482.3,143.5 482.1,143.3 392.7,197.7 484.5,203.5 482.6,143.4 "/>
<polygon class="st45" points="320.6,46.2 390.8,196.5 445.5,97 "/>
<polygon class="st45" points="482.1,140.1 508.8,48.5 447.6,97.3 "/>
<polygon class="st45" points="482,142.1 481.6,142 481.7,141.3 446.4,97.4 391.6,197.1 391.7,197.2 482,142.1 "/>
<polygon class="st45" points="273.5,169.8 270.6,219.4 388.6,198.1 "/>
<polygon class="st9" points="1919.7,37.7 1920,37.7 1920,0 1857.6,0 "/>
<polygon class="st28" points="1853.6,0 1779.1,0 1775.5,43.5 1776.1,43.5 "/>
<polygon class="st40" points="1168.1,0 1143.5,18.9 1251.7,1.5 1249.7,0 "/>
<polygon points="1142,18.8 1142.5,17.8 1142.9,18.1 1166.4,0 1128.5,0 "/>
<polygon class="st46" points="1019.3,0 1011.2,6.5 1046.3,0 "/>
<polygon class="st42" points="935.8,0 987.3,21 959.5,0 "/>
<polygon points="715.4,31.9 715.4,31.8 715.5,31.9 756.3,0 711.3,0 "/>
<polygon class="st1" points="758,0 716,32.7 833.4,54.3 793,0 "/>
<polygon class="st1" points="834.7,54.4 902.7,0 794.3,0 "/>
<polygon class="st47" points="904.4,0 835.3,55.2 835.3,55.3 987.7,22.2 933.2,0 "/>
<polygon class="st47" points="1008.7,7 1009.1,6.9 1017.7,0 990.1,0 "/>
<polygon points="1083.1,0 1140.7,18.7 1127.2,0 "/>
<polygon points="1071.8,0 1123.4,55.3 1123.4,55.3 1123.4,55.3 1122.6,56 1070.4,0 1051.7,0 1009.7,7.8 1123.3,56.3 1141.4,20 
	1079.8,0 "/>
<polygon class="st13" points="1336.5,0 1320,28 1482,0 "/>
<polygon class="st48" points="1572.7,29.1 1572.8,29.1 1573,28.6 1573.3,28.7 1585.5,0 1489.2,0 "/>
<polygon class="st24" points="1586.6,0 1574.4,28.6 1658.6,29.5 1636.6,0 "/>
<polygon class="st49" points="1659.4,29 1701.5,0 1637.8,0 "/>
<polygon class="st50" points="1773.9,43.6 1774.5,43.5 1778.1,0 1706.2,0 "/>
<polygon class="st22" points="1318.9,27.1 1319.3,26.8 1319.4,27 1335.3,0 1259.6,0 1254.3,2.2 1317.2,28.3 1318.4,27.7 
	1318.4,27.1 1318.4,27.1 1318.4,27.1 "/>
<polygon class="st9" points="987.3,0 961.1,0 989.3,21.2 989.3,21.2 989.3,21.2 989,21.7 989.4,21.9 989.6,21.8 989.4,21.2 
	989.4,21.2 989.4,21.2 989.9,21.1 990.1,20.6 990.8,20.8 1008.1,8.1 1008,7.8 "/>
<polygon points="337.8,0 320.4,43.6 320.4,43.6 433.1,1.2 432.8,1.1 432.8,1.1 432.8,1.1 433.1,0.5 431.6,0 "/>
<polygon points="318.5,44.1 318.6,43.8 319.1,44.1 319.1,43.6 319.3,43.6 336.7,0 286.2,0 "/>
<polygon class="st13" points="222.3,0 220.9,0.9 317.9,45 317.9,45 284.9,0 "/>
<polygon points="27.2,0 27.2,0.1 28,0.1 28,0.1 28,0.1 28,0.2 73,1.1 73,1.1 73,1.1 73,2.1 28.2,1.2 2.6,36.8 74.8,2.2 74.6,2 
	74.6,2 74.6,2 75,1.6 74.7,1.2 74.7,1.2 74.7,1.2 74.9,1.1 72.7,0 "/>
<polygon class="st51" points="560.8,43.4 587.3,0 437.5,0 443,3.6 558.6,43.6 559,43.6 559,43.6 559,43.6 559,43.6 "/>
<polygon class="st22" points="588.5,0 562,43.3 712.3,31.8 653.6,0 "/>
<polygon points="655.7,0 714.2,31.6 714.4,31.6 710.3,0 "/>
<path d="M1857.6,0h-1.8l0,0.1l62.2,37.7l-139.7,5.6L1855.6,0h-2l-77.5,43.5l-0.5,0v0l0,0l3.6-43.5h-1l-3.6,43.5l-0.6,0L1706.2,0
	h-1.8l67.3,43.3l-111.5-13.6L1703.3,0h-1.8l-42.1,29l-21.6-29h-1.2l22,29.5h0l0,0l-84.1-1l0,0h0L1586.6,0h-1.1l-12.3,28.7l-0.2-0.1
	l-0.2,0.5l-0.1,0.1L1489.2,0h-7.2l-162,28l0,0l0,0l16.5-28h-1.2l-15.9,27l-0.1-0.2l-0.4,0.2l-0.5,0l0.1,0.6l0,0l0,0l-1.3,0.6
	l-62.9-26.1l0,0l0,0l5.3-2.2h-2.6l-3.1,1.3l0-0.1l-0.9,0.1l-1.7-1.3h-1.7l2,1.5l0,0l0,0l-108.2,17.4l0,0l0,0L1168.1,0h-1.6
	l-23.5,18.1l-0.5-0.2l-0.5,0.9L1128.5,0h-1.2l13.5,18.7l0,0l0,0L1083.1,0h-3.2l61.6,20l0,0l0,0l-18.1,36.3L1009.7,7.8l0,0l0,0
	l42-7.8h-5.5l-35.1,6.5l0,0l0,0l8.1-6.5h-1.6l-8.6,6.9l-0.4,0.1l-18.6-7h-2.8l20.7,7.8l0,0.2l0,0l0,0l-17.3,12.7l-0.8-0.2l-0.1,0.5
	l-0.5,0.1l0.2,0.7l0,0l0,0l-0.2,0l-0.5-0.2l0,0l0,0l0.3-0.4L961.1,0h-1.7l27.9,21l0,0l0,0L935.8,0h-2.6l54.5,22.2l0,0l0,0l-152.4,33
	l0,0l0,0l0,0l69-55.2h-1.6l-68,54.4L794.3,0H793l40.3,54.3l0,0l0,0L716,32.7l0,0l0,0L758,0h-1.6l-40.9,31.9l0,0l0,0L711.3,0h-1
	l4.1,31.6h0l0,0l-0.2,0L655.7,0h-2.1l58.8,31.8l0,0l0,0L562,43.3l0,0l0,0L588.5,0h-1.2l-26.5,43.4l-1.8,0.1l0,0h0l0,0l-0.4,0
	L443,3.6L437.5,0h-1.7l0,0.1l3.3,2.1l-3-1l0.1-0.1l-0.4-0.9l-0.5,0.2L435.3,0h-3.6l1.4,0.5l0,0l0,0l-0.2,0.6l0.3,0.1l0,0l0,0
	L320.4,43.6l0,0l0,0h0L337.8,0h-1.1l-17.4,43.6l-0.2,0l0,0.5l-0.4-0.3l-0.2,0.3L286.1,0h-1.2l33,45l0,0l0,0l0,0l-97-44.1l0,0l0,0
	l1.4-0.9h-1.8l-0.7,0.5l-0.6-0.3L219,0.6h-0.6l-1-0.6h-1.8l1,0.6h0l0,0H77.6l0,0h0l1-0.6h-1.9l-0.8,0.5l-1-0.5h-2.2l2.2,1.1l0,0l0,0
	l-0.1,0.1L75,1.6l0,0l0,0L74.6,2l0.2,0.2l0,0l0,0L2.6,36.8l0,0l0,0L28.2,1.2l44.8,1l0-1l-45-1l0,0h0l0,0l-0.8,0L27.2,0h-1.2L26,0.1
	h0l0,0L23.8,0H0v0.2l27,0.9l0,0l0,0L0.8,37.7l-0.4,0.2L0,37.8v1l136.8,39.2l0.3,0.4L22.2,120.5L0,49.2v3.4l21.4,68.7L0,149.2v1.6
	l22-28.7l0.4-0.1L98,186L0,159.8v1.5l77.8,56.4l-0.1,0.1l0.4,0.3l-0.3,0.4l0,0l-75,61.2l0.3,0.4l0.2,0.5h0L111.1,244l0.7,0.5
	l0.3-0.4l-0.2,0.5l23,11l-0.2,0.3l0.8,0.6l26.6-38.5l32.7,34.7l-0.1,0.1l-58.7,2.9l0,1l60-3l0-0.4l73.8-32.5L376,239.6l0.1-0.5
	l0.5,0.2l14.9-40.7l94.6,6l0.1-1l-0.5,0l-1.9-59.4l30.6,57.3l-0.3,0.1l0.3,1l105.9-33.7l0.6,0.5l0.3-0.4l29.6,48.3l0.4-0.3l0.3,0.4
	l96.8-70.2l0.7,0.2l0.1-0.3l64,37.9l0,0l0,0.5l33-2l0-0.5l0.5,0.2l8.4-21.6l0.4-0.2l-0.2-0.3l0-0.1l66.7,32.4l0.2-0.5l0.3,0.4
	l41.9-28.3l76.6,38.3l0.2-0.4l0.4,0.2l27.7-52.6l121.9,19.7l0,0.1l0.2-0.1l0.6,0.1l0-0.3l136-45.7l86.8,21l0.1-0.5l0,0.5l113.6-5.9
	l-0.1,0.2l0.5,0.2l0.3,0.4l75.1-48.5l0.1,0.3l0.4-0.2l0.2,0.5l55.7-21.9l61.1,55.3l1.6,2.4l0.4-0.3l0.3,0.4l62.8-46.9l73.7,14
	l-0.2,0.2l0.3,0.4l0.2,0.4l59-31.9v-1.1l-56.1,30.3l56.1-52.5V40l-59.3,55.5l0.1-0.4l0.3-0.4l-85.1-49.9l0.5-0.3l143.1-5.8l0.5,0.3
	v-1.3l-0.3,0L1857.6,0z M1572.7,30.2l-0.1,0.3l0.3,0.1l-66.7,90.3l-17.5-120L1572.7,30.2z M1487.6,0.6l0,0.1L1487.6,0.6l-0.1,0.1
	l-0.1,0L1487.6,0.6z M1483.9,0.7l2.5,0.9l-127.6,104.1l-38.4-76.8L1483.9,0.7z M1253.2,2.7l0.2,0.1L1253.2,2.7L1253.2,2.7z
	 M1253.5,2.9l0.2,0.2l0.3-0.4l-0.2,0.5l62.2,25.8l-92.1,45.6l-0.8,0l0,0L1253.5,2.9z M1226.2,74.5l89.1-44.1l-51.3,43l-0.8-0.6
	l-0.3,0.4l-0.4-0.3l-0.6,0.8L1226.2,74.5z M1261.1,74.6l-67.5,91.1l29.6-89.7l1-0.5L1261.1,74.6z M1251.9,2.5l0.3,0.6l0.1,0
	L1222.2,74l-78.3-54.1L1251.9,2.5z M1143.1,18.8l0.1,0.2l-0.2,0L1143.1,18.8z M1142.5,20.1L1142.5,20.1l78.2,54.1l-96.5-17.6
	L1142.5,20.1z M1221.3,75.3l-85.1,23.9l-11.6-41.5L1221.3,75.3z M1123.7,58.3l11.5,41.1l-0.4,0.1l0.2,0.6l-63.6,46.8L1123.7,58.3z
	 M1009,8L1009,8L1009,8L1009,8z M1009,8.6l108.2,46.1L992.1,21.1L1009,8.6z M990.9,22.1L990.9,22.1l0.1-0.2l131.3,35.3l-110.8,44.8
	l-0.3-0.2l-0.3,0.4l-0.4-0.3l-0.3,0.4l-19.3-79.3l0.4-0.5L990.9,22.1z M1067.7,149.8l-102.5,13.5l45.4-60l0.7-0.3L1067.7,149.8
	L1067.7,149.8L1067.7,149.8z M989.3,22.9l-0.1,0.3l-79.9,90.7l-73.4-57.8L989.3,22.9z M833.6,55.3l-80.9,53.3l0.5,0.8L834,56.3
	l0.1,0.3l0.5-0.1l18.7,102.2l-100-49L753,110l-36.6-76.2L833.6,55.3z M561.4,44.4l152.2-11.7l-78.3,72.5l-0.3-0.1l0.3-0.4l-73.4-59
	l-0.4-0.9l-0.4,0.2L561,45L561.4,44.4z M560.4,45.9L560.4,45.9l0.7,0.5l57.5,120l-73.2-64.6l-0.3,0.3l15-56.3L560.4,45.9z
	 M545.3,103.5L545.3,103.5l-0.4-0.7l0-0.2l73.2,64.6l-133.6-25.2l59.7-37.9l0.2,0.1l0,0l0.1,0.1l0.9-0.5L545.3,103.5z M559.3,44.9
	l-15.1,56.8l-33.1-55l0.3-0.2l47.2-1.9L559.3,44.9z M555.9,43.7L510,45.6l-2.3,0L446.5,5.8L555.9,43.7z M509.4,46.6L509.4,46.6
	l-0.1,0L509.4,46.6z M434.6,1.7l8,2.8l63.3,41.1l-182.7-1.9L434.6,1.7z M320.6,44.6l186.8,2l1.2,0.8L447,96.5l-0.6-0.7l-0.4,0.3
	L320,44.9l0-0.1L320.6,44.6z M508.8,48.5l-26.7,91.7l-34.5-42.9L508.8,48.5z M318.5,45.9L318.5,45.9l0.5-0.2l0.3,0.1l69.8,149.3
	L280.7,108L318.5,45.9z M139.2,78.1l77.3-74.4l-30.8,104l-46.2-29.3l0-0.1L139.2,78.1z M186.2,109.1l-0.2,0l0,0.3l-85.7,76
	l38.9-106.1L186.2,109.1z M186.7,110.1l1,0l84.1,58.7l-0.1,1l-169.8,15.6L186.7,110.1z M189.4,110.1l90.1-1.9l-7.6,59.5L189.4,110.1
	z M280.3,109L390,197.2l0.1,0.2l-116.9-28.7l-0.5-0.3L280.3,109z M317.4,45.9l-37.2,61.1l-60-105.2L317.4,45.9z M218.2,1.8
	L218.2,1.8l0.6,0.2l0.3-0.4l60.2,105.5l-91.2,1.9l-0.6-0.4l-0.3,0.4l0.3-0.4l-0.7-0.4L218,2.3l0.3-0.3L218.2,1.8z M1.8,38.3L75.4,3
	l60.2,73.6L1.8,38.3z M76.4,2.5l0.9-0.4L77,1.6h140.2l0,0.1l-78.6,75.6l-1.2-0.3L76.4,2.5z M23.1,121.3l115.2-42.3L99.1,185.6l0,0
	L23.1,121.3z M1.8,161.4l97,25.9l-20.4,29.7L1.8,161.4z M5.6,278.8l73-59.6l31.5,24.1L5.6,278.8z M111.3,242.9l-31.9-24.4l-0.3-0.4
	l0.3-0.4l-0.3-0.2l20-29.1L111.3,242.9L111.3,242.9z M134.9,255.6l0.4-0.8l-22.8-10.9l-12.6-56.2l0,0l0.1-0.4l61.3,30.2L134.9,255.6
	z M162.1,216.6l-61.2-30.1l169-15.6L162.1,216.6z M195.6,251.9L163,217.3l108.1-45.8L195.6,251.9z M269.6,219.5l-0.6,0.1l0.1,0.4
	l-71.9,31.7l75.3-80.2L269.6,219.5z M273.5,169.8l115.1,28.3l-118,21.3L273.5,169.8z M375.7,238.6l-103.8-18.4l118.4-21.4
	L375.7,238.6z M390.8,196.5L320.6,46.2L445.5,97L390.8,196.5z M391.6,197.1l54.8-99.8l35.3,43.9l-0.2,0.7l0.5,0.1l0,0L391.6,197.1
	L391.6,197.1z M484.5,203.5l-91.8-5.8l89.5-54.5l0.2,0.3l0.3-0.2L484.5,203.5z M483.3,141.7l-0.5-0.6l27.3-93.7l0.1,0l33.6,55.7
	l-0.1,0.3L483.3,141.7z M515.1,201.3L484.1,143l134.5,25.4L515.1,201.3z M619.8,166.6l-57-118.8l71.6,57.5L619.8,166.6z
	 M620.7,167.5l14.5-60.8l110,39.6L620.7,167.5z M651.1,216.4l-29.4-48.1L746.9,147L651.1,216.4z M635.9,105.9L714,33.6l0.3,0.4
	l0.6-0.5l32.2,112.3L635.9,105.9z M748.5,145.7L748.5,145.7l-0.5-0.1l-31-108l35.3,73.4L748.5,145.7z M750.4,147l103.1,14.5
	l-40,22.8L750.4,147z M845.6,182.6l-30.5,1.9l38.4-22L845.6,182.6z M853.8,160.5l-104.3-14.6l3.9-34.9l0,0l0,0l100,49l0.1,0.3
	l0.4-0.1l0.1,0L853.8,160.5z M835.7,57.3l72.9,57.4l-0.1,0.1l0.4,0.3l-0.3,0.4l0,0l-54.5,42.8L835.7,57.3z M854.5,159.3l54.9-43.2
	l53.2,47.4l-107.4-3.9L854.5,159.3z M921.9,192.6l-65.6-31.9l106.4,3.9l0.4,0.2L921.9,192.6z M963.6,163.2l-53.4-47.6l0.1,0
	l-0.3-0.4l0.3-0.4l-0.2-0.1l78.8-89.4L963.6,163.2z M990.1,23.9l19.3,79.3l0,0l-44.6,58.9L990.1,23.9z M1040.7,202.5l-75.6-37.8
	l0.1-0.1l-0.1-0.2l102.9-13.6L1040.7,202.5z M1068.5,149.1l-56.1-46.4l110.3-44.6l-53.4,90.4L1068.5,149.1z M1069.6,149.9l0.4-0.7
	l65.7-48.4l54.9,68.6L1069.6,149.9z M1191.6,168.3l-0.3,0.4l-54.8-68.5l85.3-24l0.1,0.1L1191.6,168.3z M1192.4,169.1l0.1-0.3
	l69.8-94.1l1.5,0l0-0.1l62.2,49.6L1192.4,169.1z M1327.1,123.8l0.1-0.1L1264.8,74l52.9-44.3l0.9,0.4l8.7,93.7L1327.1,123.8z
	 M1319.6,29.7l38.3,76.7l-0.4,0.3l0.3,0.4l-29.6,16.2L1319.6,29.7z M1329.2,123.9l29-15.9l53.9,36L1329.2,123.9z M1414.7,144.4
	l-55.7-37.2l-0.1-0.1l0.4-0.2l-0.1-0.2L1486.3,2.9L1414.7,144.4z M1487.8,2.2l17.5,119.7l-89.5,22.4L1487.8,2.2z M1420,144.3
	l86-21.5l21.5,15.9L1420,144.3z M1528.9,138.6l-22.1-16.3l-0.1-0.5l65.1-88.1L1528.9,138.6z M1529.9,138.8l43.8-107l30.1,59.4
	L1529.9,138.8z M1605.1,91.5l-30.9-60.9l0.1-0.3l84.7,40L1605.1,91.5z M1659.9,69.9l0.1-0.3l-84.9-40.1l83.2,1l2,39.2L1659.9,69.9z
	 M1661.3,69.8l-1.9-38l60.1,90.7L1661.3,69.8z M1858,94.1l-70.9-13.4l-11.3-34.8L1858,94.1z M1786.2,80.9l-62.3,46.5l-0.2-0.2
	l0.4-0.4l-1.6-1.5l-62.7-94.5l0.1,0l113.7,13.9l1,0.6L1786.2,80.9z"/>
<polygon points="1123.4,55.3 1071.8,0 1070.4,0 1122.6,56 "/>
<polygon points="1857.6,0 1857.6,0 1919.7,37.7 1920,37.7 1920,37.7 1919.7,37.7 "/>
<polygon points="1776.1,43.5 1775.5,43.5 1775.5,43.5 1776.1,43.5 1853.6,0 1853.6,0 "/>
<rect x="1142.8" y="10.2" transform="matrix(-0.9873 0.1587 -0.1587 -0.9873 2381.6179 -169.7583)" width="109.6" height="0"/>
<polygon points="1142.9,18.1 1142.5,17.8 1142,18.8 1128.5,0 1128.5,0 1142,18.8 1142.5,17.8 1142.9,18.1 1166.4,0 1166.4,0 "/>
<polygon points="1011.2,6.5 1011.2,6.5 1046.3,0 1046.3,0 "/>
<polygon points="935.8,0 987.3,21 987.3,21 935.8,0 "/>
<polygon points="715.5,31.9 715.4,31.8 715.4,31.9 711.3,0 711.3,0 715.4,31.9 715.4,31.8 715.5,31.9 756.3,0 756.3,0 "/>
<rect x="715" y="43.5" transform="matrix(-0.9836 -0.1804 0.1804 -0.9836 1528.767 226.0695)" width="119.3" height="0"/>
<polygon points="834.7,54.4 794.3,0 794.3,0 834.7,54.4 902.8,0 902.7,0 "/>
<polygon points="835.3,55.2 835.3,55.2 835.3,55.3 987.7,22.2 987.7,22.2 835.3,55.3 "/>
<polygon points="1009.1,6.9 1008.7,7 990.1,0 990.1,0 1008.7,7 1009.1,6.9 1017.7,0 1017.7,0 "/>
<rect x="1081.6" y="9.3" transform="matrix(-0.9512 -0.3085 0.3085 -0.9512 2166.6448 361.257)" width="60.6" height="0"/>
<polygon points="1009.7,7.8 1009.7,7.8 1123.3,56.3 1141.4,20 1141.4,20 1123.3,56.3 "/>
<rect x="1059.7" y="27.6" transform="matrix(0.6823 0.7311 -0.7311 0.6823 368.8881 -793.5929)" width="75.6" height="0"/>
<polygon points="1320,28 1320,28 1482,0 1482,0 "/>
<polygon points="1573.3,28.7 1573,28.6 1572.8,29.1 1572.7,29.1 1489.2,0 1489.2,0 1572.7,29.1 1572.8,29.1 1573,28.6 1573.3,28.7 
	1585.5,0 1585.5,0 "/>
<rect x="1574.4" y="29.1" transform="matrix(-0.9999 -1.163455e-002 1.163455e-002 -0.9999 3232.5437 76.9184)" width="84.1" height="0"/>
<polygon points="1659.4,29 1637.8,0 1637.8,0 1659.4,29 1701.5,0 1701.5,0 "/>
<polygon points="1774.5,43.5 1773.9,43.6 1706.2,0 1706.2,0 1773.9,43.6 1774.5,43.5 1778.1,0 1778.1,0 "/>
<polygon points="1254.3,2.2 1254.3,2.2 1317.2,28.3 1318.4,27.7 1318.4,27.7 1317.2,28.3 "/>
<polygon points="1319.4,27 1319.3,26.8 1318.9,27.1 1318.4,27.1 1318.4,27.1 1318.9,27.1 1319.3,26.8 1319.4,27 1335.3,0 1335.3,0 
	"/>
<polygon points="990.1,20.6 989.9,21.1 989.4,21.2 989.4,21.2 989.9,21.1 990.1,20.6 990.8,20.8 1008.1,8.1 1008.1,8.1 990.8,20.8 
	"/>
<polygon points="989,21.7 989,21.7 989.4,21.9 989.6,21.8 989.6,21.8 989.4,21.9 "/>
<rect x="975.2" y="-7" width="0" height="35.3"/>
<polygon points="320.4,43.6 320.4,43.6 320.4,43.6 433.1,1.2 433.1,1.2 320.4,43.6 "/>
<polygon points="319.3,43.6 319.1,43.6 319.1,44.1 318.6,43.8 318.5,44.1 286.2,0 286.1,0 318.5,44.1 318.6,43.8 319.1,44.1 
	319.1,43.6 319.3,43.6 336.7,0 336.7,0 "/>
<polygon points="220.9,0.9 220.9,0.9 317.9,45 317.9,45 317.9,45 317.9,45 "/>
<rect x="-1.3" y="19.5" transform="matrix(-0.9013 0.4331 -0.4331 -0.9013 82.0385 20.283)" width="80" height="0"/>
<polygon points="560.8,43.4 559,43.6 559,43.6 560.8,43.4 587.3,0 587.3,0 "/>
<polygon points="443,3.6 437.5,0 437.5,0 443,3.6 558.6,43.6 559,43.6 559,43.6 558.6,43.6 "/>
<rect x="561.8" y="37.5" transform="matrix(-0.9971 7.674503e-002 -7.674503e-002 -0.9971 1275.323 26.0908)" width="150.8" height="0"/>
<polygon points="655.7,0 655.7,0 714.2,31.6 714.4,31.6 714.4,31.6 714.2,31.6 "/>
</svg>
