<?xml version="1.0" encoding="utf-8"?>
<!-- Generator: Adobe Illustrator 19.1.0, SVG Export Plug-In . SVG Version: 6.00 Build 0)  -->
<svg version="1.1" id="Layer_1" xmlns="http://www.w3.org/2000/svg" xmlns:xlink="http://www.w3.org/1999/xlink" x="0px" y="0px"
	 viewBox="0 0 1920 279.4" style="enable-background:new 0 0 1920 279.4;" xml:space="preserve">
<style type="text/css">
	.st0{fill-rule:evenodd;clip-rule:evenodd;}
	.st1{fill:none;}
	.st2{fill-rule:evenodd;clip-rule:evenodd;fill:#484849;}
	.st3{fill-rule:evenodd;clip-rule:evenodd;fill:#2E2E2E;}
	.st4{fill-rule:evenodd;clip-rule:evenodd;fill:#0F0E0F;}
	.st5{fill-rule:evenodd;clip-rule:evenodd;fill:#292929;}
	.st6{fill-rule:evenodd;clip-rule:evenodd;fill:#4F504F;}
	.st7{fill-rule:evenodd;clip-rule:evenodd;fill:#20201F;}
	.st8{fill-rule:evenodd;clip-rule:evenodd;fill:#171717;}
	.st9{fill-rule:evenodd;clip-rule:evenodd;fill:#363636;}
	.st10{fill-rule:evenodd;clip-rule:evenodd;fill:#181818;}
	.st11{fill-rule:evenodd;clip-rule:evenodd;fill:#383838;}
	.st12{fill-rule:evenodd;clip-rule:evenodd;fill:#4D4E4E;}
	.st13{fill-rule:evenodd;clip-rule:evenodd;fill:#212221;}
	.st14{fill-rule:evenodd;clip-rule:evenodd;fill:#2B2B2B;}
	.st15{fill-rule:evenodd;clip-rule:evenodd;fill:#3D3D3D;}
	.st16{fill-rule:evenodd;clip-rule:evenodd;fill:#414141;}
	.st17{fill-rule:evenodd;clip-rule:evenodd;fill:#2A2A2A;}
	.st18{fill-rule:evenodd;clip-rule:evenodd;fill:#1A1A1A;}
	.st19{fill-rule:evenodd;clip-rule:evenodd;fill:#484848;}
	.st20{fill-rule:evenodd;clip-rule:evenodd;fill:#1F1F1F;}
	.st21{fill-rule:evenodd;clip-rule:evenodd;fill:#49494A;}
	.st22{fill-rule:evenodd;clip-rule:evenodd;fill:#3E3E3E;}
	.st23{fill-rule:evenodd;clip-rule:evenodd;fill:#0B0B0B;}
	.st24{fill-rule:evenodd;clip-rule:evenodd;fill:#2C2C2C;}
	.st25{fill-rule:evenodd;clip-rule:evenodd;fill:#131313;}
	.st26{fill-rule:evenodd;clip-rule:evenodd;fill:#323232;}
	.st27{fill-rule:evenodd;clip-rule:evenodd;fill:#464646;}
	.st28{fill-rule:evenodd;clip-rule:evenodd;fill:#272727;}
	.st29{fill-rule:evenodd;clip-rule:evenodd;fill:#333333;}
	.st30{fill-rule:evenodd;clip-rule:evenodd;fill:#2D2D2D;}
	.st31{fill-rule:evenodd;clip-rule:evenodd;fill:#1E1E1E;}
	.st32{fill-rule:evenodd;clip-rule:evenodd;fill:#030303;}
	.st33{fill-rule:evenodd;clip-rule:evenodd;fill:#0E0E0E;}
	.st34{fill-rule:evenodd;clip-rule:evenodd;fill:#060606;}
	.st35{fill-rule:evenodd;clip-rule:evenodd;fill:#121212;}
	.st36{fill-rule:evenodd;clip-rule:evenodd;fill:#191819;}
	.st37{fill-rule:evenodd;clip-rule:evenodd;fill:#161616;}
	.st38{fill-rule:evenodd;clip-rule:evenodd;fill:#434343;}
	.st39{fill-rule:evenodd;clip-rule:evenodd;fill:#414242;}
	.st40{fill-rule:evenodd;clip-rule:evenodd;fill:#0D0D0D;}
	.st41{fill-rule:evenodd;clip-rule:evenodd;fill:#020202;}
	.st42{fill-rule:evenodd;clip-rule:evenodd;fill:#0C0C0C;}
	.st43{fill-rule:evenodd;clip-rule:evenodd;fill:#353535;}
	.st44{fill-rule:evenodd;clip-rule:evenodd;fill:#3A3A3A;}
	.st45{fill-rule:evenodd;clip-rule:evenodd;fill:#393939;}
	.st46{fill-rule:evenodd;clip-rule:evenodd;fill:#111111;}
	.st47{fill-rule:evenodd;clip-rule:evenodd;fill:#242424;}
	.st48{fill-rule:evenodd;clip-rule:evenodd;fill:#141414;}
</style>
<polygon class="st0" points="1253.1,282.1 1253.2,282 1253.4,282.2 "/>
<polygon class="st0" points="1703,278 1703.3,278.1 1703.2,278.1 1703,278 "/>
<polygon class="st0" points="1487.6,280.1 1487.5,280 1487.5,280.1 1487.4,280 1487.6,280 "/>
<polygon class="st0" points="436,280.5 436.2,280.5 435.8,279.5 435.3,279.7 435.3,279.3 435.3,279.4 435.5,279.3 435.9,279.2 
	435.7,279.4 439,281.6 "/>
<polygon class="st1" points="1253.2,282 1253.1,282.1 1253.4,282.2 "/>
<polygon class="st1" points="1487.5,280 1487.6,280.1 1487.6,279.9 1487.4,280 1487.5,280.1 "/>
<polygon class="st1" points="435.3,279.4 435.3,279.4 435.3,279.4 435.3,279.7 435.8,279.5 436.2,280.5 436,280.5 439,281.6 
	435.7,279.4 435.8,279.4 435.3,279.4 "/>
<rect x="25.9" y="279.4" transform="matrix(0.5833 0.8122 -0.8122 0.5833 237.7525 95.3429)" class="st1" width="0.1" height="0"/>
<rect x="73.8" y="278.7" class="st1" width="0" height="2.5"/>
<rect x="220.7" y="279.8" transform="matrix(0.8235 -0.5673 0.5673 0.8235 -119.6462 175.0921)" class="st1" width="1.7" height="0"/>
<rect x="74.9" y="280.5" class="st1" width="0" height="0.5"/>
<rect x="77.5" y="279.7" transform="matrix(0.8513 -0.5247 0.5247 0.8513 -135.1435 82.5784)" class="st1" width="1.2" height="0"/>
<rect x="216" y="279.1" class="st1" width="0" height="1.2"/>
<rect x="432.3" y="278.9" class="st1" width="0" height="1.5"/>
<rect x="28" y="279.5" class="st1" width="0" height="0"/>
<rect x="433" y="280.4" class="st1" width="0" height="0.3"/>
<rect x="1254.1" y="280.5" transform="matrix(0.9226 -0.3858 0.3858 0.9226 -10.8941 506.6537)" class="st1" width="5.8" height="0"/>
<rect x="1250.7" y="278.9" class="st1" width="0" height="2.5"/>
<rect x="74.7" y="281.3" class="st1" width="0" height="0.3"/>
<polygon class="st2" points="1253,280.6 1253.9,280.5 1253.9,280.6 1257,279.4 1251.4,279.4 "/>
<polygon points="218.4,280 219,280 219.2,279.5 219.8,279.8 220.5,279.4 217.4,279.4 "/>
<polygon class="st3" points="78.6,279.4 77.6,280 216.5,280 215.5,279.4 "/>
<polygon class="st4" points="75.9,279.9 76.7,279.4 74.9,279.4 "/>
<polygon points="26,279.4 25.9,279.4 23.8,279.4 "/>
<polygon points="1703.8,279.4 1703.6,279.4 1703.8,279.5 "/>
<polygon points="435.3,279.4 435.3,279.4 435.3,279.4 "/>
<polygon points="1703.3,279.4 1703.3,279.4 1703.3,279.4 "/>
<polygon points="1253.9,280.6 1253.9,280.5 1253,280.6 1251.4,279.4 1251.4,279.4 1253,280.6 1253.9,280.5 1253.9,280.6 1257,279.4 
	1257,279.4 "/>
<rect x="432.6" y="280.2" transform="matrix(-0.3275 0.9449 -0.9449 -0.3275 839.4282 -37.174)" width="0.7" height="0"/>
<polygon points="219.8,279.8 219.2,279.5 219,280 218.4,280 217.4,279.4 217.4,279.4 218.4,280 219,280 219.2,279.5 219.8,279.8 
	220.5,279.4 220.5,279.4 "/>
<rect x="77.6" y="280" width="138.9" height="0"/>
<polygon points="75.9,279.9 74.9,279.4 74.9,279.4 75.9,279.9 76.7,279.4 76.7,279.4 "/>
<polygon points="27.2,279.5 27.2,279.4 27.2,279.4 27.2,279.5 28,279.5 28,279.5 "/>
<rect x="50.5" y="257.5" width="0" height="45"/>
<rect x="74.7" y="280.5" transform="matrix(-0.8514 0.5246 -0.5246 -0.8514 285.6606 480.1195)" width="0.2" height="0"/>
<rect x="74.6" y="281.2" transform="matrix(-0.774 0.6332 -0.6332 -0.774 310.7323 451.4096)" width="0.5" height="0"/>
<polygon points="23.8,279.4 26,279.4 26,279.4 23.8,279.4 "/>
<rect x="932" y="241.8" transform="matrix(0.9773 -0.2117 0.2117 0.9773 -28.3238 219.0465)" class="st1" width="154" height="0"/>
<polygon class="st1" points="146.9,234.2 146.9,234.2 135.6,199.4 64.7,186 64.7,186 135.6,199.4 "/>
<polygon class="st1" points="1475.4,182.8 1475.4,182.8 1440.9,140 1414.2,231.6 1414.2,231.6 1440.9,140 "/>
<polygon class="st1" points="1651.2,112.4 1735.2,171.1 1735.2,171.1 1651.2,112.4 1643.5,173.1 1643.2,173 1643.2,173 
	1643.5,173.1 "/>
<rect x="1487.4" y="278.5" class="st1" width="0" height="0.5"/>
<rect x="104.5" y="160.9" class="st1" width="0" height="99.1"/>
<polygon class="st1" points="935.1,259.7 987.3,279.4 987.3,279.4 935.1,259.7 "/>
<rect x="626.9" y="141.4" class="st1" width="0" height="79.8"/>
<polygon class="st1" points="1415.4,234.5 1413,234.5 1367.1,236.3 1367.1,236.3 1413,234.5 1415.4,234.5 1484,279 1484,279 "/>
<polygon class="st1" points="960.4,116.6 1067.8,120.5 1068.5,120.8 1068.5,120.8 1067.8,120.5 960.4,116.6 "/>
<polygon class="st1" points="1086.5,225.1 1087.5,224.8 1087.5,224.8 1086.5,225.1 1019.3,279.4 1019.3,279.4 "/>
<polygon class="st1" points="148.1,236.5 78.6,279.4 78.6,279.4 148.1,236.5 148.9,236.5 215.5,279.4 215.5,279.4 148.9,236.5 "/>
<rect x="1066.7" y="275.3" class="st1" width="0" height="0.1"/>
<rect x="593.1" y="133.5" transform="matrix(0.948 -0.3183 0.3183 0.948 -7.9777 218.1678)" class="st1" width="141.1" height="0"/>
<polygon class="st1" points="1413.9,233.1 1413.9,233.1 1413.7,233.3 1413.7,233.5 1413.7,233.5 1413.7,233.3 "/>
<rect x="1014.3" y="165.4" transform="matrix(0.6618 -0.7497 0.7497 0.6618 219.0594 816.3354)" class="st1" width="0.1" height="0"/>
<rect x="1413.8" y="233.4" class="st1" width="0" height="0.2"/>
<rect x="1508.8" y="144" class="st1" width="0" height="183.1"/>
<rect x="-9.9" y="213" transform="matrix(0.7303 -0.6832 0.6832 0.7303 -136.9839 79.1159)" class="st1" width="83.2" height="0"/>
<rect x="1012.8" y="165.4" class="st1" width="0" height="0.2"/>
<polygon class="st1" points="1650.3,111.8 1650.3,111.8 1649.8,111.5 1532.9,82.7 1532.9,82.7 1649.8,111.5 "/>
<rect x="1603.9" y="234.7" transform="matrix(0.3765 -0.9264 0.9264 0.3765 782.6696 1632.3989)" class="st1" width="0.4" height="0"/>
<rect x="1604.9" y="235.5" transform="matrix(0.3925 -0.9197 0.9197 0.3925 758.5583 1619.5566)" class="st1" width="0.7" height="0"/>
<rect x="787.7" y="180.5" transform="matrix(0.9627 -0.2706 0.2706 0.9627 -19.4606 219.9294)" class="st1" width="0.5" height="0"/>
<polygon class="st1" points="932.9,259.5 932.1,259.3 915.9,271.2 915.9,271.2 932.1,259.3 932.9,259.5 932.9,259.3 959.5,279.4 
	959.5,279.4 932.9,259.3 "/>
<polygon class="st1" points="1703.8,279.4 1704.4,279.4 1704,279.1 "/>
<rect x="659" y="205.5" class="st1" width="0" height="0.1"/>
<rect x="1013.9" y="164.8" transform="matrix(0.6652 -0.7466 0.7466 0.6652 216.464 812.4)" class="st1" width="0.5" height="0"/>
<polygon class="st1" points="1703,278 1703.2,278.1 1703.3,278.1 1703,278 "/>
<polygon class="st1" points="1642.5,173.8 1605.2,235.1 1605.2,235.1 1642.5,173.8 1702.3,277.7 1702.3,277.7 "/>
<polygon class="st1" points="603.4,253 603.4,253 603.3,252.6 437,279 437,279 603.3,252.6 "/>
<polygon class="st1" points="1603.1,235.2 1477,184 1476.6,184.3 1476,183.6 1414.4,232.7 1414.4,232.7 1476,183.6 1476.6,184.3 
	1477,184 1603.1,235.2 1603.2,235.5 1603.2,235.5 "/>
<polygon class="st1" points="1784.3,204.1 1784.3,204.1 1783.9,203.7 1704.5,278.3 1704.5,278.3 1783.9,203.7 "/>
<rect x="595.5" y="156.3" transform="matrix(0.948 -0.3183 0.3183 0.948 -18.7736 197.6983)" class="st1" width="0.3" height="0"/>
<rect x="1641.7" y="172.2" class="st1" width="0" height="0.7"/>
<rect x="1518.7" y="128.5" transform="matrix(0.7795 0.6264 -0.6264 0.7795 430.6269 -966.4063)" class="st1" width="138.7" height="0"/>
<polygon class="st1" points="1070.4,279.4 1070.4,279.4 1067.4,276.2 1067,276 1067,276 1067.4,276.2 "/>
<rect x="1068" y="277.5" transform="matrix(-0.9512 -0.3085 0.3085 -0.9512 2010.0793 872.7808)" class="st1" width="12.2" height="0"/>
<rect x="312" y="165.1" transform="matrix(0.8405 -0.5419 0.5419 0.8405 -32.6725 219.24)" class="st1" width="87.9" height="0"/>
<rect x="462.3" y="100.8" class="st1" width="0" height="92.3"/>
<polygon class="st1" points="1361.6,236.7 1361.7,236.7 1364,236.5 1364,236.5 1361.7,236.7 1361.6,236.7 1336.5,279.4 
	1336.5,279.4 "/>
<rect x="855.3" y="130.4" transform="matrix(0.8091 -0.5877 0.5877 0.8091 86.6606 527.5682)" class="st1" width="0" height="0"/>
<polygon class="st1" points="1013.7,166.1 933.7,256.8 933.7,257.1 933.7,257.1 933.7,256.8 1013.7,166.2 1087.1,223.9 
	1087.1,223.9 "/>
<polygon class="st1" points="1087.8,224.8 1087.6,224.8 1087.6,224.8 1087.8,224.8 1088,225 1088,225 "/>
<polygon class="st1" points="1207.4,247.9 1207.4,247.9 1207.1,247.3 1090,225.9 1090,225.9 1207.1,247.4 "/>
<polygon class="st1" points="502.9,135.8 395.4,141.4 395.4,141.4 502.9,135.8 "/>
<polygon class="st1" points="436.5,277.1 508.2,135.7 563.9,172.9 564,173 564,173 563.9,172.9 508.2,135.7 436.5,277.1 "/>
<polygon class="st1" points="912.7,177.9 912.4,178.3 912,178 911.7,178.4 911.4,178.2 800.6,222.9 800.6,222.9 911.4,178.2 
	911.7,178.4 912,178 912.4,178.3 912.7,177.9 932,257.2 932,257.2 "/>
<polygon class="st1" points="1855.7,279.3 1855.6,279.3 1855.6,279.3 1855.6,279.4 1855.8,279.4 1855.9,279.2 "/>
<polygon class="st1" points="805.7,225.3 805.7,225.3 930.9,258.9 930.9,258.9 "/>
<rect x="913.8" y="270.8" transform="matrix(7.437634e-002 -0.9972 0.9972 7.437634e-002 576.0361 1162.1006)" class="st1" width="0.5" height="0"/>
<polygon class="st1" points="351,246.5 393.9,141.6 416,157.9 416.1,158.4 416.1,158.4 416,157.9 393.9,141.6 351,246.5 "/>
<polygon class="st1" points="799.6,223.8 781.7,259.7 781.7,259.7 799.6,223.8 908.2,270.1 908.2,270.1 "/>
<rect x="781.9" y="260.5" transform="matrix(0.7888 -0.6147 0.6147 0.7888 5.0609 535.7699)" class="st1" width="0.4" height="0"/>
<polygon class="st1" points="222.3,279.4 222.3,279.4 263.9,250.7 284.9,279.4 284.9,279.4 263.9,250.7 "/>
<rect x="854.8" y="123.6" transform="matrix(0.9914 -0.1309 0.1309 0.9914 -8.3754 119.7604)" class="st1" width="103.4" height="0"/>
<polygon class="st1" points="1482,279.4 1482,279.4 1364.5,236.4 1364,236.5 1364,236.5 1364.5,236.4 "/>
<rect x="931.8" y="257.6" class="st1" width="0" height="0.5"/>
<rect x="150.7" y="243.5" transform="matrix(0.9927 0.1208 -0.1208 0.9927 30.9485 -23.2147)" class="st1" width="112.3" height="0"/>
<rect x="509.4" y="146.2" transform="matrix(0.9721 0.2346 -0.2346 0.9721 49.7106 -125.4704)" class="st1" width="85.4" height="0"/>
<rect x="1377.9" y="176.5" class="st1" width="0" height="0.8"/>
<rect x="1377.7" y="176.2" class="st1" width="0" height="0.4"/>
<polygon class="st1" points="200.3,154.8 263,249.4 263,249.4 200.3,154.8 198.7,153.4 198.7,153.4 "/>
<rect x="1303.7" y="125.4" transform="matrix(0.9827 0.1851 -0.1851 0.9827 46.9412 -251.7917)" class="st1" width="135.9" height="0"/>
<polygon class="st1" points="1412,233.3 1412,233.3 1378.9,178.4 1363.8,235.1 1363.8,235.1 1378.9,178.4 "/>
<polygon class="st1" points="565,173 594.6,156.8 603.3,250.4 603.3,250.4 594.6,156.8 565,173 "/>
<polygon class="st1" points="199,153 199,153 198.9,152.7 136.6,199.2 136.6,199.2 198.9,152.7 "/>
<rect x="563.6" y="173.2" class="st1" width="0" height="0.2"/>
<polygon class="st1" points="1785.2,205 1854.9,278.6 1854.9,278.6 1785.2,205 1779.1,279.4 1779.1,279.4 "/>
<rect x="701.4" y="214.7" transform="matrix(0.9839 0.1789 -0.1789 0.9839 50.5083 -130.7821)" class="st1" width="98.1" height="0"/>
<polygon class="st1" points="1377.9,178.1 1377.9,178.1 1377.7,178.4 1304.4,113.8 1304.4,113.8 1377.7,178.4 "/>
<polygon class="st1" points="1170,170.1 1169.8,170.4 1069.8,121.4 1069.8,121.4 1169.8,170.5 1170,170.1 1206.6,246.2 
	1206.6,246.2 "/>
<polygon class="st1" points="1067.1,276.5 1067.1,276.5 1051.7,279.4 1051.7,279.4 "/>
<rect x="1081.3" y="198.1" transform="matrix(0.8352 -0.55 0.55 0.8352 77.2833 654.0247)" class="st1" width="96.9" height="0"/>
<rect x="564.9" y="173.6" transform="matrix(0.7751 -0.6318 0.6318 0.7751 17.4399 396.0977)" class="st1" width="0.5" height="0"/>
<polygon class="st1" points="1288,175 1288,175 1287.7,174.9 1209.4,247.4 1209.4,247.4 1287.7,174.9 "/>
<rect x="265" y="251" transform="matrix(0.9999 1.162760e-002 -1.162760e-002 0.9999 2.9393 -3.5461)" class="st1" width="82.9" height="0"/>
<polygon class="st1" points="1361.1,234.3 1287.7,175.4 1287.7,175.4 1361.1,234.3 1361.4,235 1361.4,235 "/>
<polygon class="st1" points="1362.2,235.6 1362.2,235.6 1362.2,235.6 1362.2,235.6 1362.3,235.6 1362.3,235.6 "/>
<polygon class="st1" points="1821.3,94.8 1821.3,94.8 1651.5,110.4 1651.3,111.3 1651.3,111.3 1651.5,110.4 "/>
<polygon class="st1" points="1652,108.6 1727.5,28.3 1760.1,62.8 1760.1,62.8 1727.5,28.3 1652,108.6 "/>
<polygon class="st1" points="1379.2,177.1 1379.2,177.1 1379.3,176.8 1439.7,138.4 1440.2,139 1440.2,139 1439.7,138.4 
	1379.3,176.8 "/>
<rect x="935.8" y="110.5" class="st1" width="0" height="73.9"/>
<rect x="1438.4" y="79.5" transform="matrix(0.998 6.303259e-002 -6.303259e-002 0.998 7.9629 -93.4107)" class="st1" width="92" height="0"/>
<polygon class="st1" points="1439,137.1 1439,137.1 1407.9,78.9 1304.4,111.8 1304.4,111.8 1407.9,78.9 "/>
<rect x="601.1" y="266.1" transform="matrix(-0.8797 -0.4755 0.4755 -0.8797 1055.85 799.2953)" class="st1" width="55.8" height="0"/>
<rect x="1210.3" y="242.6" transform="matrix(0.9971 -7.669615e-002 7.669615e-002 0.9971 -14.8242 99.2322)" class="st1" width="148.4" height="0"/>
<polygon class="st1" points="1288.6,174.8 1303.2,113.5 1360.1,232.2 1360.1,232.2 1303.2,113.5 1288.6,174.8 "/>
<polygon class="st1" points="1441,138 1441,138 1441,138 1531.4,83 1531.4,83 1531.4,83 1531.4,83 1441,138 "/>
<polygon class="st1" points="416.7,159.3 349.9,249.7 349.9,249.7 416.7,159.3 434.1,278.5 434.1,278.5 "/>
<rect x="957.8" y="115.6" class="st1" width="0" height="0.2"/>
<polygon class="st1" points="435.3,279.3 435.3,279.4 435.3,279.4 "/>
<rect x="693.5" y="233.9" transform="matrix(0.8226 0.5687 -0.5687 0.8226 264.4926 -379.8505)" class="st1" width="95" height="0"/>
<rect x="262.5" y="210.3" transform="matrix(0.9307 -0.3657 0.3657 0.9307 -58.6973 110.6534)" class="st1" width="0.4" height="0"/>
<polygon class="st1" points="564.1,174.4 437,278 437,278 564.1,174.4 602.8,251.7 602.8,251.7 "/>
<polygon class="st1" points="699.8,205.5 699,205.5 605.1,252 605.1,252 699,205.5 699.8,205.5 700.8,206.1 710.3,279.4 
	710.3,279.4 700.8,206.1 "/>
<rect x="1441" y="138.5" transform="matrix(0.2799 -0.96 0.96 0.2799 905.0158 1483.4885)" class="st1" width="0.7" height="0"/>
<polygon class="st1" points="1477.5,183.1 1532.2,83.6 1602.4,233.8 1602.4,233.8 1532.2,83.6 1477.5,183.1 "/>
<rect x="305.3" y="183.5" class="st1" width="0" height="93.9"/>
<polygon class="st1" points="1208.2,248.5 1168.1,279.4 1168.1,279.4 1208.2,248.5 1209,248.4 1249.7,279.4 1249.7,279.4 
	1209,248.4 "/>
<rect x="434" y="278.5" class="st1" width="0" height="0.6"/>
<polygon class="st1" points="1651.2,60 1651.2,60 1547.3,41.6 1532.8,81.4 1532.8,81.4 1547.3,41.6 "/>
<polygon class="st1" points="1069.5,118.7 1109.5,95.9 1172.6,133.2 1172.6,133.2 1109.5,95.9 1069.5,118.7 "/>
<polygon class="st1" points="1107.9,95.6 1107.9,95.6 1077.3,97.5 1069.5,117.6 1069.5,117.6 1077.3,97.5 "/>
<rect x="1012.8" y="164.6" class="st1" width="0" height="0.5"/>
<rect x="604" y="253" transform="matrix(0.9957 -9.241789e-002 9.241789e-002 0.9957 -20.7936 56.9261)" class="st1" width="0.5" height="0"/>
<polygon class="st1" points="1170.6,169.1 1174.5,134.4 1174.5,134.4 1174.9,134.5 1205.9,242.5 1205.9,242.5 1174.9,134.5 
	1174.5,134.4 1174.5,134.4 1170.6,169.1 "/>
<polygon class="st1" points="1173.5,134.3 1173.5,134.3 1069.2,119.7 1069,119.9 1069,119.9 1069.2,119.7 "/>
<polygon class="st1" points="435.5,279.3 435.3,279.4 435.8,279.4 435.9,279.2 "/>
<rect x="1169.6" y="169.2" class="st1" width="0" height="0"/>
<rect x="1845.3" y="62.3" transform="matrix(0.5663 -0.8242 0.8242 0.5663 748.9766 1548.0046)" class="st1" width="0.1" height="0"/>
<rect x="1309.8" y="203.9" class="st1" width="0" height="108.8"/>
<polygon class="st1" points="934.1,254.9 959.3,117 1012.8,164.6 1012.8,164.6 959.3,117 934.1,254.9 "/>
<polygon class="st1" points="1301.3,111.8 1301.3,111.8 1271.9,63.7 1176,133.1 1176,133.1 1271.9,63.7 "/>
<rect x="1176.9" y="123.2" transform="matrix(-0.9858 0.1681 -0.1681 -0.9858 2483.2534 36.2402)" class="st1" width="126.3" height="0"/>
<polygon class="st1" points="1014.3,164.6 1068.8,121.8 1087.3,222.8 1087.3,222.8 1068.8,121.8 1014.3,164.6 "/>
<rect x="-3.2" y="261.3" transform="matrix(-0.8921 -0.4518 0.4518 -0.8921 -48.2148 510.9939)" class="st1" width="80.1" height="0"/>
<rect x="596.5" y="251" class="st1" width="0" height="30.6"/>
<rect x="1172.4" y="154.2" transform="matrix(0.941 0.3384 -0.3384 0.941 124.8495 -407.6601)" class="st1" width="118.2" height="0"/>
<rect x="1844.9" y="61.8" transform="matrix(0.6074 -0.7944 0.7944 0.6074 675.2621 1490.0046)" class="st1" width="0.5" height="0"/>
<polygon class="st1" points="1650.6,108.6 1653.5,60.6 1654.1,60.5 1654.1,60.5 1653.5,60.6 1650.6,108.6 "/>
<polygon class="st1" points="348.7,249.5 348.7,249.5 317.8,188.6 263.8,209.8 263.8,209.8 317.8,188.6 "/>
<polygon class="st1" points="1603.7,236.8 1603.7,236.8 1603,236.5 1489.2,279.3 1489.2,279.3 1603,236.5 "/>
<rect x="1843.8" y="62.3" class="st1" width="0" height="0.3"/>
<polygon class="st1" points="1066.6,119.4 1066.6,119.4 1001,87.6 959.8,115.4 959.8,115.4 1001,87.6 "/>
<rect x="1593.4" y="11.5" class="st1" width="0" height="120"/>
<rect x="731.4" y="120.5" transform="matrix(0.9872 0.1592 -0.1592 0.9872 29.2965 -124.6932)" class="st1" width="122.6" height="0"/>
<polygon class="st1" points="1824.4,92.9 1824.4,92.9 1844.8,63.2 1917.6,118.8 1917.6,118.8 1844.8,63.2 "/>
<polygon class="st1" points="912.2,271.8 912.2,271.8 911,271.3 781.1,261.6 781.1,261.6 911,271.3 "/>
<polygon class="st1" points="800.2,222 853.6,131.6 854.5,131 910.5,177.4 910.6,177.4 854.5,131 853.6,131.6 800.2,222 "/>
<rect x="1810" y="19.1" transform="matrix(0.9469 -0.3214 0.3214 0.9469 92.8417 600.5708)" class="st1" width="110.4" height="0"/>
<polygon class="st1" points="1824,94.5 1784.8,201.2 1784.8,201.2 1824,94.5 1824,94.5 1900,158.8 1900,158.8 1824,94.5 "/>
<polygon class="st1" points="700.9,203.8 731.2,111.9 731.5,111.5 786.3,180 786.3,180 731.5,111.5 731.2,111.9 700.9,203.8 "/>
<polygon class="st1" points="914.3,272.4 914,272 913.8,272.5 913.3,272.2 904.4,279.4 904.4,279.4 913.3,272.2 913.8,272.5 
	914,272 914.3,272.4 914.9,271.9 933.2,279.4 933.2,279.4 914.9,271.9 "/>
<rect x="1759.7" y="158.2" class="st1" width="0" height="56.6"/>
<polygon class="st1" points="1703.3,279.3 1703.3,279.4 1703.3,279.4 "/>
<polygon class="st1" points="1703.4,279.3 1703.3,279.4 1703.6,279.4 "/>
<rect x="1783.8" y="201.7" class="st1" width="0" height="0.5"/>
<rect x="1722.4" y="132.8" transform="matrix(0.7483 -0.6633 0.6633 0.7483 359.8064 1214.0022)" class="st1" width="114.9" height="0"/>
<polygon class="st1" points="1735.7,171.4 1736,171 1736,171 1735.7,171.4 1735.5,171.2 1703.6,277.8 1703.6,277.8 1735.5,171.2 "/>
<rect x="780.3" y="156.5" transform="matrix(0.8057 -0.5924 0.5924 0.8057 66.593 516.0414)" class="st1" width="78.9" height="0"/>
<polygon class="st1" points="1785.4,203.7 1785.4,203.7 1785.4,202.9 1919.6,241.3 1919.6,241.3 1785.4,202.9 "/>
<polygon class="st1" points="1604.6,237.2 1586.6,279.4 1586.6,279.4 1604.6,237.2 1605.6,237.7 1636.6,279.4 1636.6,279.4 
	1605.6,237.7 "/>
<rect x="1650.7" y="44.3" transform="matrix(0.9153 -0.4027 0.4027 0.9153 125.2861 684.372)" class="st1" width="78.6" height="0"/>
<polygon class="st1" points="1088.3,225.6 1067.9,275.2 1067.9,275.2 1088.3,225.6 1088.5,225.6 1127.2,279.4 1127.2,279.4 
	1088.5,225.6 "/>
<rect x="1603.3" y="258.6" transform="matrix(0.9201 0.3917 -0.3917 0.9201 233.558 -627.5754)" class="st1" width="103.1" height="0"/>
<polygon class="st1" points="1653.2,109.2 1761,63.6 1822.2,93.7 1822.2,93.7 1761,63.5 1653.2,109.2 "/>
<polygon class="st1" points="350,251 349.8,251.5 349.1,251.1 349,251.4 349,251.5 348.9,251.5 337.8,279.4 337.8,279.4 
	348.9,251.5 349,251.5 349,251.4 349.1,251.1 349.8,251.5 350,251 350.1,250.9 431.6,279.4 431.6,279.4 350.1,250.9 "/>
<rect x="1.9" y="239.5" transform="matrix(0.9992 -4.023608e-002 4.023608e-002 0.9992 -9.5775 3.1711)" class="st1" width="144.2" height="0"/>
<polygon class="st1" points="957.9,115.5 957.9,115.5 882.2,77.7 854.9,129.4 854.9,129.4 882.2,77.7 "/>
<polygon class="st1" points="661,206.5 660.4,207.3 660,207 659.7,207.4 658.9,206.7 607.5,249.7 607.5,249.7 658.9,206.8 
	659.7,207.4 660,207 660.4,207.3 661,206.5 696.7,205.6 696.7,205.6 "/>
<rect x="638.9" y="159.9" transform="matrix(0.596 -0.803 0.803 0.596 152.5841 623.1257)" class="st1" width="113.4" height="0"/>
<polygon class="st1" points="263.4,248.2 263.4,248.2 261.5,210.2 203.3,157.5 203.3,157.5 261.5,210.2 "/>
<polygon class="st1" points="1811.8,37.3 1843.7,61.6 1844,62 1844,62 1843.7,61.6 1811.8,37.3 1811.8,37.3 1811.8,37.3 "/>
<polygon class="st1" points="780.2,262.1 758,279.4 758,279.4 780.2,262.1 780.2,262.1 793,279.4 793,279.4 780.2,262.1 "/>
<polygon class="st1" points="1787.8,25.5 1810.6,36.3 1823.2,92.5 1823.2,92.5 1810.6,36.3 1787.8,25.5 1788.2,24.6 1761.7,62.8 
	1761.7,62.8 "/>
<polygon class="st1" points="798.3,222.4 798.3,222.4 786.7,180.9 701.6,204.8 701.6,204.8 786.7,180.9 "/>
<polygon class="st5" points="1857,279 1857.6,279.4 1920,279.4 1920,242.2 "/>
<polygon class="st6" points="1920,225.9 1900.9,159.6 1785.6,201.9 1920,240.3 "/>
<polygon points="1920,132.3 1901.7,158.8 1920,222.2 "/>
<polygon points="1901.1,158 1920,130.6 1920,120 1919.9,120.5 1825.1,94.1 1900.7,158.1 "/>
<polygon class="st7" points="1845.3,61.6 1845.3,61.6 1845,62 1845.4,62.3 1845.4,62.3 1845.4,62.3 1845.3,62.4 1920,119.4 
	1920,0.6 1845.3,61.6 1845.3,61.6 "/>
<polygon class="st8" points="1917.5,1.4 1813,36.9 1844.5,61 "/>
<polygon class="st9" points="1824.4,92.9 1917.6,118.8 1844.8,63.2 "/>
<polygon class="st10" points="1811.8,37.3 1811.8,37.3 1824,91.7 1844,62.6 1843.7,62.4 1843.7,62.4 1843.7,62.4 1844,62 
	1843.7,61.6 "/>
<polygon class="st11" points="1787.8,25.5 1761.7,62.8 1823,93 1823.1,92.5 1823.2,92.5 1810.6,36.3 "/>
<polygon class="st12" points="1761.8,61 1787,24.5 1728.3,27.4 1728.2,27.5 1760.9,62.2 "/>
<polygon class="st13" points="1652,108.6 1760.1,62.8 1727.5,28.3 "/>
<polygon class="st14" points="1653.5,60.6 1650.6,108.6 1726,28.4 1654,60.1 1654.1,60.5 1654.1,60.5 1654.1,60.5 "/>
<polygon class="st11" points="1649.5,110.4 1652.5,60.8 1534.4,82.1 "/>
<polygon class="st15" points="1547.3,41.6 1532.8,81.4 1651.2,60 "/>
<polygon class="st5" points="1477.5,183.1 1602.4,233.8 1532.2,83.6 "/>
<polygon points="1441,138 1441,138 1441.5,138.1 1441.5,138.1 1441.5,138.1 1441.3,138.8 1476.6,182.7 1531.4,83 1531.4,83 "/>
<polygon class="st16" points="1440.7,136.6 1440.9,136.9 1530.4,82.4 1438.5,76.6 1440.5,136.8 "/>
<polygon class="st17" points="1407.9,78.9 1304.4,111.8 1439,137.1 "/>
<polygon class="st11" points="1288.6,174.8 1360.1,232.2 1303.2,113.5 "/>
<polygon class="st18" points="1287.9,173.4 1302.3,112.6 1177.8,133.9 "/>
<polygon class="st19" points="1271.9,63.7 1176,133.1 1301.3,111.8 "/>
<polygon class="st20" points="1208.3,246.6 1208.6,246.8 1287.1,174.2 1175.9,134.2 1208.2,246.8 "/>
<polygon class="st9" points="1174.5,134.4 1174.5,134.4 1170.6,169.1 1205.9,242.5 1174.9,134.5 "/>
<polygon class="st21" points="1069.5,119.9 1069.5,120.2 1169.6,169.2 1169.5,169.2 1169.5,169.2 1169.5,169.2 1169.6,169.2 
	1173.5,134.3 1069.2,119.7 1069,119.9 1069.1,120 "/>
<polygon class="st22" points="1069.5,118.7 1172.6,133.2 1109.5,95.9 "/>
<polygon class="st23" points="1077.3,97.5 1069.5,117.6 1107.9,95.6 "/>
<polygon class="st24" points="1014.3,164.6 1014.3,164.6 1014.3,164.6 1014.3,164.6 1014,165 1014.4,165.3 1014.4,165.3 
	1014.4,165.3 1014.3,165.4 1087.3,222.8 1068.8,121.8 "/>
<polygon class="st25" points="960.4,116.6 1013.6,163.9 1068.5,120.8 1067.8,120.5 "/>
<polygon class="st5" points="1066.6,119.4 1001,87.6 959.8,115.4 960.2,115.5 "/>
<polygon class="st26" points="934.1,254.9 1012.9,165.5 1012.7,165.4 1012.7,165.4 1012.7,165.4 1013,165 1012.7,164.6 
	1012.7,164.6 1012.7,164.6 1012.8,164.6 959.3,117 "/>
<polygon class="st27" points="913.5,176.9 932.8,256.2 958.1,118 913.5,176.9 "/>
<polygon class="st27" points="957.7,115.6 957.7,115.6 957.7,115.6 957.9,115.5 882.2,77.7 854.9,129.4 957.9,115.8 "/>
<polygon class="st28" points="853.6,131.6 800.2,222 910.5,177.4 854.5,131 "/>
<polygon points="852.9,131 853.3,130.2 732.2,110.7 787.1,179.3 "/>
<polygon points="731.2,111.9 700.9,203.8 701,203.9 786.3,180 731.5,111.5 "/>
<polygon class="st29" points="659,205.5 659,205.5 659,205.5 660.5,205.5 730.3,111.4 730.5,111 596.7,155.9 659,205.6 "/>
<polygon class="st30" points="658.1,206.1 595.7,156.4 595.7,156.4 595.7,156.4 595.8,156.3 595.5,156.3 604.3,251.1 "/>
<polygon class="st31" points="565,173 565.3,173.4 565.3,173.4 565.3,173.4 564.9,173.7 603.3,250.4 594.6,156.8 "/>
<polygon class="st29" points="593.6,156.2 510.6,136.1 564.6,172.1 "/>
<polygon class="st32" points="508.2,135.7 436.5,277.1 563.7,173.4 563.6,173.2 563.6,173.2 563.6,173.2 564,173 563.9,172.9 "/>
<polygon class="st32" points="435,277.8 507.1,135.8 417.5,158.1 "/>
<polygon class="st33" points="502.9,135.8 395.4,141.4 416.9,157.3 "/>
<polygon class="st18" points="393.9,141.6 351,246.5 416.1,158.4 416,157.9 "/>
<polygon class="st23" points="392.9,141.3 319,188.9 349.2,248.3 "/>
<polygon points="348.7,249.5 317.8,188.6 263.8,209.8 348.6,249.8 "/>
<polygon class="st34" points="347.7,250.5 262.8,210.5 262.8,210.5 262.8,210.5 262.9,210.2 262.5,210.3 264.5,249.5 "/>
<polygon class="st35" points="261.5,210.2 203.3,157.5 263.4,248.2 "/>
<polygon class="st32" points="149.2,235.5 263,249.4 200.3,154.8 198.7,153.4 198.7,153.4 198.7,153.4 199,153 198.9,152.7 
	136.6,199.2 148.2,234.9 "/>
<polygon class="st20" points="135.6,199.4 64.7,186 146.9,234.2 "/>
<polygon class="st36" points="61.7,185.4 61.7,185.4 61.7,185.4 62,185 62.1,184.6 1.3,241.4 147.3,235.6 "/>
<polygon class="st0" points="0,218 0,241.3 58.8,186.3 "/>
<polygon class="st33" points="1779.1,279.4 1853.6,279.4 1854.9,278.6 1785.2,205 "/>
<polygon class="st18" points="1785.4,203.7 1855.8,278.1 1856.8,277.6 1856.9,277.9 1919.6,241.3 1785.4,202.9 "/>
<polygon class="st37" points="1824,94.5 1784.8,201.2 1900,158.8 1824,94.5 "/>
<polygon class="st2" points="1822.8,94.7 1736.8,170.9 1783.9,200.7 "/>
<polygon class="st13" points="1653.2,109.2 1822.2,93.7 1761,63.6 "/>
<polygon class="st14" points="1821.3,94.8 1651.5,110.4 1651.3,111.3 1736,170.4 "/>
<polygon class="st38" points="1734.5,170.9 1735.2,171.1 1651.2,112.4 1643.5,173.1 1643.2,173 1702.9,276.7 "/>
<polygon class="st24" points="1642.7,171.1 1650.3,111.8 1649.8,111.5 1532.9,82.7 1533,83 "/>
<polygon class="st39" points="1641.9,172.8 1641.6,172.3 1641.6,172.3 1641.6,172.2 1642.1,171.9 1534,85 1603.8,234.4 
	1604.2,234.5 1604.2,234.5 1604.2,234.5 1604,234.9 1604.1,234.9 "/>
<polygon class="st30" points="1477,184 1476.6,184.3 1476,183.6 1414.4,232.7 1415.7,233.5 1603.2,235.5 1603.1,235.2 "/>
<polygon class="st27" points="1440.9,140 1414.2,231.6 1475.4,182.8 "/>
<polygon class="st25" points="1379.3,176.8 1379.2,177.1 1412.8,232.7 1412.9,232.7 1440.2,139 1439.7,138.4 "/>
<polygon class="st7" points="1378.2,177.2 1377.7,176.6 1377.7,176.6 1377.7,176.6 1377.8,176.6 1377.6,176.3 1377.6,176.3 
	1377.6,176.3 1378.4,175.7 1378.5,175.9 1378.5,175.9 1378.7,175.9 1438.4,138 1304.9,112.9 1378.1,177.4 "/>
<polygon class="st25" points="1362.9,234.5 1377.9,178.1 1377.7,178.4 1304.4,113.8 1361.9,233.7 "/>
<polygon class="st39" points="1209,248.4 1208.2,248.5 1168.1,279.4 1249.7,279.4 "/>
<polygon points="1166.4,279.4 1207.4,247.9 1207.1,247.4 1090,225.9 1128.5,279.4 "/>
<polygon class="st40" points="1169.8,170.5 1069.8,121.4 1088.4,223.6 1088.9,223.5 1089,223.8 1169.7,170.6 1170.3,171.4 
	1170.3,171.4 1170.3,171.4 1089.3,224.7 1206.6,246.2 1170,170.1 "/>
<polygon class="st41" points="1019.3,279.4 1046.3,279.4 1066.6,275.6 1066.7,275.4 1066.6,275.3 1066.6,275.3 1066.6,275.3 
	1066.8,275.2 1087.5,224.8 1086.5,225.1 "/>
<polygon class="st20" points="933.7,256.8 933.7,257.1 1086,224.1 1086.7,223.6 1086.9,223.9 1087.1,223.9 1013.7,166.2 "/>
<polygon class="st42" points="959.5,279.4 932.9,259.3 932.9,259.5 932.1,259.3 915.9,271.2 935.8,279.4 "/>
<polygon points="781.7,259.7 782.3,260.4 782.3,260.4 782.3,260.4 782,260.6 908.2,270.1 799.6,223.8 "/>
<polygon points="786.7,180.9 701.6,204.8 798.3,222.4 "/>
<polygon points="756.3,279.4 780,261 780,260.9 701.9,206.9 711.3,279.4 "/>
<polygon points="798.7,223.5 702.2,205.9 780.4,260 "/>
<polygon class="st36" points="780.2,262.1 780.2,262.1 758,279.4 793,279.4 "/>
<polygon class="st36" points="902.7,279.4 912.2,271.8 911,271.3 781.1,261.6 794.3,279.4 "/>
<polygon class="st5" points="911.3,270.3 914,270.5 914,270.5 914,270.5 914,271 914.2,270.5 914.8,270.8 930.9,258.9 805.7,225.3 
	"/>
<polygon class="st43" points="914.9,271.9 914.3,272.4 914,272 913.8,272.5 913.3,272.2 904.4,279.4 933.2,279.4 "/>
<polygon class="st43" points="1017.7,279.4 1084.3,225.5 933.8,258.1 990.1,279.4 "/>
<polygon points="1087.6,224.8 1088,225 1087.8,224.8 "/>
<polygon points="1068.2,274.5 1083.1,279.4 1127.2,279.4 1088.5,225.6 1088.3,225.6 1067.9,275.2 1067.9,275.3 "/>
<polygon points="1051.7,279.4 1070.4,279.4 1067.4,276.2 1067,276 1067.1,276.5 1067.1,276.5 1067.1,276.5 "/>
<polygon points="1079.8,279.4 1068.3,275.6 1071.8,279.4 "/>
<polygon class="st2" points="1257,279.4 1358.5,236.9 1210.5,248.3 1251.4,279.4 "/>
<polygon points="1362.2,235.6 1362.3,235.6 1362.2,235.6 "/>
<polygon class="st20" points="1361.7,236.7 1361.6,236.7 1336.5,279.4 1482,279.4 1482,279.4 1364.5,236.4 1364,236.5 1364,236.5 
	1364,236.5 1364,236.5 "/>
<polygon class="st44" points="1411.8,233.5 1412,233.3 1378.9,178.4 1363.8,235.1 1364.6,235.4 "/>
<polygon class="st18" points="1413,234.5 1367.1,236.3 1484,279 1484,279 1415.4,234.5 "/>
<polygon points="1413.7,233.4 1413.7,233.4 1413.7,233.4 1413.9,233.1 1413.7,233.3 1413.7,233.5 1413.9,233.5 "/>
<polygon class="st45" points="1585.5,279.4 1603.7,236.8 1603,236.5 1489.2,279.3 1489.2,279.4 "/>
<polygon class="st29" points="1605.6,237.7 1604.6,237.2 1586.6,279.4 1636.6,279.4 "/>
<polygon points="1605.2,235.1 1605.5,235.2 1605.5,235.2 1605.5,235.2 1605.2,235.9 1605.4,235.7 1606.2,236.8 1702.3,277.7 
	1642.5,173.8 "/>
<polygon class="st17" points="1701.5,279.4 1702.3,278.8 1607.4,238.4 1637.8,279.4 "/>
<polygon class="st46" points="1778.1,279.4 1784.3,204.1 1783.9,203.7 1704.5,278.3 1706.2,279.4 "/>
<polygon class="st18" points="1783.5,201.8 1783.5,201.8 1783.6,201.7 1735.7,171.4 1735.7,171.4 1735.7,171.4 1736,171 
	1735.7,171.4 1735.5,171.2 1703.6,277.8 1783.9,202.3 1784,202 1783.5,201.8 "/>
<polygon class="st3" points="1485.5,278.8 1486.9,278.5 1487,279.1 1487.4,278.9 1487.3,278.5 1487.3,278.5 1487.3,278.5 
	1488.3,278.3 1488.4,278.6 1600.3,236.5 1417.3,234.5 "/>
<polygon class="st28" points="1335.3,279.4 1360,237.4 1259.6,279.4 "/>
<polygon class="st5" points="987.3,279.4 935.1,259.7 961.1,279.4 "/>
<polygon points="349.9,249.7 350,249.8 434,279.1 433.9,278.5 433.9,278.5 433.9,278.5 434.1,278.5 416.7,159.3 "/>
<polygon points="350.1,250.9 350,251 349.8,251.5 349.1,251.1 349,251.4 349,251.5 348.9,251.5 337.8,279.4 431.6,279.4 "/>
<polygon points="336.7,279.4 347.9,251.5 265,250.5 286.2,279.4 "/>
<polygon class="st20" points="263.9,250.7 222.3,279.4 284.9,279.4 "/>
<polygon points="220.5,279.4 262.6,250.3 151.1,236.8 217.4,279.4 "/>
<polygon class="st3" points="148.9,236.5 148.1,236.5 78.6,279.4 215.5,279.4 "/>
<polygon class="st4" points="76.7,279.4 146,236.6 1.9,242.4 74.9,279.4 "/>
<polygon points="72.7,279.4 1.2,243.1 27.2,279.4 "/>
<polygon points="25.9,279.4 0,243.3 0,278.6 23.8,279.4 "/>
<polygon class="st47" points="437,278 602.8,251.7 564.1,174.4 "/>
<polygon class="st48" points="587.3,279.4 603.4,253 603.3,252.6 437,279 437.5,279.4 "/>
<polygon class="st28" points="588.5,279.4 653.6,279.4 604.5,252.8 604.5,253 604.5,253 604.5,253 604,253 604.4,253.3 604.4,253.3 
	604.4,253.3 "/>
<polygon points="710.3,279.4 700.8,206.1 699.8,205.5 699,205.5 605.1,252 655.7,279.4 "/>
<polygon points="660.4,207.3 660,207 659.7,207.4 658.9,206.8 607.5,249.7 696.7,205.6 661,206.5 "/>
<polygon points="699.8,204 729.3,114.4 661.8,205.4 698.8,204.5 "/>
<polygon points="851.6,133.2 788,179.9 788.1,180.5 788.1,180.5 788.1,180.5 787.7,180.6 799.2,221.7 "/>
<polygon class="st4" points="912.4,178.3 912,178 911.7,178.4 911.4,178.2 800.6,222.9 931.9,258.2 932,258 931.6,257.7 
	931.6,257.7 931.6,257.7 932,257.2 912.7,177.9 "/>
<polygon class="st23" points="912.3,176.7 957.8,116.8 855.3,130.3 855.3,130.4 855.3,130.4 855.3,130.4 855.3,130.4 911.6,177 "/>
<polygon class="st30" points="1287.7,175.4 1287.7,175.4 1287.7,175.4 1288,175 1287.7,174.9 1209.4,247.4 1361,235.7 1361.4,235 
	1361.1,234.3 "/>
<path d="M1.2,243.1L1.2,243.1L1.2,243.1l71.5,36.2h2.2L1.9,242.4l0,0l0,0l144.1-5.8l0,0l0,0l-69.3,42.7h1.9l69.5-42.8l0.8,0
	l66.7,42.9h1.8l-66.3-42.6l0,0l0,0l111.5,13.6l0,0l0,0l-42.1,29h1.8l41.6-28.7l21,28.7h1.2L265,250.5h0l0,0l82.9,1l0,0h0l-11.1,27.9
	h1.1l11.1-27.9l0.1,0l0-0.1l0.1-0.2l0.7,0.3l0.2-0.5l0.1-0.1l81.5,28.4h3.6l0,0l0,0h0.1l0.1-0.1l0.4-0.1l-0.1,0.1h1.7L437,279l0,0
	l0,0l166.3-26.4l0.2,0.4l0,0l0,0l-16.1,26.4h1.2l15.9-26.1L604,253l0,0l0,0l0.5,0l0-0.1l0,0l0,0l49.1,26.5h2.1L605.1,252l0,0l0,0
	l94-46.5l0.8,0l0.9,0.6l9.5,73.2h1l-9.4-72.5l0,0l0,0l78.1,54l0,0l0,0l0,0l-23.6,18.4h1.6l22.2-17.3l0,0l12.8,17.3h1.2l-13.2-17.8
	l0,0l0,0l130,9.7l1.2,0.5l0,0l0,0l-9.5,7.6h1.6l8.9-7.1l0.5,0.2l0.2-0.5l0.3,0.4l0.6-0.5l18.2,7.4h2.6l-19.9-8.1l0,0l0,0l16.2-12
	l0.8,0.2l0-0.2l26.6,20h1.7l-26.1-19.7l0,0l0,0l52.2,19.7h2.8l-56.4-21.2l0,0l0,0l150.6-32.6l0,0l0,0l-66.7,53.8h1.6l67.2-54.3
	l1-0.2l0,0l0,0l-20.7,50.4l-0.2,0.1l0.1,0.1l0,0l0,0l-0.1,0.1l-20.4,3.8h5.5l15.4-2.9l-0.1-0.5l0,0l0,0l0.4,0.2l3,3.2h1.4l-3.5-3.8
	l0,0l0,0l11.6,3.8h3.2l-14.9-4.8l-0.2,0.7l0-0.1l0,0l0,0l20.4-49.6l0.2,0l38.7,53.8h1.2l-38.5-53.5l0,0l0,0l117.2,21.5l0.2,0.5l0,0
	l0,0l-41,31.5h1.6l40.1-30.9l0.9-0.1l40.7,30.9h1.7l-40.8-31.1l0,0l0,0l147.9-11.4l0,0l0,0L1257,279.4h2.6l100.4-42l0,0l0,0
	l-24.7,42h1.2l25.1-42.6l0.1,0l2.4-0.2l0,0h0l0,0l0.5,0l117.5,42.9l0,0l0,0l0,0h7.2l0,0l0,0l0,0l113.8-42.8l0.7,0.3l0,0l0,0
	l-18.1,42.5h1.1l18-42.1l1,0.4l31,41.7h1.2l-30.4-40.9l0,0l0,0l94.9,40.4l0,0l0,0l-0.8,0.5h1.8l0,0l0,0h0l0.1-0.1l0.2,0.1h0.3
	l0.1-0.3l0.4,0.3h1.8l-1.7-1.1l0,0l0,0l79.4-74.6l0.4,0.4l0,0l0,0l-6.2,75.3h1l6.1-74.3l69.7,73.5l0,0l0,0l-1.4,0.8h2l0,0l0,0l0,0
	l0.2-0.1l-0.1,0.2h1.8l-0.6-0.4l0,0l0,0l63-36.8v-1.8l-134.4-38.4l0,0l0,0l115.3-42.4l19.1,66.3v-3.6l-18.3-63.4l0,0l0,0l18.3-26.5
	v-1.8l-18.9,27.4l-0.4,0.1l-75.6-64l0,0l0,0l94.8,26.4l0.1-0.5v-0.6l-74.7-57l0,0l0,0l0.1-0.1L1845,62l0,0l0,0l0.3-0.4l0,0l0,0l0,0
	L1920,0.6V0h-1.6L1812,36.1l-0.7-0.5L1811,36l0.2-0.5l-23-11l0.2-0.3l-0.8-0.6L1761.8,61l-0.8,1.2l-32.8-34.7l0,0l0,0l0.1-0.1
	l58.7-2.9l-0.1-1l-60,3l0,0.4l-73.8,32.5l-106.1-18.8L1547,41l-0.5-0.2l-14.9,40.6l-94.6-6l-0.1,1l0.5,0l1.9,59.3l-30.6-57.3
	l0.3-0.1l-0.3-1L1303,111.2l-0.6-0.5l-0.3,0.4l-29.6-48.3L1272,63l-0.3-0.4l-96.9,70.2l-0.7-0.2l-0.1,0.3L1110,95l0,0l0-0.5l-33,2
	l0,0.5l-0.5-0.2l-8.4,21.5l-0.4,0.2l0.2,0.3l0,0.1l-66.7-32.4L1001,87l-0.3-0.4l-41.9,28.3l-76.6-38.3L882,77l-0.4-0.2l-27.8,52.5
	l-121.9-19.7l0-0.1l-0.2,0.1l-0.6-0.1l0,0.3L595,155.5l-86.9-21L508,135l0-0.5l-113.6,5.9l0.1-0.2L394,140l-0.3-0.4L318.6,188
	l-0.1-0.3L318,188l-0.2-0.5l-55.7,21.9L201,154.2l-1.6-2.4L199,152l-0.3-0.4l-62.8,46.9l-73.7-13.9l0.2-0.2L62,184l-0.2-0.4L0,216.9
	v1.1l58.8-31.8l0,0l0,0L0,241.3v1.9l25.9,36.1h1.2L1.2,243.1z M434.1,278.5l-0.2,0l0.1,0.6l0,0l0,0L350,249.8l-0.1-0.1l0,0l0,0
	l66.8-90.4L434.1,278.5L434.1,278.5L434.1,278.5z M602.8,251.7L437,278l0,0l0,0l127.1-103.7L602.8,251.7L602.8,251.7L602.8,251.7z
	 M696.7,205.6l-89.1,44.1l0,0l0,0l51.3-42.9l0.8,0.6l0.3-0.4l0.4,0.3l0.6-0.8L696.7,205.6L696.7,205.6L696.7,205.6z M699.8,204
	l-1,0.5l-37,0.9l0,0h0l67.6-91l0,0l0,0L699.8,204z M701.6,204.8L701.6,204.8L701.6,204.8l85.1-23.9l11.6,41.5l0,0l0,0L701.6,204.8z
	 M787.7,180.6l0.4-0.1l-0.2-0.6l0,0l0,0l63.6-46.8l0,0l0,0l-52.4,88.6L787.7,180.6L787.7,180.6L787.7,180.6z M780.4,260l-78.2-54.1
	l0,0l0,0l96.5,17.5l0,0l0,0L780.4,260z M908.2,270.1L782,260.6l0,0l0,0l0.3-0.3l-0.6-0.7l0,0l0,0l17.9-35.8L908.2,270.1L908.2,270.1
	L908.2,270.1z M930.9,258.9l-16.1,11.8l-0.6-0.3L914,271l0,0l0,0l0-0.5l-2.8-0.2l-105.5-45l0,0l0,0L930.9,258.9L930.9,258.9
	L930.9,258.9z M932,257.2l-0.4,0.5l0.4,0.3l0,0l0,0l-0.1,0.2l-131.3-35.3l0,0l0,0l110.9-44.7l0.3,0.2l0.3-0.4l0.4,0.3l0.3-0.4
	L932,257.2L932,257.2L932,257.2z M855.3,130.4L855.3,130.4L855.3,130.4L855.3,130.4L855.3,130.4l102.5-13.6l0,0l0,0l-45.4,59.9
	l-0.7,0.3L855.3,130.4L855.3,130.4L855.3,130.4z M1087.1,223.9l-0.1,0l-0.3-0.3l-0.6,0.5l-152.4,33l0,0l0,0l0.1-0.3l79.9-90.6
	L1087.1,223.9L1087.1,223.9L1087.1,223.9z M1088,225l-0.4-0.2l0,0l0,0l0.3-0.1L1088,225L1088,225L1088,225z M1206.6,246.2
	l-117.3-21.5l0,0l0,0l81-53.3l-0.5-0.8l-80.8,53.2l-0.1-0.3l-0.5,0.1l-18.7-102.2l0,0l0,0l100,49l0.2-0.4L1206.6,246.2L1206.6,246.2
	L1206.6,246.2z M1361.4,235l-0.4,0.8l-151.6,11.7l0,0l0,0l78.3-72.5l0.3,0.1l0,0l0,0l-0.3,0.4l73.4,58.9L1361.4,235L1361.4,235
	L1361.4,235z M1362.3,235.6L1362.3,235.6L1362.3,235.6L1362.3,235.6L1362.3,235.6L1362.3,235.6L1362.3,235.6L1362.3,235.6z
	 M1361.9,233.7l-57.5-119.9l0,0l0,0l73.3,64.6l0.3-0.3l0,0l0,0l-15,56.4L1361.9,233.7z M1304.9,112.9l133.6,25.2l0,0l0,0l-59.7,37.9
	l-0.2-0.1l0,0l-0.1-0.1l-0.9,0.5l0.2,0.3l0,0l0,0l0,0l0.4,0.7l0,0l0,0l0,0.2L1304.9,112.9L1304.9,112.9L1304.9,112.9z M1363.8,235.1
	L1363.8,235.1L1363.8,235.1l15.1-56.7l33.1,54.9l0,0l0,0l-0.3,0.2l-47.1,1.9L1363.8,235.1z M1484,279L1484,279l-116.9-42.7l0,0l0,0
	l45.9-1.8l2.4,0L1484,279L1484,279L1484,279z M1413.7,233.5l0.1-0.3l0.2-0.2l0,0l0,0L1413.7,233.5l0.2,0h0l0,0L1413.7,233.5
	L1413.7,233.5L1413.7,233.5z M1414.2,231.6l26.7-91.6l34.5,42.9l0,0l0,0L1414.2,231.6L1414.2,231.6L1414.2,231.6z M1600.4,236.5
	l-112,42.1l0-0.2l-1,0.1l0.1,0.5v0v0l-0.4,0.1l-0.1-0.6l-1.5,0.3l-68.2-44.2h0l0,0L1600.4,236.5L1600.4,236.5L1600.4,236.5z
	 M1603.2,235.5l-187.5-2l-1.3-0.8l0,0l0,0l61.6-49.1l0.6,0.7l0.4-0.3l126,51.2L1603.2,235.5L1603.2,235.5L1603.2,235.5z
	 M1604.1,234.9L1604.1,234.9L1604.1,234.9L1604.1,234.9l0.1-0.4l-0.4-0.2L1534,85l0,0l0,0l108.2,86.9l0,0l0,0l-0.6,0.3l0.3,0.6l0,0
	l0,0L1604.1,234.9z M1532.9,82.7l116.9,28.7l0.5,0.3v0v0l-7.5,59.3L1533,83L1532.9,82.7L1532.9,82.7L1532.9,82.7z M1702.3,277.7
	l-96-40.9l-0.8-1.1l-0.2,0.2l0,0l0,0l0.3-0.7l-0.3-0.1l0,0l0,0l37.3-61.2L1702.3,277.7L1702.3,277.7L1702.3,277.7z M1703.2,278.1
	l-0.2-0.1l0,0L1703.2,278.1L1703.2,278.1z M1702.9,276.7L1643.2,173l0,0l0,0l0.3,0l7.7-60.6l84,58.6l0,0l0,0l-0.7-0.2L1702.9,276.7z
	 M1651.3,111.3l0.1-1l169.8-15.6l0,0l0,0l-85.3,75.6L1651.3,111.3L1651.3,111.3L1651.3,111.3z M1784,202l-0.1,0.3l-80.3,75.4l0,0
	l0,0l31.9-106.5l0.3,0.2l0.3-0.4l0,0l0,0l-0.3,0.4l47.8,30.3l0,0l0,0l0,0.1L1784,202L1784,202L1784,202z M1783.9,200.7l-47.1-29.8
	l0,0l0,0l86-76.2l0,0l0,0L1783.9,200.7z M1919.6,241.3L1919.6,241.3L1919.6,241.3l-62.6,36.6l-0.2-0.3l-0.9,0.5l-70.5-74.4l0,0l0,0
	l0.1-0.8L1919.6,241.3z M1900,158.8L1900,158.8L1900,158.8l-115.2,42.3l0,0l0,0L1824,94.5l0,0L1900,158.8z M1917.6,118.8
	L1917.6,118.8L1917.6,118.8l-93.2-26l0,0l0,0l20.4-29.7L1917.6,118.8z M1813,36.9l104.6-35.5l0,0l0,0L1844.5,61L1813,36.9L1813,36.9
	L1813,36.9z M1811.8,37.3l31.9,24.4l0.3,0.4l0,0l0,0l-0.3,0.4l0.3,0.2l0,0l0,0l-20,29.1L1811.8,37.3L1811.8,37.3L1811.8,37.3
	L1811.8,37.3z M1788.2,24.6l-0.4,0.8l22.8,10.9l12.6,56.2l0,0l0,0l0,0L1823,93l-61.3-30.1l0,0l0,0L1788.2,24.6z M1761,63.5
	l61.2,30.1l0,0l0,0l-169,15.5l0,0l0,0L1761,63.5z M1727.5,28.3l32.6,34.6l0,0l0,0L1652,108.6l0,0l0,0L1727.5,28.3z M1653.5,60.6
	l0.6-0.1l-0.1-0.4l0,0l0,0l71.9-31.7l0,0l0,0l-75.3,80.1l0,0l0,0L1653.5,60.6z M1652.5,60.8l-2.9,49.6l-115.1-28.3l0,0l0,0
	L1652.5,60.8L1652.5,60.8L1652.5,60.8z M1532.8,81.4l14.6-39.8L1651.2,60l0,0l0,0L1532.8,81.4L1532.8,81.4L1532.8,81.4z
	 M1532.2,83.6l70.2,150.2l0,0l0,0l-124.9-50.7l0,0l0,0L1532.2,83.6z M1531.4,83L1531.4,83L1531.4,83l-54.8,99.7l-35.3-43.9l0,0l0,0
	l0.2-0.7l-0.5-0.1l0,0l0,0l0,0L1531.4,83L1531.4,83z M1438.5,76.6L1438.5,76.6L1438.5,76.6l91.9,5.8l0,0l0,0l-89.5,54.5l-0.2-0.3
	l-0.3,0.2L1438.5,76.6z M1439.7,138.4l0.5,0.6l0,0l0,0l-27.3,93.6l-0.1,0l-33.6-55.6l0,0l0,0l0.1-0.3L1439.7,138.4z M1304.4,111.8
	l103.5-32.9l31.1,58.2l0,0l0,0L1304.4,111.8L1304.4,111.8L1304.4,111.8z M1303.2,113.5l57,118.8l0,0l0,0l-71.6-57.4l0,0l0,0
	L1303.2,113.5z M1302.3,112.6L1302.3,112.6L1302.3,112.6l-14.5,60.8l-110-39.6l0,0l0,0L1302.3,112.6z M1176,133.1l95.8-69.4
	l29.4,48.1l0,0l0,0L1176,133.1L1176,133.1L1176,133.1z M1175.9,134.2l111.2,40l0,0l0,0l-78.5,72.6l-0.3-0.2l-0.1,0.2L1175.9,134.2
	L1175.9,134.2L1175.9,134.2z M1174.5,134.4L1174.5,134.4l0.5,0.1l31,108l0,0l0,0l-35.3-73.4l0,0l0,0L1174.5,134.4z M1172.6,133.2
	L1172.6,133.2L1172.6,133.2l-103.1-14.4l0,0l0,0l40-22.8L1172.6,133.2z M1069.5,117.6l7.9-20.1l30.5-1.9l0,0l0,0L1069.5,117.6
	L1069.5,117.6L1069.5,117.6z M1069,119.9l0.1-0.3l104.3,14.6l0,0h0l-3.9,34.9l0,0l0,0l0,0l0,0l-100-49l-0.1-0.3L1069,119.9
	L1069,119.9L1069,119.9L1069,119.9z M1087.3,222.8L1087.3,222.8L1087.3,222.8l-73-57.4l0,0l0,0l0.1-0.1l-0.4-0.3l0,0l0,0l0.3-0.4
	l0,0l0,0l0,0l54.5-42.8L1087.3,222.8z M1068.5,120.8L1068.5,120.8L1068.5,120.8l-54.9,43.1l-53.2-47.4l0,0l0,0l107.4,3.9
	L1068.5,120.8z M959.8,115.4l41.2-27.8l65.6,31.8l0,0l0,0l-106.4-3.9L959.8,115.4L959.8,115.4L959.8,115.4z M959.3,117l53.4,47.6
	l0,0l0,0l-0.1,0l0.3,0.4l0,0l0,0l-0.3,0.4l0.2,0.1l0,0l0,0l-78.8,89.4l0,0l0,0L959.3,117z M958.1,118l-25.3,138.2l-19.3-79.3l0,0
	l0,0l0,0L958.1,118L958.1,118L958.1,118z M854.9,129.4l27.3-51.7l75.6,37.8l0,0l0,0l-0.1,0.1l0.1,0.2l0,0l0,0L854.9,129.4
	L854.9,129.4L854.9,129.4z M854.5,131l56.1,46.4l0,0l0,0L800.2,222l0,0l0,0l53.4-90.3L854.5,131z M732.2,110.7l121.1,19.5l0,0l0,0
	l-0.4,0.7l-65.8,48.4L732.2,110.7L732.2,110.7L732.2,110.7z M731.2,111.9l0.3-0.4l54.8,68.5l0,0l0,0l-85.4,24l-0.1-0.1l0,0l0,0
	L731.2,111.9z M596.7,155.9L730.5,111l0,0l0,0l-0.1,0.3l-69.8,94.1l-1.5,0l0,0.1l0,0v0L596.7,155.9L596.7,155.9L596.7,155.9z
	 M595.5,156.3l0.3-0.1l0,0l0,0l-0.1,0.1l62.4,49.7l0,0l0,0l-53.8,45L595.5,156.3L595.5,156.3L595.5,156.3z M603.3,250.4L603.3,250.4
	L603.3,250.4l-38.3-76.7l0,0l0,0l0.4-0.3L565,173l0,0l0,0l29.6-16.2L603.3,250.4z M510.6,136.1l83,20l0,0l0,0l-29.1,15.9
	L510.6,136.1L510.6,136.1L510.6,136.1z M508.2,135.7l55.8,37.2l0.1,0.1l0,0l0,0l-0.4,0.2l0.1,0.2l0,0l0,0L436.5,277.1l0,0l0,0
	L508.2,135.7z M507.1,135.8l-72,142.1l-17.5-119.7l0,0l0,0L507.1,135.8L507.1,135.8L507.1,135.8z M395.4,141.4l107.5-5.6l0,0l0,0
	l-86,21.5L395.4,141.4L395.4,141.4L395.4,141.4z M393.9,141.6l22.1,16.3l0.1,0.5l0,0l0,0L351,246.5l0,0l0,0L393.9,141.6z M319,188.9
	l73.9-47.6l0,0l0,0l-43.8,107L319,188.9L319,188.9L319,188.9z M263.8,209.8l54-21.2l30.9,60.9l0,0l0,0l-0.1,0.3L263.8,209.8
	L263.8,209.8L263.8,209.8z M262.5,210.3l0.4-0.2l0,0l0,0l-0.1,0.3l84.9,40h0l0,0l-83.3-1L262.5,210.3L262.5,210.3L262.5,210.3z
	 M203.3,157.5l58.2,52.7l1.9,38l0,0l0,0L203.3,157.5L203.3,157.5L203.3,157.5z M136.6,199.2l62.3-46.5l0.2,0.2l0,0l0,0l-0.4,0.4
	l1.6,1.5l62.7,94.5l0,0l0,0l-113.8-13.9l-1-0.6L136.6,199.2L136.6,199.2L136.6,199.2z M64.7,186l70.9,13.4l11.3,34.7l0,0l0,0
	L64.7,186L64.7,186L64.7,186z M1.3,241.4l60.7-56.8l0,0l0,0L62,185l-0.3,0.4l85.5,50.1l0,0l0,0L1.3,241.4L1.3,241.4L1.3,241.4z"/>
<polygon points="0,278.6 0,279.4 23.8,279.4 "/>
<rect x="1857.3" y="278.8" width="0" height="0.7"/>
<rect x="1852.8" y="151.3" width="0" height="139.8"/>
<rect x="1910.9" y="157.5" width="0" height="66"/>
<polygon points="1900.7,158.1 1901.1,158 1920,130.6 1920,130.6 1901.1,158 1900.7,158.1 1825.1,94.1 1825.1,94.1 "/>
<rect x="1845.3" y="61.6" width="0" height="0"/>
<rect x="1835.7" y="90.9" transform="matrix(-0.795 -0.6067 0.6067 -0.795 3324.1631 1305.2933)" width="93.9" height="0"/>
<rect x="1845.2" y="61.9" width="0" height="0.5"/>
<polygon points="1844.5,61 1917.5,1.4 1917.5,1.4 1844.5,61 1813,36.9 1813,36.9 "/>
<rect x="1822.6" y="105.8" transform="matrix(-0.9634 -0.2682 0.2682 -0.9634 3645.1084 709.5344)" width="96.8" height="0"/>
<rect x="1843.6" y="62.2" transform="matrix(-0.6065 0.7951 -0.7951 -0.6065 3011.5166 -1366.1553)" width="0.5" height="0"/>
<polygon points="1811.8,37.3 1811.8,37.3 1824,91.7 1844,62.6 1844,62.6 1824,91.7 "/>
<polygon points="1823,93 1761.7,62.8 1761.7,62.8 1823,93 1823.1,92.5 1823.2,92.5 1823.2,92.5 1823.1,92.5 "/>
<polygon points="1760.9,62.2 1761.8,61 1760.9,62.2 1728.2,27.5 1728.2,27.5 "/>
<rect x="1647.3" y="85.7" transform="matrix(-0.9209 0.3899 -0.3899 -0.9209 3310.5212 -500.5594)" width="117.5" height="0"/>
<rect x="1633.3" y="68.5" transform="matrix(-0.6848 0.7287 -0.7287 -0.6848 2894.4021 -1114.85)" width="110" height="0"/>
<rect x="1654.1" y="60.1" width="0" height="0.4"/>
<polygon points="1534.4,82.1 1534.4,82.1 1649.5,110.4 1652.5,60.8 1652.5,60.8 1649.5,110.4 "/>
<rect x="1592" y="10.5" width="0" height="120.3"/>
<rect x="1472.6" y="208.5" transform="matrix(-0.9265 -0.3764 0.3764 -0.9265 2888.2593 981.1884)" width="134.8" height="0"/>
<rect x="1441.2" y="137.8" width="0" height="0.5"/>
<polygon points="1441.3,138.8 1441.3,138.8 1476.6,182.7 1531.4,83 1531.4,83 1476.6,182.7 "/>
<polygon points="1440.7,136.6 1440.9,136.9 1530.4,82.4 1530.4,82.4 1440.9,136.9 1440.7,136.6 1440.5,136.8 1438.5,76.6 
	1438.5,76.6 1440.5,136.8 "/>
<rect x="1371.7" y="56" width="0" height="136.9"/>
<rect x="1278.5" y="203.5" transform="matrix(-0.7799 -0.6259 0.6259 -0.7799 2229.7559 1191.2205)" width="91.8" height="0"/>
<polygon points="1177.8,133.9 1177.8,133.9 1287.9,173.4 1302.3,112.6 1302.3,112.6 1287.9,173.4 "/>
<rect x="1238.7" y="58.9" width="0" height="127.1"/>
<polygon points="1208.2,246.8 1208.3,246.6 1208.6,246.8 1287.1,174.2 1287.1,174.2 1208.6,246.8 1208.3,246.6 1208.2,246.8 
	1175.9,134.2 1175.9,134.2 "/>
<rect x="1147.5" y="205.8" transform="matrix(-0.4335 -0.9012 0.9012 -0.4335 1517.8771 1365.7878)" width="81.4" height="0"/>
<polygon points="1069.1,120 1069.5,119.9 1069.5,120.2 1169.6,169.2 1169.6,169.2 1069.5,120.2 1069.5,119.9 1069.1,120 1069,119.9 
	1069,119.9 "/>
<polygon points="1169.5,169.2 1169.5,169.2 1169.6,169.2 1173.5,134.3 1173.5,134.3 1169.6,169.2 "/>
<rect x="1069" y="125.9" transform="matrix(-0.9903 -0.1388 0.1388 -0.9903 2213.7686 406.2815)" width="104.1" height="0"/>
<rect x="1088.7" y="84.5" width="0" height="44.2"/>
<rect x="1014.2" y="164.9" width="0" height="0.5"/>
<rect x="1014.3" y="164.6" width="0" height="0"/>
<rect x="1004.4" y="194.1" transform="matrix(-0.786 -0.6183 0.6183 -0.786 1756.663 996.3326)" width="92.8" height="0"/>
<polygon points="960.4,116.6 960.4,116.6 1013.6,163.9 1068.5,120.8 1068.5,120.8 1013.6,163.9 "/>
<polygon points="960.2,115.5 1066.6,119.4 1066.6,119.4 960.2,115.5 959.8,115.4 959.8,115.4 "/>
<rect x="913.9" y="210.2" transform="matrix(-0.6614 0.7501 -0.7501 -0.6614 1774.955 -380.9417)" width="119.1" height="0"/>
<rect x="1012.6" y="165.2" transform="matrix(-0.6182 0.786 -0.786 -0.6182 1768.8629 -528.7653)" width="0.5" height="0"/>
<rect x="1012.7" y="164.6" transform="matrix(-0.7861 0.6181 -0.6181 -0.7861 1910.5734 -331.9607)" width="0.1" height="0"/>
<polygon points="913.5,176.9 913.5,176.9 913.5,176.9 913.5,176.9 932.8,256.2 958.1,118 958.1,118 932.8,256.2 "/>
<rect x="957.7" y="115.5" transform="matrix(-0.8289 0.5593 -0.5593 -0.8289 1816.3739 -324.4027)" width="0.2" height="0"/>
<rect x="906.4" y="70.7" width="0" height="103.8"/>
<rect x="795.9" y="199.7" transform="matrix(-0.9274 0.3742 -0.3742 -0.9274 1723.3223 64.8522)" width="119" height="0"/>
<polygon points="787.1,179.3 852.9,131 853.3,130.2 853.3,130.2 852.9,131 787.1,179.3 732.2,110.7 732.2,110.7 "/>
<polygon points="700.9,203.8 700.9,203.8 701,203.9 786.3,180 786.3,180 701,203.9 "/>
<rect x="627.9" y="140.9" width="0" height="79.6"/>
<polygon points="660.5,205.5 659,205.5 659,205.5 660.5,205.5 730.3,111.4 730.5,111 730.5,111 730.3,111.4 "/>
<rect x="595.7" y="156.3" transform="matrix(-0.6235 0.7818 -0.7818 -0.6235 1089.3909 -211.9828)" width="0.2" height="0"/>
<polygon points="604.3,251.1 658.1,206.1 658.1,206.1 604.3,251.1 595.5,156.3 595.5,156.3 "/>
<rect x="541.2" y="212.1" transform="matrix(-0.4472 -0.8944 0.8944 -0.4472 655.63 829.3102)" width="85.7" height="0"/>
<rect x="565.2" y="173" width="0" height="0.5"/>
<polygon points="564.6,172.1 593.6,156.2 593.6,156.2 564.6,172.1 510.6,136.1 510.6,136.1 "/>
<rect x="418.1" y="225.3" transform="matrix(-0.775 0.6319 -0.6319 -0.775 1030.031 83.8577)" width="164.1" height="0"/>
<rect x="563.5" y="173.1" transform="matrix(-0.8945 0.4472 -0.4472 -0.8945 1145.4568 75.852)" width="0.5" height="0"/>
<polygon points="417.5,158.1 417.5,158.1 435,277.8 507.1,135.8 507.1,135.8 435,277.8 "/>
<polygon points="416.9,157.3 502.9,135.8 502.9,135.8 416.9,157.3 395.4,141.4 395.4,141.4 "/>
<rect x="328.8" y="202.4" transform="matrix(-0.5944 0.8042 -0.8042 -0.5944 774.3 14.3227)" width="109.5" height="0"/>
<polygon points="349.2,248.3 392.9,141.3 392.9,141.3 349.2,248.3 319,188.9 319,188.9 "/>
<polygon points="348.6,249.8 348.7,249.5 348.7,249.5 348.6,249.8 263.8,209.8 263.8,209.8 "/>
<polygon points="264.5,249.5 347.7,250.5 347.7,250.5 264.5,249.5 262.5,210.3 262.5,210.3 "/>
<rect x="262.7" y="210.3" transform="matrix(-0.4261 0.9047 -0.9047 -0.4261 565.1165 62.128)" width="0.3" height="0"/>
<rect x="233.3" y="148.5" width="0" height="108.8"/>
<polygon points="148.2,234.9 149.2,235.5 263,249.4 263,249.4 149.2,235.5 148.2,234.9 136.6,199.2 136.6,199.2 "/>
<rect x="198.6" y="153.2" transform="matrix(-0.6709 0.7415 -0.7415 -0.6709 445.8389 108.4669)" width="0.6" height="0"/>
<rect x="105.8" y="162.5" width="0" height="95.2"/>
<rect x="74.3" y="165.5" width="0" height="146.1"/>
<polygon points="61.7,185.4 61.7,185.4 62,185 62.1,184.6 62.1,184.6 62,185 "/>
<rect x="-10.9" y="213.8" transform="matrix(0.7303 -0.6832 0.6832 0.7303 -138.1228 77.763)" width="80.6" height="0"/>
<rect x="1853.5" y="279" transform="matrix(0.8721 -0.4892 0.4892 0.8721 100.5816 942.8401)" width="1.6" height="0"/>
<polygon points="1856.8,277.6 1855.8,278.1 1785.4,203.7 1785.4,203.7 1855.8,278.1 1856.8,277.6 1856.9,277.9 1919.6,241.3 
	1919.6,241.3 1856.9,277.9 "/>
<rect x="1781.1" y="180" transform="matrix(-0.9386 0.345 -0.345 -0.9386 3633.8584 -286.6309)" width="122.7" height="0"/>
<polygon points="1822.8,94.7 1783.9,200.7 1736.8,170.9 1736.8,170.9 1783.9,200.7 1822.8,94.7 "/>
<rect x="1652.8" y="101.4" transform="matrix(-0.9958 9.156805e-002 -9.156805e-002 -0.9958 3477.3254 43.3329)" width="169.7" height="0"/>
<polygon points="1736,170.4 1821.3,94.8 1821.3,94.8 1736,170.4 1651.3,111.3 1651.3,111.3 "/>
<polygon points="1735.2,171.1 1735.2,171.1 1734.5,170.9 1702.9,276.7 1643.2,173 1643.2,173 1702.9,276.7 1734.5,170.9 "/>
<polygon points="1533,83 1642.7,171.1 1650.3,111.8 1650.3,111.8 1642.7,171.1 1533,83 1532.9,82.7 1532.9,82.7 "/>
<rect x="1641.5" y="172.1" transform="matrix(-0.8667 0.4988 -0.4988 -0.8667 3150.7288 -497.6255)" width="0.6" height="0"/>
<polygon points="1603.8,234.4 1534,85 1534,85 1603.8,234.4 1604.2,234.5 1604.2,234.5 "/>
<polygon points="1641.9,172.8 1604.1,234.9 1604,234.9 1604,234.9 1604.1,234.9 1641.9,172.8 "/>
<polygon points="1414.4,232.7 1414.4,232.7 1415.7,233.5 1603.2,235.5 1603.2,235.5 1415.7,233.5 "/>
<rect x="1444.8" y="168.1" width="0" height="78.2"/>
<polygon points="1412.8,232.7 1379.2,177.1 1379.2,177.1 1412.8,232.7 1412.9,232.7 1440.2,139 1440.2,139 1412.9,232.7 "/>
<rect x="1377.7" y="176.6" transform="matrix(-0.8445 0.5356 -0.5356 -0.8445 2635.7947 -412.2108)" width="0" height="0"/>
<polygon points="1378.1,177.4 1378.2,177.2 1378.2,177.2 1378.1,177.4 1304.9,112.9 1304.9,112.9 "/>
<polygon points="1378.5,175.9 1378.5,175.9 1378.4,175.7 1377.6,176.3 1377.6,176.3 1378.4,175.7 1378.5,175.9 1378.5,175.9 
	1378.7,175.9 1438.4,138 1438.4,138 1378.7,175.9 "/>
<polygon points="1377.9,178.1 1362.9,234.5 1361.9,233.7 1304.4,113.8 1304.4,113.8 1361.9,233.7 1362.9,234.5 1377.9,178.1 "/>
<rect x="1161.1" y="263.6" transform="matrix(0.7926 -0.6097 0.6097 0.7926 85.41 778.3271)" width="51.7" height="0"/>
<rect x="1109.2" y="219.7" width="0" height="65.9"/>
<polygon points="1169.7,170.6 1089,223.8 1088.9,223.5 1088.4,223.6 1069.8,121.4 1069.8,121.4 1088.4,223.6 1088.9,223.5 
	1089,223.8 1169.7,170.6 1170.3,171.4 1170.3,171.4 "/>
<rect x="1088.3" y="235.5" transform="matrix(-0.9836 -0.1803 0.1803 -0.9836 2234.627 674.1158)" width="119.2" height="0"/>
<polygon points="1066.6,275.3 1066.6,275.3 1066.8,275.2 1087.5,224.8 1087.5,224.8 1066.8,275.2 "/>
<polygon points="1066.7,275.4 1066.7,275.4 1066.6,275.6 1046.3,279.4 1046.3,279.4 1066.6,275.6 "/>
<polygon points="1086.7,223.6 1086,224.1 933.7,257.1 933.7,257.1 1086,224.1 1086.7,223.6 1086.9,223.9 1087.1,223.9 1087.1,223.9 
	1086.9,223.9 "/>
<rect x="925.9" y="264.5" width="0" height="21.5"/>
<rect x="782" y="259.6" width="0" height="0.9"/>
<rect x="781.8" y="265.4" transform="matrix(-0.9972 -7.442012e-002 7.442012e-002 -0.9972 1668.0713 592.867)" width="126.5" height="0"/>
<rect x="700.8" y="213.6" transform="matrix(0.9839 0.1789 -0.1789 0.9839 50.3024 -130.7115)" width="98.3" height="0"/>
<polygon points="780,260.9 780,260.9 780,261 756.3,279.4 756.3,279.4 780,261 "/>
<rect x="706.6" y="206.6" width="0" height="73.1"/>
<polygon points="798.7,223.5 780.4,260 702.2,205.9 702.2,205.9 780.4,260 798.7,223.5 "/>
<rect x="787.7" y="259.4" width="0" height="22.2"/>
<rect x="901.4" y="275.6" transform="matrix(0.7809 -0.6247 0.6247 0.7809 26.7093 627.2876)" width="12.1" height="0"/>
<polygon points="911.3,270.3 805.7,225.3 805.7,225.3 911.3,270.3 914,270.5 914,270.5 "/>
<polygon points="914.2,270.5 914,271 914,271 914.2,270.5 914.8,270.8 930.9,258.9 930.9,258.9 914.8,270.8 "/>
<rect x="1008.2" y="252.4" transform="matrix(0.7779 -0.6283 0.6283 0.7779 74.7613 716.4322)" width="85.7" height="0"/>
<rect x="961.9" y="238.6" width="0" height="60.2"/>
<rect x="1087.5" y="224.9" transform="matrix(-0.9246 -0.3809 0.3809 -0.9246 2007.9226 847.166)" width="0.5" height="0"/>
<polygon points="1068.2,274.5 1067.9,275.3 1067.9,275.2 1067.9,275.2 1067.9,275.3 1068.2,274.5 1083.1,279.4 1083.1,279.4 "/>
<rect x="1067" y="276" width="0" height="0.5"/>
<rect x="1070" y="274.9" width="0" height="5.1"/>
<rect x="1252.8" y="258.1" transform="matrix(0.9226 -0.3858 0.3858 0.9226 1.6531 524.5245)" width="110" height="0"/>
<rect x="1230.9" y="238.2" width="0" height="51.3"/>
<rect x="1362.2" y="235.6" transform="matrix(-0.997 7.697681e-002 -7.697681e-002 -0.997 2738.5713 365.7095)" width="0.1" height="0"/>
<rect x="1364" y="236.5" width="0" height="0"/>
<polygon points="1482,279.4 1482,279.4 1482,279.4 1482,279.4 "/>
<polygon points="1412,233.3 1412,233.3 1411.8,233.5 1364.6,235.4 1363.8,235.1 1363.8,235.1 1364.6,235.4 1411.8,233.6 "/>
<polygon points="1367.1,236.3 1367.1,236.3 1484,279 1484,279 1484,279 1484,279 "/>
<rect x="1413.6" y="233.3" transform="matrix(-0.5442 0.839 -0.839 -0.5442 2378.9341 -825.9455)" width="0.4" height="0"/>
<rect x="1413.8" y="233.4" width="0" height="0.2"/>
<rect x="1489.2" y="279.3" width="0" height="0"/>
<rect x="1571.5" y="258.1" transform="matrix(0.3924 -0.9198 0.9198 0.3924 731.4288 1623.4902)" width="46.2" height="0"/>
<rect x="1605.3" y="235" width="0" height="0.3"/>
<polygon points="1605.4,235.7 1605.2,235.9 1605.2,235.9 1605.4,235.7 1606.2,236.8 1702.3,277.7 1702.3,277.7 1606.2,236.8 "/>
<rect x="1701.4" y="279.1" transform="matrix(0.8233 -0.5676 0.5676 0.8233 142.2672 1015.2348)" width="0.9" height="0"/>
<rect x="1622.6" y="233.4" width="0" height="51"/>
<rect x="1705.4" y="277.8" width="0" height="2"/>
<rect x="1743.4" y="241.7" transform="matrix(8.236217e-002 -0.9966 0.9966 8.236217e-002 1393.6158 1996.9725)" width="75.5" height="0"/>
<polygon points="1735.7,171.4 1736,171 1736,171 1735.7,171.4 "/>
<polygon points="1703.6,277.8 1703.6,277.8 1783.9,202.3 1784,202 1784,202 1783.9,202.3 "/>
<rect x="1783.5" y="201.8" transform="matrix(-0.3458 0.9383 -0.9383 -0.3458 2589.6309 -1401.9906)" width="0.1" height="0"/>
<polygon points="1486.9,278.5 1485.5,278.8 1417.3,234.5 1417.3,234.5 1485.5,278.8 1486.9,278.5 1487,279.1 1487.4,278.9 
	1487.4,278.9 1487,279.1 "/>
<polygon points="1488.3,278.3 1487.3,278.5 1487.3,278.5 1488.3,278.3 1488.4,278.6 1600.4,236.5 1600.3,236.5 1488.4,278.6 "/>
<rect x="1323.3" y="258.4" transform="matrix(0.5075 -0.8616 0.8616 0.5075 441.0575 1288.4177)" width="48.7" height="0"/>
<rect x="948.1" y="253.2" width="0" height="32.7"/>
<rect x="433.9" y="278.5" transform="matrix(-0.9876 0.1569 -0.1569 -0.9876 906.3644 485.4376)" width="0.2" height="0"/>
<polygon points="349.9,249.7 349.9,249.7 350,249.8 434,279.1 434,279.1 350,249.8 "/>
<rect x="275.6" y="247.1" width="0" height="35.8"/>
<rect x="327.3" y="265.4" transform="matrix(0.3714 -0.9285 0.9285 0.3714 -31.2718 484.6585)" width="30" height="0"/>
<rect x="216" y="264.8" transform="matrix(0.8235 -0.5673 0.5673 0.8235 -107.6159 183.7849)" width="51.2" height="0"/>
<rect x="184.2" y="218.7" width="0" height="78.8"/>
<rect x="70.7" y="258" transform="matrix(0.8513 -0.5247 0.5247 0.8513 -118.8136 96.8176)" width="81.4" height="0"/>
<rect x="38.4" y="220" width="0" height="81.7"/>
<rect x="14.2" y="239" width="0" height="44.6"/>
<polygon points="23.8,279.4 0,278.6 0,278.6 23.8,279.4 "/>
<rect x="436" y="264.9" transform="matrix(-0.9876 0.1569 -0.1569 -0.9876 1074.8883 444.8785)" width="167.9" height="0"/>
<rect x="579.9" y="266.2" transform="matrix(0.5214 -0.8533 0.8533 0.5214 57.7967 635.3909)" width="30.9" height="0"/>
<rect x="437.2" y="278.9" width="0" height="0.6"/>
<rect x="604.2" y="252.9" width="0" height="0.5"/>
<rect x="604.5" y="252.8" width="0" height="0.1"/>
<rect x="630.4" y="236.9" width="0" height="57.5"/>
<polygon points="607.5,249.7 696.7,205.6 696.7,205.6 607.5,249.7 "/>
<polygon points="729.3,114.4 699.8,204 698.8,204.5 661.8,205.4 661.8,205.4 698.8,204.5 699.8,204 729.3,114.4 "/>
<polygon points="799.2,221.7 851.6,133.2 851.6,133.2 799.2,221.7 787.7,180.6 787.7,180.6 "/>
<rect x="788.1" y="179.9" width="0" height="0.6"/>
<rect x="931.5" y="257.4" transform="matrix(-0.6614 0.7501 -0.7501 -0.6614 1741.2118 -271.2428)" width="0.6" height="0"/>
<polygon points="800.6,222.9 800.6,222.9 931.9,258.2 932,258 932,258 931.9,258.2 "/>
<polygon points="911.6,177 912.3,176.7 957.8,116.8 957.8,116.8 912.3,176.7 911.6,177 855.3,130.4 855.3,130.4 "/>
<rect x="855.3" y="130.3" width="0" height="0.1"/>
<rect x="1287.6" y="175.2" transform="matrix(-0.626 0.7798 -0.7798 -0.626 2230.6621 -719.4144)" width="0.5" height="0"/>
<polygon points="1209.4,247.4 1209.4,247.4 1361,235.7 1361.4,235 1361.4,235 1361,235.7 "/>
</svg>
