<?xml version="1.0" encoding="utf-8"?>
<!-- Generator: Adobe Illustrator 19.1.0, SVG Export Plug-In . SVG Version: 6.00 Build 0)  -->
<svg version="1.1" id="Layer_1" xmlns="http://www.w3.org/2000/svg" xmlns:xlink="http://www.w3.org/1999/xlink" x="0px" y="0px"
	 viewBox="0 0 1920 560" style="enable-background:new 0 0 1920 560;" xml:space="preserve">
<style type="text/css">
	.st0{fill-rule:evenodd;clip-rule:evenodd;}
	.st1{fill-rule:evenodd;clip-rule:evenodd;fill:#191819;}
	.st2{fill-rule:evenodd;clip-rule:evenodd;fill:#292929;}
	.st3{fill-rule:evenodd;clip-rule:evenodd;fill:#4F504F;}
	.st4{fill-rule:evenodd;clip-rule:evenodd;fill:#20201F;}
	.st5{fill-rule:evenodd;clip-rule:evenodd;fill:#171717;}
	.st6{fill-rule:evenodd;clip-rule:evenodd;fill:#363636;}
	.st7{fill-rule:evenodd;clip-rule:evenodd;fill:#181818;}
	.st8{fill-rule:evenodd;clip-rule:evenodd;fill:#383838;}
	.st9{fill-rule:evenodd;clip-rule:evenodd;fill:#4D4E4E;}
	.st10{fill-rule:evenodd;clip-rule:evenodd;fill:#212221;}
	.st11{fill-rule:evenodd;clip-rule:evenodd;fill:#2B2B2B;}
	.st12{fill-rule:evenodd;clip-rule:evenodd;fill:#3D3D3D;}
	.st13{fill-rule:evenodd;clip-rule:evenodd;fill:#414141;}
	.st14{fill-rule:evenodd;clip-rule:evenodd;fill:#2A2A2A;}
	.st15{fill-rule:evenodd;clip-rule:evenodd;fill:#1A1A1A;}
	.st16{fill-rule:evenodd;clip-rule:evenodd;fill:#484848;}
	.st17{fill-rule:evenodd;clip-rule:evenodd;fill:#1F1F1F;}
	.st18{fill-rule:evenodd;clip-rule:evenodd;fill:#49494A;}
	.st19{fill-rule:evenodd;clip-rule:evenodd;fill:#3E3E3E;}
	.st20{fill-rule:evenodd;clip-rule:evenodd;fill:#0B0B0B;}
	.st21{fill-rule:evenodd;clip-rule:evenodd;fill:#2C2C2C;}
	.st22{fill-rule:evenodd;clip-rule:evenodd;fill:#131313;}
	.st23{fill-rule:evenodd;clip-rule:evenodd;fill:#323232;}
	.st24{fill-rule:evenodd;clip-rule:evenodd;fill:#464646;}
	.st25{fill-rule:evenodd;clip-rule:evenodd;fill:#272727;}
	.st26{fill-rule:evenodd;clip-rule:evenodd;fill:#333333;}
	.st27{fill-rule:evenodd;clip-rule:evenodd;fill:#2D2D2D;}
	.st28{fill-rule:evenodd;clip-rule:evenodd;fill:#1E1E1E;}
	.st29{fill-rule:evenodd;clip-rule:evenodd;fill:#030303;}
	.st30{fill-rule:evenodd;clip-rule:evenodd;fill:#0E0E0E;}
	.st31{fill-rule:evenodd;clip-rule:evenodd;fill:#060606;}
	.st32{fill-rule:evenodd;clip-rule:evenodd;fill:#121212;}
	.st33{fill-rule:evenodd;clip-rule:evenodd;fill:#282827;}
	.st34{fill-rule:evenodd;clip-rule:evenodd;fill:#161616;}
	.st35{fill-rule:evenodd;clip-rule:evenodd;fill:#484849;}
	.st36{fill-rule:evenodd;clip-rule:evenodd;fill:#434343;}
	.st37{fill-rule:evenodd;clip-rule:evenodd;fill:#414242;}
	.st38{fill-rule:evenodd;clip-rule:evenodd;fill:#0D0D0D;}
	.st39{fill-rule:evenodd;clip-rule:evenodd;fill:#020202;}
	.st40{fill-rule:evenodd;clip-rule:evenodd;fill:#0C0C0C;}
	.st41{fill-rule:evenodd;clip-rule:evenodd;fill:#353535;}
	.st42{fill-rule:evenodd;clip-rule:evenodd;fill:#2E2E2E;}
	.st43{fill-rule:evenodd;clip-rule:evenodd;fill:#242424;}
	.st44{fill-rule:evenodd;clip-rule:evenodd;fill:#3A3A3A;}
	.st45{fill-rule:evenodd;clip-rule:evenodd;fill:#0A0A0A;}
	.st46{fill-rule:evenodd;clip-rule:evenodd;fill:#393939;}
	.st47{fill-rule:evenodd;clip-rule:evenodd;fill:#111111;}
	.st48{fill-rule:evenodd;clip-rule:evenodd;fill:#0F0E0F;}
	.st49{fill-rule:evenodd;clip-rule:evenodd;fill:#3C3C3C;}
	.st50{fill-rule:evenodd;clip-rule:evenodd;fill:#141414;}
	.st51{fill-rule:evenodd;clip-rule:evenodd;fill:#010101;}
</style>
<polygon class="st0" points="1863.9,373.2 1920,320.7 1920,342.9 "/>
<polygon class="st1" points="1860.8,374.5 1861,374 1775.9,324.1 1776.3,323.8 1919.5,318.1 1920,318.4 1920,319.3 1860.7,374.8 "/>
<polygon class="st2" points="1857,279 1920,242.2 1920,317 1919.7,317 "/>
<polygon class="st3" points="1900.9,159.6 1920,225.9 1920,240.3 1785.6,201.9 "/>
<polygon class="st0" points="1920,132.3 1920,222.2 1901.7,158.8 "/>
<polygon class="st0" points="1900.7,158.1 1825.1,94.1 1919.9,120.5 1920,120 1920,130.6 1901.1,158 "/>
<polygon class="st4" points="1845.4,62.3 1845,62 1845.3,61.6 1845.3,61.6 1920,0.6 1920,119.4 1845.3,62.4 "/>
<polygon class="st5" points="1813,36.9 1917.5,1.4 1844.5,61 "/>
<polygon class="st6" points="1917.6,118.8 1824.4,92.9 1844.8,63.2 "/>
<polygon class="st7" points="1844,62 1843.7,62.4 1844,62.6 1824,91.7 1811.8,37.3 1811.8,37.3 1843.7,61.6 "/>
<polygon class="st8" points="1823.1,92.5 1823,93 1761.7,62.8 1787.8,25.5 1810.6,36.3 1823.2,92.5 "/>
<polygon class="st9" points="1728.2,27.5 1728.3,27.4 1787,24.5 1760.9,62.2 "/>
<polygon class="st10" points="1652,108.6 1727.5,28.3 1760.1,62.8 "/>
<polygon class="st11" points="1653.5,60.6 1654.1,60.5 1654,60.1 1726,28.4 1650.6,108.6 "/>
<polygon class="st8" points="1534.4,82.1 1652.5,60.8 1649.5,110.4 "/>
<polygon class="st12" points="1547.3,41.6 1651.2,60 1532.8,81.4 "/>
<polygon class="st2" points="1477.5,183.1 1532.2,83.6 1602.4,233.8 "/>
<polygon class="st0" points="1441.3,138.8 1441.5,138.1 1441,138 1441,138 1531.4,83 1531.4,83 1476.6,182.7 "/>
<polygon class="st13" points="1440.7,136.6 1440.5,136.8 1438.5,76.6 1530.4,82.4 1440.9,136.9 "/>
<polygon class="st14" points="1304.4,111.8 1407.9,78.9 1439,137.1 "/>
<polygon class="st8" points="1288.6,174.8 1303.2,113.5 1360.1,232.3 "/>
<polygon class="st15" points="1177.8,133.9 1302.3,112.6 1287.9,173.4 "/>
<polygon class="st16" points="1271.9,63.7 1301.3,111.8 1176,133.1 "/>
<polygon class="st17" points="1208.6,246.8 1208.3,246.6 1208.2,246.8 1175.9,134.2 1287.1,174.2 "/>
<polygon class="st6" points="1170.6,169.1 1174.5,134.4 1174.5,134.4 1174.9,134.5 1205.9,242.5 "/>
<polygon class="st18" points="1169.5,169.2 1169.6,169.2 1069.5,120.2 1069.5,119.9 1069.1,120 1069,119.9 1069.2,119.7 
	1173.5,134.3 1169.6,169.2 "/>
<polygon class="st19" points="1109.5,95.9 1172.6,133.2 1069.5,118.7 "/>
<polygon class="st20" points="1077.3,97.5 1107.9,95.6 1069.5,117.6 "/>
<polygon class="st21" points="1014.3,165.4 1014.4,165.3 1014,165 1014.3,164.6 1014.3,164.6 1068.8,121.8 1087.3,222.8 "/>
<polygon class="st22" points="960.4,116.6 1067.8,120.5 1068.5,120.8 1013.6,163.9 "/>
<polygon class="st2" points="959.8,115.4 1001,87.6 1066.6,119.4 960.2,115.5 "/>
<polygon class="st23" points="1012.7,164.6 1013,165 1012.7,165.4 1012.9,165.5 934.1,254.9 959.3,117 1012.8,164.6 "/>
<polygon class="st24" points="913.5,176.9 913.5,176.9 958.1,118 932.8,256.2 "/>
<polygon class="st24" points="957.9,115.8 854.9,129.4 882.2,77.7 957.9,115.5 957.7,115.6 "/>
<polygon class="st25" points="800.2,222 853.6,131.6 854.5,131 910.6,177.5 "/>
<polygon class="st0" points="787.1,179.3 732.2,110.7 853.3,130.2 852.9,131 "/>
<polygon class="st0" points="701,203.9 700.9,203.8 731.2,111.9 731.5,111.5 786.3,180 "/>
<polygon class="st26" points="660.5,205.5 659,205.5 659,205.6 596.7,155.9 730.5,111 730.3,111.4 "/>
<polygon class="st27" points="658.1,206.1 604.3,251.1 595.5,156.3 595.8,156.3 595.7,156.4 "/>
<polygon class="st28" points="564.9,173.7 565.3,173.4 565,173 594.6,156.8 603.3,250.4 "/>
<polygon class="st26" points="510.6,136.1 593.6,156.2 564.6,172.1 "/>
<polygon class="st29" points="564,173 563.6,173.2 563.7,173.4 436.5,277.1 508.2,135.7 563.9,172.9 "/>
<polygon class="st29" points="417.5,158.1 507.1,135.8 435,277.8 "/>
<polygon class="st30" points="395.4,141.4 502.9,135.8 416.9,157.3 "/>
<polygon class="st15" points="416.1,158.4 351,246.5 393.9,141.6 416,157.9 "/>
<polygon class="st20" points="319,188.9 392.9,141.3 349.2,248.3 "/>
<polygon class="st0" points="348.6,249.8 263.8,209.8 317.8,188.6 348.7,249.5 "/>
<polygon class="st31" points="347.7,250.5 264.5,249.5 262.5,210.3 262.9,210.2 262.8,210.5 "/>
<polygon class="st32" points="203.3,157.5 261.5,210.2 263.4,248.2 "/>
<polygon class="st29" points="263,249.4 149.2,235.5 148.2,234.9 136.6,199.2 198.9,152.7 199,153 198.7,153.4 200.3,154.8 "/>
<polygon class="st17" points="64.7,186 135.6,199.4 146.9,234.2 "/>
<polygon class="st1" points="61.7,185.4 147.3,235.6 1.3,241.4 62.1,184.6 62,185 "/>
<polygon class="st0" points="0,218 58.8,186.3 0,241.3 "/>
<polygon class="st4" points="3.3,560 0,560 0,440.7 77.8,497.1 77.7,497.2 78.1,497.5 77.8,497.9 77.8,497.9 2.8,559.1 3.1,559.5 
	"/>
<polygon class="st5" points="110.1,522.7 5.6,558.2 78.6,498.5 "/>
<polygon class="st7" points="79.1,497.5 79.4,497.1 79.1,496.9 99.1,467.8 111.3,522.3 111.3,522.3 79.4,497.9 "/>
<polygon class="st8" points="100,467 100.1,466.5 161.4,496.7 135.3,534.1 112.5,523.2 99.9,467 "/>
<polygon class="st10" points="269.9,450.3 162.1,496 100.9,465.8 "/>
<polygon class="st10" points="195.6,531.3 163,496.7 271.1,450.9 "/>
<polygon class="st11" points="269.6,498.9 197.1,531.1 272.4,450.9 "/>
<polygon class="st8" points="388.6,477.4 270.6,498.7 273.5,449.1 "/>
<polygon class="st12" points="375.7,517.9 271.9,499.5 390.3,478.1 "/>
<polygon class="st2" points="445.5,376.4 390.8,475.9 320.6,325.6 "/>
<polygon class="st0" points="481.7,420.7 481.6,421.3 482,421.5 482,421.5 391.7,476.5 391.6,476.5 446.4,376.8 "/>
<polygon class="st13" points="482.3,422.9 482.6,422.7 484.5,482.9 392.7,477.1 482.1,422.6 "/>
<polygon class="st0" points="618.6,447.7 515.1,480.6 484.1,422.4 "/>
<polygon class="st8" points="634.4,384.6 619.8,446 562.9,327.2 "/>
<polygon class="st15" points="745.1,425.6 620.7,446.9 635.1,386 "/>
<polygon class="st16" points="651.1,495.8 621.7,447.7 746.9,426.3 "/>
<polygon class="st17" points="714,313 714.3,313.4 714.9,312.9 747.1,425.3 635.9,385.3 "/>
<polygon class="st6" points="752.4,390.4 748.5,425 748.5,425 748.1,425 717.1,317 "/>
<polygon class="st18" points="753.4,390.2 753.4,390.2 853.4,439.3 853.5,439.6 853.9,439.5 853.9,439.5 853.8,439.8 749.5,425.2 
	753.4,390.3 "/>
<polygon class="st19" points="813.5,463.6 750.4,426.3 853.4,440.8 "/>
<polygon class="st20" points="845.6,462 815.1,463.9 853.5,441.9 "/>
<polygon class="st21" points="908.6,394.1 908.6,394.1 908.9,394.5 908.6,394.8 908.6,394.9 854.1,437.7 835.7,336.6 "/>
<polygon class="st22" points="962.6,442.9 855.2,439 854.5,438.7 909.4,395.5 "/>
<polygon class="st2" points="963.1,444.1 921.9,471.9 856.3,440.1 962.7,443.9 "/>
<polygon class="st23" points="910.3,394.9 909.9,394.5 910.3,394.1 910.1,393.9 988.9,304.5 963.6,442.5 910.2,394.9 "/>
<polygon class="st24" points="1009.4,382.6 1009.5,382.6 964.8,441.5 990.1,303.2 "/>
<polygon class="st24" points="965.1,443.7 1068,430.1 1040.7,481.8 965.1,444 965.2,443.9 "/>
<polygon class="st25" points="1122.7,337.4 1069.3,427.8 1068.5,428.5 1012.4,382 "/>
<polygon class="st33" points="1135.8,380.1 1190.7,448.8 1069.6,429.2 1070.1,428.5 "/>
<polygon class="st10" points="1221.9,355.5 1222,355.6 1191.6,447.6 1191.4,448 1136.6,379.5 "/>
<polygon class="st26" points="1262.4,354 1263.9,353.9 1263.9,353.9 1326.1,403.5 1192.4,448.4 1192.5,448.1 "/>
<polygon class="st27" points="1264.8,353.3 1317.7,309 1318.6,309.4 1327.3,403.1 1327.1,403.2 1327.2,403.1 "/>
<polygon class="st28" points="1357.9,385.7 1357.5,386.1 1357.8,386.4 1328.3,402.7 1319.6,309 "/>
<polygon class="st26" points="1412.2,423.3 1329.2,403.3 1358.3,387.3 "/>
<polygon class="st29" points="1358.9,386.5 1359.3,386.2 1359.2,386 1486.3,282.3 1414.7,423.7 1358.9,386.6 "/>
<polygon class="st29" points="1505.3,401.3 1415.8,423.7 1487.8,281.6 "/>
<polygon class="st30" points="1527.5,418.1 1420,423.7 1506,402.2 "/>
<polygon class="st15" points="1506.7,401.1 1571.8,312.9 1528.9,417.9 1506.9,401.6 "/>
<polygon class="st0" points="1603.8,370.5 1529.9,418.2 1573.6,311.2 "/>
<polygon class="st20" points="1574.3,309.7 1659,349.6 1605.1,370.8 1574.1,309.9 "/>
<polygon class="st0" points="1575.1,308.9 1658.3,309.9 1660.3,349.1 1659.9,349.3 1660,349 "/>
<polygon class="st32" points="1719.5,401.9 1661.3,349.2 1659.4,311.2 "/>
<polygon class="st30" points="1775.5,322.9 1785.2,205 1854.9,278.6 1776.1,322.8 "/>
<polygon class="st0" points="1778.3,322.7 1855.6,279.3 1855.6,279.3 1855.7,279.3 1855.9,279.2 1855.7,279.4 1917.9,317.1 "/>
<polygon class="st15" points="1856.9,277.9 1856.8,277.6 1855.8,278.1 1785.4,203.7 1785.4,202.9 1919.6,241.3 "/>
<polygon class="st34" points="1824,94.5 1900,158.8 1784.8,201.2 1824,94.5 "/>
<polygon class="st35" points="1783.9,200.7 1736.8,170.9 1822.8,94.7 "/>
<polygon class="st10" points="1822.2,93.7 1653.2,109.2 1761,63.6 "/>
<polygon class="st11" points="1821.3,94.8 1736,170.4 1651.3,111.3 1651.5,110.4 "/>
<polygon class="st36" points="1735.2,171.1 1734.5,170.9 1702.9,276.7 1643.2,173 1643.5,173.1 1651.2,112.4 "/>
<polygon class="st21" points="1532.9,82.7 1649.8,111.5 1650.3,111.8 1642.7,171.1 1533,83 "/>
<polygon class="st37" points="1642.1,171.9 1641.6,172.3 1641.9,172.8 1604.1,234.9 1604,234.9 1604.2,234.5 1603.8,234.4 1534,85 
	"/>
<polygon class="st27" points="1476.6,184.3 1477,184 1603.1,235.2 1603.2,235.5 1415.7,233.5 1414.4,232.7 1476,183.6 "/>
<polygon class="st24" points="1475.4,182.8 1414.2,231.6 1440.9,140 "/>
<polygon class="st22" points="1440.2,139 1412.9,232.7 1412.8,232.7 1379.2,177.1 1379.3,176.8 1439.7,138.4 "/>
<polygon class="st4" points="1378.7,175.9 1378.5,175.9 1378.5,175.9 1378.4,175.7 1377.6,176.3 1377.8,176.6 1377.7,176.6 
	1378.2,177.2 1378.1,177.4 1304.9,112.9 1438.4,138 "/>
<polygon class="st22" points="1377.7,178.4 1377.9,178.1 1362.9,234.5 1361.9,233.7 1304.4,113.8 "/>
<polygon class="st37" points="1209,248.4 1251.7,280.9 1143.5,298.3 1208.2,248.5 "/>
<polygon class="st0" points="1207.4,247.9 1142.9,297.4 1142.5,297.2 1142,298.1 1090,225.9 1207.1,247.4 "/>
<polygon class="st38" points="1169.8,170.5 1170,170.1 1206.6,246.2 1089.3,224.7 1170.3,171.4 1169.7,170.6 1089,223.8 
	1088.9,223.5 1088.4,223.6 1069.8,121.4 "/>
<polygon class="st39" points="1066.8,275.2 1066.6,275.3 1066.7,275.4 1066.6,275.6 1011.2,285.9 1086.5,225.1 1087.5,224.8 "/>
<polygon class="st17" points="1013.7,166.2 1087.1,223.9 1086.9,223.9 1086.7,223.6 1086,224.1 933.7,257.1 933.7,256.8 "/>
<polygon class="st40" points="932.9,259.5 932.9,259.3 987.3,300.4 915.9,271.2 932.1,259.3 "/>
<polygon class="st0" points="782,260.6 782.3,260.4 781.7,259.7 799.6,223.8 908.2,270.1 "/>
<polygon class="st0" points="798.3,222.4 701.6,204.8 786.7,180.9 "/>
<polygon class="st0" points="715.4,311.2 715.4,311.2 701.9,206.9 780,260.9 780,261 715.5,311.2 "/>
<polygon class="st0" points="798.7,223.5 780.4,260 702.2,205.9 "/>
<polygon class="st1" points="780.2,262.1 780.2,262.1 833.4,333.6 716,312.1 "/>
<polygon class="st38" points="753.2,389 753,389.4 716.4,313.2 833.6,334.7 752.7,388 753.3,388.9 834,335.7 834.1,335.9 
	834.5,335.8 853.2,438.1 "/>
<polygon class="st1" points="834.7,333.8 781.1,261.6 911,271.3 912.2,271.8 "/>
<polygon class="st2" points="930.9,258.9 914.8,270.8 914.2,270.5 914,271 914,270.5 911.3,270.3 805.7,225.3 "/>
<polygon class="st41" points="835.3,334.6 913.3,272.2 913.8,272.5 914,272 914.3,272.4 914.9,271.9 987.7,301.6 835.3,334.6 "/>
<polygon class="st17" points="909.3,393.3 835.9,335.5 989.3,302.3 989.2,302.6 "/>
<polygon class="st41" points="1084.3,225.5 1009.1,286.3 1008.7,286.4 933.8,258.1 "/>
<polygon class="st0" points="1009,287.3 1008.9,287.4 1008.9,287.3 "/>
<polygon class="st0" points="1117.2,334.1 992.1,300.5 1009,288 "/>
<polygon class="st0" points="1088,225 1087.6,224.8 1087.8,224.8 "/>
<polygon class="st0" points="1088.5,225.6 1140.7,298.1 1068.2,274.5 1067.9,275.3 1067.9,275.2 1088.3,225.6 "/>
<polygon class="st0" points="1067.1,276.5 1067,276 1067.4,276.2 1122.6,335.3 1123.4,334.7 1068.3,275.6 1141.4,299.3 
	1123.3,335.6 1009.7,287.2 "/>
<polygon class="st25" points="1124.6,337.1 1221.3,354.7 1136.2,378.6 "/>
<polygon class="st0" points="1143.2,298.3 1143,298.3 1143.1,298.1 "/>
<polygon class="st0" points="1124.2,336 1142.5,299.4 1142.5,299.4 1220.7,353.5 "/>
<polygon class="st7" points="1251.9,281.8 1252.2,282.5 1252.3,282.4 1222.2,353.3 1143.9,299.2 "/>
<polygon class="st42" points="1223.1,355.4 1224.1,354.9 1261.1,354 1193.5,445.1 "/>
<polygon class="st35" points="1263.2,352 1262.9,352.4 1262.5,352.1 1261.8,353 1226.2,353.9 1315.3,309.7 1264,352.7 "/>
<polygon class="st0" points="1223,353.9 1223,353.9 1253.5,282.2 1253.7,282.4 1254,282 1253.8,282.5 1316,308.3 1223.8,353.9 "/>
<polygon class="st0" points="1253.1,282.1 1253.2,282 1253.4,282.2 "/>
<polygon class="st35" points="1210.5,248.3 1358.5,236.9 1253.9,280.6 1253.9,280.5 1253,280.6 "/>
<polygon class="st0" points="1362.3,235.6 1362.2,235.6 1362.2,235.6 "/>
<polygon class="st17" points="1361.6,236.7 1361.7,236.7 1364,236.5 1364,236.5 1364.5,236.4 1482,279.4 1320,307.3 "/>
<polygon class="st43" points="1320.4,308.3 1483.9,280 1486.4,280.9 1358.7,385.1 "/>
<polygon class="st44" points="1363.8,235.1 1378.9,178.4 1412,233.3 1411.8,233.6 1364.6,235.4 "/>
<polygon class="st15" points="1484,279 1484,279 1367.1,236.3 1413,234.5 1415.4,234.5 "/>
<polygon class="st0" points="1413.7,233.5 1413.7,233.3 1413.9,233.1 1413.7,233.4 1413.9,233.5 "/>
<polygon class="st45" points="1488.6,280.2 1572.7,309.5 1572.5,309.8 1572.8,309.9 1506.2,400.2 "/>
<polygon class="st46" points="1573,308 1572.8,308.4 1572.7,308.5 1489.2,279.3 1603,236.5 1603.7,236.8 1573.3,308.1 "/>
<polygon class="st26" points="1604.6,237.2 1605.6,237.7 1658.6,308.9 1574.4,307.9 "/>
<polygon class="st0" points="1642.5,173.8 1702.3,277.7 1606.2,236.8 1605.4,235.7 1605.2,235.9 1605.5,235.2 1605.2,235.1 "/>
<polygon class="st14" points="1607.4,238.4 1702.3,278.8 1659.4,308.4 "/>
<polygon class="st0" points="1703,278 1703.3,278.1 1703.2,278.1 1703,278 "/>
<polygon class="st32" points="1703.3,279.3 1703.3,279.4 1703.4,279.3 1703.8,279.5 1704,279.1 1771.7,322.7 1660.2,309.1 "/>
<polygon class="st47" points="1774.5,322.9 1773.9,322.9 1704.5,278.3 1783.9,203.7 1784.3,204.1 "/>
<polygon class="st15" points="1783.9,202.3 1703.6,277.8 1735.5,171.2 1735.7,171.4 1736,171 1735.7,171.4 1783.6,201.7 
	1783.5,201.8 1784,202 "/>
<polygon class="st0" points="1487.6,280.1 1487.5,280 1487.5,280.1 1487.4,280 1487.6,280 "/>
<polygon class="st42" points="1486.9,278.5 1485.5,278.8 1417.3,234.5 1600.4,236.5 1488.4,278.6 1488.3,278.3 1487.3,278.5 
	1487.4,278.9 1487,279.1 "/>
<polygon class="st25" points="1317.2,307.7 1254.3,281.6 1360,237.4 1319.4,306.4 1319.3,306.2 1318.9,306.4 1318.4,306.5 
	1318.4,307.1 "/>
<polygon class="st34" points="1071.4,426.3 1123.7,337.7 1135.2,378.8 1134.8,379 1134.9,379.5 "/>
<polygon class="st48" points="991.3,301.7 990.9,301.4 990.9,301.3 991,301.2 1122.3,336.5 1011.5,381.3 1011.2,381.1 1010.9,381.5 
	1010.5,381.2 1010.2,381.6 990.9,302.2 "/>
<polygon class="st0" points="965.2,442.7 1010.6,382.7 1011.3,382.4 1067.6,429.1 1067.6,429.1 1067.7,429.1 "/>
<polygon class="st2" points="989.4,301.2 989,301 989.3,300.6 935.1,259.7 1008,287.2 1008.1,287.4 990.8,300.1 990.1,299.9 
	989.9,300.4 989.4,300.5 989.6,301.2 "/>
<polygon class="st0" points="442.5,283.8 505.8,324.9 323.2,323 434.6,281.1 "/>
<polygon class="st0" points="434.1,278.5 433.9,278.5 434,279.1 350,249.8 349.9,249.7 416.7,159.3 "/>
<polygon class="st0" points="349,251.5 349,251.4 349.1,251.1 349.8,251.5 350,251 350.1,250.9 433.1,279.9 432.8,280.5 
	433.1,280.6 320.4,322.9 320.4,322.9 348.9,251.5 "/>
<polygon class="st0" points="319.3,322.9 319.1,322.9 319.1,323.4 318.6,323.2 318.5,323.4 265,250.5 347.9,251.5 "/>
<polygon class="st17" points="317.9,324.4 317.9,324.4 220.9,280.3 263.9,250.7 "/>
<polygon class="st0" points="219.8,279.8 219.2,279.5 219,280 218.4,280 151.1,236.8 262.6,250.3 "/>
<polygon class="st42" points="148.9,236.5 216.5,280 77.6,280 148.1,236.5 "/>
<polygon class="st48" points="75.9,279.9 1.9,242.4 146,236.6 "/>
<polygon class="st0" points="74.7,280.6 75,281 74.6,281.3 74.8,281.5 2.6,316.2 28.2,280.5 73,281.5 73,280.5 28,279.5 28,279.5 
	27.2,279.5 1.2,243.1 74.9,280.5 "/>
<polygon class="st0" points="0,278.6 0,243.3 26,279.4 "/>
<polygon class="st3" points="0,318.1 136.8,357.3 137.1,357.7 22.2,399.9 0,328.6 "/>
<polygon class="st49" points="0,428.5 0,331.9 21.4,400.7 "/>
<polygon class="st6" points="78.3,496.3 1.5,440.7 98.7,466.6 "/>
<polygon class="st15" points="0,430.2 22,401.5 22.4,401.4 98,465.4 0,439.2 "/>
<polygon class="st34" points="99.1,465 23.1,400.6 138.3,358.3 99.1,465 "/>
<polygon class="st15" points="139.2,358.7 186.2,388.5 186,388.5 186,388.8 100.3,464.8 "/>
<polygon class="st36" points="101.8,464.7 186.7,389.5 187.7,389.5 271.7,448.2 271.6,449.1 "/>
<polygon class="st22" points="189.4,389.4 279.4,387.5 271.9,447 "/>
<polygon class="st0" points="280.2,386.3 220.2,281.1 317.4,325.3 "/>
<polygon class="st15" points="216.6,283.1 185.8,387 139.5,357.7 139.6,357.6 139.2,357.5 "/>
<polygon class="st15" points="75.4,282.3 135.7,355.9 1.8,317.7 "/>
<polygon class="st0" points="0.8,317.1 0.4,317.3 0,317.2 0,279.6 27,280.5 27,280.5 27,280.5 "/>
<polygon class="st32" points="77,281 217.2,281 217.1,281.1 138.6,356.8 137.4,356.4 76.4,281.9 77.2,281.5 77,281 "/>
<polygon class="st36" points="218.2,281.1 218.7,281.4 219,281 279.1,386.5 188,388.5 187.4,388 187.1,388.5 187.4,388 186.6,387.6 
	218,281.7 218.3,281.4 218.2,281.2 "/>
<polygon class="st37" points="280.7,387.3 318.5,325.2 318.6,325.3 319,325 319.3,325.1 389.1,474.5 "/>
<polygon class="st42" points="446.4,375.1 446,375.5 320,324.3 320,324.2 320.6,323.9 507.4,325.9 508.6,326.7 447,375.8 "/>
<polygon class="st24" points="447.6,376.6 508.8,327.8 482.1,419.5 "/>
<polygon class="st22" points="482.8,420.4 510.2,326.8 510.2,326.7 543.8,382.4 543.7,382.7 483.3,421.1 "/>
<polygon class="st4" points="544.3,383.5 544.5,383.6 544.5,383.6 544.6,383.7 545.4,383.2 545.3,382.9 545.3,382.9 544.9,382.2 
	544.9,382 618.1,446.6 484.6,421.4 "/>
<polygon class="st44" points="559.3,324.3 544.1,381 511,326.1 511.3,325.9 558.4,324 "/>
<polygon class="st0" points="509.3,325.9 509.4,325.9 509.3,326 "/>
<polygon class="st17" points="446.5,285.2 555.9,323.1 510,324.9 507.7,324.9 "/>
<polygon class="st40" points="545.3,381.1 545.1,381.4 560.1,325.1 560.4,325.3 560.5,325.2 561.1,325.7 618.6,445.7 "/>
<polygon class="st27" points="561.5,324.2 561,324.4 561,324.4 561.4,323.7 713.6,312 635.3,384.5 635,384.5 635.3,384.1 
	561.9,325.1 "/>
<polygon class="st0" points="273.1,448.5 273.1,448.5 273.1,448.5 "/>
<polygon class="st21" points="280.3,388.3 390,476.5 390.2,476.8 273.3,448 272.8,447.7 "/>
<polygon class="st0" points="436,280.5 436.2,280.5 435.8,279.5 435.3,279.7 435.3,279.3 435.3,279.4 435.5,279.3 435.9,279.2 
	435.7,279.4 439,281.6 "/>
<polygon class="st43" points="602.8,251.7 437,278 564.1,174.4 "/>
<polygon class="st50" points="603.4,253 560.8,322.8 559,322.9 559,323 558.6,323 443,282.9 437,279 603.3,252.6 "/>
<polygon class="st25" points="712.3,311.1 562,322.7 604.4,253.3 604,253 604.5,253 604.5,252.8 "/>
<polygon class="st0" points="714.2,311 605.1,252 699,205.5 699.8,205.5 700.8,206.1 714.4,311 "/>
<polygon class="st0" points="658.9,206.8 659.7,207.4 660,207 660.4,207.3 661,206.5 696.7,205.6 607.5,249.7 "/>
<polygon class="st0" points="699.8,204 698.8,204.5 661.8,205.4 729.3,114.4 "/>
<polygon class="st0" points="851.6,133.2 799.2,221.7 787.7,180.6 788.1,180.5 788,179.9 "/>
<polygon class="st48" points="931.6,257.7 932,258 931.9,258.2 800.6,222.9 911.4,178.2 911.7,178.4 912,178 912.4,178.3 
	912.7,177.9 932,257.2 "/>
<polygon class="st20" points="957.8,116.8 912.3,176.7 911.6,177 855.3,130.4 855.3,130.4 855.2,130.3 "/>
<polygon class="st27" points="1361.4,235 1361,235.7 1209.4,247.4 1287.7,174.9 1288,175 1287.7,175.4 1361.1,234.3 "/>
<polygon class="st51" points="1659.9,310.1 1659.9,310.1 1773.6,323.9 1774.6,324.5 1786.2,360.3 1723.9,406.7 1723.8,406.5 
	1724.1,406.1 1722.5,404.6 "/>
<polygon class="st17" points="1858,373.4 1787.2,360 1775.9,325.2 "/>
<polygon class="st9" points="162.2,497.3 195,532.1 136.1,535 "/>
<g>
	<path d="M1845.3,61.6L1845.3,61.6L1845,62l0.4,0.3l-0.1,0.1l74.7,57v0.6l-0.1,0.5l-94.8-26.4l75.6,64l0.4-0.1l18.9-27.4v1.8
		l-18.3,26.5l18.3,63.4v3.6l-19.1-66.3l-115.3,42.4l134.4,38.4v1.8l-63,36.8l62.8,38l0.3,0v1.3l-0.5-0.3l-143.1,5.8l-0.5,0.3
		L1861,374l-0.3,0.4l-0.1,0.4l59.3-55.5v1.4l-56.1,52.5l56.1-30.3v1.1l-59,31.9l-0.2-0.4l-0.3-0.4l0.2-0.2l-73.7-14l-62.8,46.9
		l-0.3-0.4l-0.4,0.3l-1.6-2.4l-61.1-55.3l-55.7,21.9l-0.2-0.5l-0.4,0.2l-0.1-0.3l-75.1,48.5l-0.3-0.4l-0.5-0.2l0.1-0.2l-113.6,5.9
		l0-0.5l-0.1,0.5l-86.8-21l-136,45.7l0,0.3l-0.6-0.1l-0.2,0.1l0-0.1l-121.9-19.7l-27.7,52.6l-0.4-0.2l-0.2,0.4l-76.6-38.3
		l-41.9,28.3l-0.3-0.4l-0.2,0.5l-66.7-32.4l0,0.1l0.2,0.3l-0.4,0.2l-8.4,21.6l-0.5-0.2l0,0.5l-33,2l0-0.5l0,0l-64-37.9l-0.1,0.3
		l-0.7-0.2l-96.8,70.2l-0.3-0.4l-0.4,0.3L621,448.5l-0.3,0.4l-0.6-0.5L514.2,482l-0.3-1l0.3-0.1l-30.6-57.3l1.9,59.4l0.5,0l-0.1,1
		l-94.6-6l-14.9,40.7l-0.5-0.2L376,519l-106.1-18.9l-73.8,32.5l0,0.4l-60,3l0-1l58.7-2.9l0.1-0.1l-32.7-34.7l-26.6,38.5l-0.8-0.6
		l0.2-0.3l-23-11l0.2-0.5l0,0l-0.3,0.4l-0.7-0.5L3.3,560h0l-0.2-0.5l-0.3-0.4l75-61.2l0,0l0.3-0.4l-0.4-0.3l0.1-0.1L0,440.7v-1.5
		l98,26.2l-75.6-64l-0.4,0.1L0,430.2v-1.6l21.4-27.8L0,331.9v-3.4l22.2,71.3l114.9-42.2l-0.3-0.4L0,318.1v-1l0.4,0.1l0.4-0.2
		L27,280.5l0,0l0,0l-27-0.9v-1l26,0.9L0,243.3v-1.9l58.8-55L0,218v-1.1l61.8-33.3L62,184l0.3,0.4l-0.2,0.2l73.7,13.9l62.8-46.9
		l0.3,0.4l0.4-0.3l1.6,2.4l61.1,55.2l55.7-21.9l0.2,0.5l0.4-0.2l0.1,0.3l75.2-48.5l0.3,0.4l0.5,0.2l-0.1,0.2l113.6-5.9l0,0.5l0,0
		l0.1-0.5l86.9,21L731,109.8l0-0.3l0.6,0.1l0.2-0.1l0,0.1l121.9,19.7l27.8-52.5L882,77l0.2-0.4l76.6,38.3l41.9-28.3l0.3,0.4l0.2-0.4
		l66.7,32.4l0-0.1l-0.2-0.3l0.4-0.2l8.4-21.5l0.5,0.2l0-0.5l33-2l0,0.5l0,0l64,37.8l0.1-0.3l0.7,0.2l96.9-70.2l0.3,0.4l0.4-0.3
		L1302,111l0.3-0.4l0.6,0.5l105.9-33.6l0.3,1l-0.3,0.1l30.6,57.3l-1.9-59.3l-0.5,0l0.1-1l94.6,6l14.9-40.6l0.5,0.2l0.1-0.5
		l106.1,18.8l73.8-32.5l0-0.4l60-3l0.1,1l-58.7,2.9l-0.1,0.1l32.8,34.7l26.6-38.5l0.8,0.6l-0.2,0.3l23,11L1811,36l0.3-0.4l0.7,0.5
		L1918.4,0h1.6l0,0v0.6L1845.3,61.6z M1917.6,118.8l-72.9-55.6l-20.4,29.7L1917.6,118.8z M1900,158.8l-76-64.3l0,0l-39.1,106.7
		L1900,158.8z M1413.9,233.1l-0.2,0.2l-0.1,0.3l0.2,0l-0.1-0.1L1413.9,233.1z M1413,234.5l-45.9,1.8L1484,279l0,0l-68.6-44.5
		L1413,234.5z M1288,175l-0.3-0.1l-78.3,72.5l151.6-11.7l0.4-0.8l-0.3-0.6l-73.4-58.9L1288,175z M855.3,130.4l56.3,46.6l0.7-0.3
		l45.4-59.9L855.3,130.4L855.3,130.4L855.3,130.4z M912.4,178.3L912,178l-0.3,0.4l-0.3-0.2l-110.9,44.7l131.3,35.3l0.1-0.2l-0.4-0.3
		l0.4-0.5l-19.3-79.3L912.4,178.3z M787.7,180.6l11.5,41.1l52.4-88.6L788,179.9l0.2,0.6L787.7,180.6z M698.8,204.5l1-0.5l29.6-89.6
		l-67.6,91L698.8,204.5z M661,206.5l-0.6,0.8L660,207l-0.3,0.4l-0.8-0.6l-51.3,42.9l89.1-44.1L661,206.5z M699.8,205.5l-0.8,0
		l-94,46.5l109.1,59l0.2,0l-13.6-104.8L699.8,205.5z M604,253l0.4,0.3L562,322.7l150.3-11.6l-107.8-58.3l0,0.1L604,253z M437,279
		l6,3.9L558.6,323l0.4,0l0,0l1.8-0.1l42.7-69.8l-0.2-0.4L437,279z M602.8,251.7l-38.7-77.3L437,278L602.8,251.7z M435.9,279.2
		l-0.4,0.1l-0.1,0.1l-0.1-0.1l0.1,0.4l0.5-0.2l0.4,0.9l-0.1,0.1l3,1l-3.3-2.1L435.9,279.2z M77.6,280h138.9l-67.7-43.5l-0.8,0
		L77.6,280z M146,236.6L1.9,242.4l73.9,37.4L146,236.6z M218.4,280h0.6l0.2-0.5l0.6,0.3l42.8-29.5l-111.5-13.6L218.4,280z
		 M273.3,448l116.9,28.7l-0.1-0.2l-109.7-88.2l-7.5,59.4L273.3,448z M273.1,448.5L273.1,448.5L273.1,448.5L273.1,448.5z M510,324.9
		l45.8-1.8l-109.4-37.9l61.2,39.7L510,324.9z M509.3,325.9L509.3,325.9l0.1,0L509.3,325.9z M635,384.5l0.3,0.1l78.3-72.5
		l-152.2,11.7l-0.4,0.6l0.1,0.1l0.4-0.2l0.4,0.9l73.4,59L635,384.5z M561.1,325.7l-0.6-0.5l0,0l-0.3-0.2l-15,56.3l0.3-0.3l73.2,64.6
		L561.1,325.7z M544.9,382l0,0.2l0.4,0.7l0,0l0.2,0.3l-0.9,0.5l-0.1-0.1l0,0l-0.2-0.1l-59.7,37.9l133.6,25.2L544.9,382z
		 M559.3,324.3l-0.8-0.3l-47.2,1.9l-0.3,0.2l33.1,55L559.3,324.3z M508.6,326.7l-1.2-0.8l-186.8-2l-0.6,0.2l0,0.1l126,51.2l0.4-0.3
		l0.6,0.7L508.6,326.7z M447.6,376.6l34.5,42.9l26.7-91.7L447.6,376.6z M319.3,325.1L319,325l-0.4,0.3l0-0.1l-37.8,62.1l108.4,87.1
		L319.3,325.1z M317.4,325.3l-97.2-44.2l60,105.2L317.4,325.3z M279.4,387.5l-90.1,1.9l82.5,57.6L279.4,387.5z M187.7,389.5l-1,0
		l-84.8,75.3l169.8-15.6l0.1-1L187.7,389.5z M186,388.8l0-0.3l0.2,0l-47.1-29.8l-38.9,106.1L186,388.8z M139.5,357.7l46.2,29.3
		l30.8-104l-77.3,74.4l0.3,0.1L139.5,357.7z M186.6,387.6l0.7,0.4l-0.3,0.4l0.3-0.4l0.6,0.4l91.2-1.9L219,281l-0.3,0.4l-0.5-0.3
		l0,0.1l0.2,0.2l-0.3,0.3L186.6,387.6z M220.9,280.3l97,44.1l0,0l-54-73.7L220.9,280.3z M318.5,323.4l0.2-0.3l0.4,0.3l0-0.5l0.2,0
		l28.6-71.4l-82.9-1L318.5,323.4z M320.4,322.9L320.4,322.9l112.7-42.4l-0.3-0.1l0.2-0.6l-82.9-28.9L350,251l-0.2,0.5l-0.7-0.3
		l-0.1,0.2l0,0.1l-0.1,0L320.4,322.9z M350,249.8l84.1,29.3l-0.1-0.6l0.2,0l-17.4-119.2l-66.8,90.4L350,249.8z M323.2,323l182.7,1.9
		l-63.3-41.1l-8-2.8L323.2,323z M989.9,300.4l0.1-0.5l0.8,0.2l17.3-12.7l0-0.2l-73-27.5l54.2,40.9L989,301l0.5,0.2l0.2,0l-0.2-0.7
		L989.9,300.4z M1067.6,429.1l-56.3-46.6l-0.7,0.3l-45.4,60L1067.6,429.1L1067.6,429.1L1067.6,429.1z M1010.5,381.1l0.4,0.3l0.3-0.4
		l0.3,0.2l110.8-44.8L991,301.2l-0.1,0.1l0,0.1l0.4,0.3l-0.4,0.5l19.3,79.3L1010.5,381.1z M1135.2,378.8l-11.5-41.1l-52.4,88.6
		l63.6-46.8l-0.2-0.6L1135.2,378.8z M1318.9,306.4l0.4-0.2l0.1,0.2l40.6-69l-105.7,44.2l62.9,26.1l1.3-0.6l-0.1-0.6L1318.9,306.4z
		 M1487.4,278.9l-0.1-0.5l1-0.1l0,0.2l112-42.1l-183.1-1.9l68.2,44.2l1.5-0.3l0.1,0.6L1487.4,278.9z M1487.4,280L1487.4,280l0.1,0
		l0.1,0.1l0-0.1L1487.4,280z M1783.6,201.7l-47.8-30.3l0.3-0.4l-0.3,0.4l-0.3-0.2l-31.9,106.5l80.3-75.4l0.1-0.3l-0.5-0.2
		L1783.6,201.7z M1783.9,203.7l-79.4,74.6l69.4,44.6l0.6,0l9.8-118.8L1783.9,203.7z M1704,279.1l-0.2,0.4l-0.4-0.2l-0.1,0.1l0,0
		l-43.1,29.7l111.5,13.6L1704,279.1z M1703.3,278.1l-0.3-0.1l0,0L1703.3,278.1L1703.3,278.1z M1702.3,278.8l-94.9-40.4l52,70
		L1702.3,278.8z M1605.2,235.9l0.2-0.2l0.8,1.1l96,40.9l-59.8-103.9l-37.3,61.2l0.3,0.1L1605.2,235.9z M1605.6,237.7l-1-0.4
		l-30.2,70.7l84.1,1L1605.6,237.7z M1603.7,236.8l-0.7-0.3l-113.8,42.8l83.5,29.1l0.1-0.1l0.2-0.5l0.2,0.1L1603.7,236.8z
		 M1572.5,309.8l0.1-0.3l-84-29.3l17.5,120l66.7-90.3L1572.5,309.8z M1483.9,280l-163.6,28.2l38.4,76.8l127.6-104.1L1483.9,280z
		 M1482,279.4l-117.5-42.9l-0.5,0l0,0l-2.4,0.2l-0.1,0l-41.6,70.6L1482,279.4z M1362.3,235.6L1362.3,235.6L1362.3,235.6
		L1362.3,235.6z M1253.9,280.5l0,0.1l104.5-43.7l-147.9,11.4l42.5,32.3L1253.9,280.5z M1253.1,282.1l0.2,0.1L1253.1,282.1
		L1253.1,282.1z M1253.8,282.5l0.2-0.5l-0.3,0.4l-0.2-0.2l-30.4,71.7l0,0l0.8,0l92.1-45.6L1253.8,282.5z M1226.2,353.9l35.6-0.9
		l0.6-0.8l0.4,0.3l0.3-0.4l0.8,0.6l51.3-43L1226.2,353.9z M1224.1,354.9l-1,0.5l-29.6,89.7l67.5-91.1L1224.1,354.9z M1252.3,282.4
		L1252.3,282.4l-0.3-0.6l-108,17.4l78.3,54.1L1252.3,282.4z M1142.5,299.4L1142.5,299.4l-18.3,36.5l96.5,17.6L1142.5,299.4z
		 M1143.2,298.3l-0.1-0.2l-0.1,0.2L1143.2,298.3z M1124.6,337.1l11.6,41.5l85.1-23.9L1124.6,337.1z M1141.4,299.3l-73.1-23.7
		l55.1,59.1l-0.7,0.7l-55.2-59.2l-0.4-0.2l0.1,0.5l-57.4,10.7l113.6,48.4L1141.4,299.3z M1067.9,275.2L1067.9,275.2l0.3-0.7
		l72.5,23.5l-52.2-72.4l-0.2,0L1067.9,275.2z M1088,225l-0.2-0.2l-0.3,0.1L1088,225z M992.1,300.5l125.1,33.6L1009,288L992.1,300.5z
		 M1009,287.3L1009,287.3L1009,287.3L1009,287.3z M1009.1,286.3l75.2-60.8l-150.6,32.6l75,28.2L1009.1,286.3z M835.9,335.5
		l73.4,57.8l79.9-90.7l0.1-0.3L835.9,335.5z M987.7,301.6l-72.8-29.7l-0.6,0.5L914,272l-0.2,0.5l-0.5-0.2l-77.9,62.4l0,0
		L987.7,301.6z M911.3,270.3l2.8,0.2l0,0.5l0.2-0.5l0.6,0.3l16.1-11.8l-125.1-33.6L911.3,270.3z M911,271.3l-130-9.7l53.7,72.2
		l77.5-62L911,271.3z M834.5,335.8l-0.5,0.1l-0.1-0.3l-80.8,53.2l-0.5-0.8l80.9-53.3l-117.3-21.5l36.6,76.2l0.2-0.4l100,49
		L834.5,335.8z M833.4,333.6l-53.2-71.5l0,0l-64.2,50L833.4,333.6z M798.7,223.5l-96.5-17.5l78.2,54.1L798.7,223.5z M780,261
		L780,261l-78.1-54l13.5,104.3l0,0l0,0L780,261z M798.3,222.4l-11.6-41.5l-85.1,23.9L798.3,222.4z M781.7,259.7l0.6,0.7l-0.3,0.3
		l126.2,9.4l-108.5-46.2L781.7,259.7z M915.9,271.2l71.5,29.1l-54.4-41.1l0,0.2l-0.8-0.2L915.9,271.2z M1086,224.1l0.6-0.5l0.3,0.3
		l0.1,0l-73.4-57.8l-79.9,90.6l-0.1,0.3L1086,224.1z M1086.5,225.1l-75.3,60.8l55.5-10.3l0.1-0.1l-0.1-0.1l0.2-0.1l20.7-50.4
		L1086.5,225.1z M1088.4,223.6l0.5-0.1l0.1,0.3l80.8-53.2l0.6,0.8l-81,53.3l117.3,21.5l-36.6-76.2l-0.2,0.4l-100-49L1088.4,223.6z
		 M1090,225.9l52,72.3l0.5-0.9l0.5,0.2l64.4-49.6l-0.2-0.5L1090,225.9z M1143.5,298.3l108.2-17.4l-42.6-32.4l-0.9,0.1L1143.5,298.3z
		 M1361.9,233.7l1,0.8l15-56.4l-0.3,0.3l-73.3-64.6L1361.9,233.7z M1378.1,177.4l0-0.2l-0.4-0.7l0,0l-0.2-0.3l0.9-0.5l0.1,0.1l0,0
		l0.2,0.1l59.7-37.9l-133.6-25.2L1378.1,177.4z M1363.8,235.1l0.9,0.3l47.1-1.9l0.3-0.2l-33.1-54.9L1363.8,235.1z M1414.4,232.7
		l1.3,0.8l187.5,2l-0.2-0.3L1477,184l-0.4,0.3l-0.6-0.7L1414.4,232.7z M1475.4,182.8l-34.5-42.9l-26.7,91.6L1475.4,182.8z
		 M1603.8,234.4l0.4,0.2l-0.1,0.4l0,0l37.8-62.1l-0.3-0.6l0.6-0.3L1534,85L1603.8,234.4z M1642.7,171.1l7.5-59.3l-0.5-0.3
		l-116.9-28.7l0.1,0.2L1642.7,171.1z M1643.5,173.1l-0.3,0l59.7,103.7l31.7-105.9l0.7,0.2l-84-58.6L1643.5,173.1z M1736,170.4
		l85.3-75.6l-169.8,15.6l-0.1,1L1736,170.4z M1736.8,170.9l47.1,29.8l38.9-106L1736.8,170.9z M1919.6,241.3l-134.1-38.3l-0.1,0.8
		l70.5,74.4l0.9-0.5l0.2,0.3L1919.6,241.3z M1917.9,317.1l-62.2-37.7l0.1-0.2l-0.2,0.1l0,0l0,0l-77.4,43.4L1917.9,317.1z
		 M1776.1,322.8l78.9-44.2l-69.7-73.5l-9.7,117.8L1776.1,322.8z M1787.2,360l70.9,13.4l-82.1-48.2L1787.2,360z M1722.5,404.6
		l1.6,1.5l-0.4,0.4l0.2,0.2l62.3-46.5l-11.6-35.8l-1-0.6l-113.7-13.9l-0.1,0L1722.5,404.6z M1661.3,349.2l58.2,52.7l-60.1-90.7
		L1661.3,349.2z M1660.3,349.1l-2-39.2l-83.2-1L1660,349l-0.1,0.3L1660.3,349.1z M1605.1,370.8l53.9-21.2l-84.7-40l-0.1,0.3
		L1605.1,370.8z M1603.8,370.5l-30.1-59.4l-43.8,107L1603.8,370.5z M1528.9,417.9l42.9-105l-65.1,88.1l0.1,0.5L1528.9,417.9z
		 M1527.5,418.1l-21.5-15.9l-86,21.5L1527.5,418.1z M1505.3,401.3l-17.5-119.7l-72,142.1L1505.3,401.3z M1486.3,282.3L1359.2,386
		l0.1,0.2l-0.4,0.2l0.1,0.1l55.7,37.2L1486.3,282.3z M1412.2,423.3l-53.9-36l-29,15.9L1412.2,423.3z M1328.3,402.7l29.6-16.2
		l-0.3-0.4l0.4-0.3l-38.3-76.7L1328.3,402.7z M1327.3,403.1l-8.7-93.7l-0.9-0.4l-52.9,44.3l62.4,49.7l-0.1,0.1L1327.3,403.1z
		 M1326.1,403.5l-62.2-49.6l0,0.1l-1.5,0l-69.8,94.1l-0.1,0.3L1326.1,403.5z M1191.4,448l0.3-0.4l30.3-92l-0.1-0.1l-85.3,24
		L1191.4,448z M1190.7,448.8l-54.9-68.6l-65.7,48.4l-0.4,0.7L1190.7,448.8z M1069.3,427.8l53.4-90.4L1012.4,382l56.1,46.4
		L1069.3,427.8z M1040.7,481.8l27.3-51.7l-102.9,13.6l0.1,0.2l-0.1,0.1L1040.7,481.8z M1009.5,382.6L1009.5,382.6l-19.3-79.3
		l-25.3,138.3L1009.5,382.6z M988.9,304.5l-78.8,89.4l0.2,0.1l-0.3,0.4l0.3,0.4l-0.1,0l53.4,47.6L988.9,304.5z M921.9,471.9
		l41.2-27.8l-0.4-0.2l-106.4-3.9L921.9,471.9z M855.2,439l107.4,3.9l-53.2-47.4l-54.9,43.2L855.2,439z M908.6,394.9L908.6,394.9
		l0.3-0.4l-0.4-0.3l0.1-0.1l-72.9-57.4l18.5,101.1L908.6,394.9z M845.6,462l7.9-20.1l-38.4,22L845.6,462z M813.5,463.6l40-22.8
		l-103.1-14.5L813.5,463.6z M853.8,439.8l0.1-0.3l-0.1,0l-0.4,0.1l-0.1-0.3l-100-49l0,0l0,0l-3.9,34.9L853.8,439.8z M748.5,425
		L748.5,425l3.9-34.7L717.1,317l31,108L748.5,425z M714.9,312.9l-0.6,0.5L714,313l-78.1,72.3l111.2,40L714.9,312.9z M651.1,495.8
		l95.8-69.5l-125.2,21.4L651.1,495.8z M745.1,425.6l-110-39.6l-14.5,60.8L745.1,425.6z M634.4,384.6l-71.6-57.5l57,118.8
		L634.4,384.6z M515.1,480.6l103.5-32.9l-134.5-25.4L515.1,480.6z M543.7,382.7l0.1-0.3l-33.6-55.7l-0.1,0l-27.3,93.7l0.5,0.6
		L543.7,382.7z M484.5,482.9l-1.9-60.2l-0.3,0.2l-0.2-0.3l-89.5,54.5L484.5,482.9z M391.7,476.5l90.4-55l0,0l-0.5-0.1l0.2-0.7
		l-35.3-43.9L391.7,476.5L391.7,476.5z M445.5,376.4l-124.9-50.8l70.2,150.2L445.5,376.4z M375.7,517.9l14.6-39.8l-118.4,21.4
		L375.7,517.9z M388.6,477.4l-115.1-28.3l-2.9,49.6L388.6,477.4z M269.1,499.4L269,499l0.6-0.1l2.8-48l-75.3,80.2L269.1,499.4z
		 M195.6,531.3l75.5-80.4L163,496.7L195.6,531.3z M269.9,450.3l-169,15.6l61.2,30.1L269.9,450.3z M112.5,523.2l22.8,10.9l-0.4,0.8
		l26.4-38.2l-61.3-30.2L100,467l0,0L112.5,523.2z M111.3,522.3L111.3,522.3l-12.2-54.4l-20,29.1l0.3,0.2l-0.3,0.4l0.3,0.4
		L111.3,522.3z M5.6,558.2l104.6-35.5l-31.5-24.1L5.6,558.2z M1.8,440.7l76.6,55.6l20.4-29.7L1.8,440.7z M23.1,400.6l76,64.4l0,0
		l39.1-106.7L23.1,400.6z M137.4,356.4l1.2,0.3l78.6-75.6l0-0.1H77l0,0l0.2,0.5l-0.9,0.4L137.4,356.4z M135.7,355.9l-60.2-73.6
		L1.8,317.7L135.7,355.9z M27.2,279.5l0.8,0l0,0l45,1l0,1l-44.8-1L2.6,316.2l72.1-34.7l-0.2-0.2L75,281l-0.3-0.4l0.1-0.1L1.2,243.1
		L27.2,279.5z M62,185l0.1-0.4L1.3,241.4l146-5.9l-85.5-50.1L62,185z M135.6,199.4L64.7,186l82.1,48.2L135.6,199.4z M200.3,154.8
		l-1.6-1.5l0.4-0.4l-0.2-0.2l-62.3,46.5l11.6,35.8l1,0.6L263,249.4L200.3,154.8z M261.5,210.2l-58.2-52.7l60.1,90.7L261.5,210.2z
		 M262.5,210.3l2,39.2l83.3,1l-84.9-40l0.1-0.3L262.5,210.3z M317.8,188.6l-54,21.2l84.7,39.9l0.1-0.3L317.8,188.6z M319,188.9
		l30.1,59.3l43.8-107L319,188.9z M393.9,141.6L351,246.5l65.1-88.1l-0.1-0.5L393.9,141.6z M395.4,141.4l21.5,15.9l86-21.5
		L395.4,141.4z M417.5,158.1L435,277.8l72-142.1L417.5,158.1z M436.5,277.1l127.2-103.7l-0.1-0.2l0.4-0.2l-0.1-0.1l-55.8-37.2
		L436.5,277.1z M510.6,136.1l54,36l29.1-15.9L510.6,136.1z M594.6,156.8L565,173l0.3,0.4l-0.4,0.3l38.3,76.7L594.6,156.8z
		 M595.5,156.3l8.8,94.7l53.8-45l-62.4-49.7l0.1-0.1L595.5,156.3z M596.7,155.9l62.3,49.6l0-0.1l1.5,0l69.8-94.1l0.1-0.3
		L596.7,155.9z M731.5,111.5l-0.3,0.4l-30.3,92l0.1,0.1l85.4-24L731.5,111.5z M732.2,110.7l54.9,68.6l65.8-48.4l0.4-0.7L732.2,110.7
		z M853.6,131.6L800.2,222l110.4-44.5L854.5,131L853.6,131.6z M882.2,77.7l-27.3,51.7l103-13.6l-0.1-0.2l0.1-0.1L882.2,77.7z
		 M913.5,176.9L913.5,176.9l19.4,79.3L958.1,118L913.5,176.9z M934.1,254.9l78.8-89.4l-0.2-0.1l0.3-0.4l-0.3-0.4l0.1,0L959.3,117
		L934.1,254.9z M1001,87.6l-41.2,27.8l0.4,0.2l106.4,3.9L1001,87.6z M1067.8,120.5l-107.4-3.9l53.2,47.4l54.9-43.1L1067.8,120.5z
		 M1014.3,164.6L1014.3,164.6l-0.3,0.4l0.4,0.3l-0.1,0.1l73,57.4l-18.5-101L1014.3,164.6z M1077.3,97.5l-7.9,20.1l38.4-21.9
		L1077.3,97.5z M1109.5,95.9l-40,22.8l103.1,14.4L1109.5,95.9z M1069.2,119.7l-0.1,0.3l0.1,0l0.4-0.1l0.1,0.3l100,49l0,0l0,0
		l3.9-34.9L1069.2,119.7z M1174.5,134.4L1174.5,134.4l-3.9,34.7l35.3,73.4l-31-108L1174.5,134.4z M1208.2,246.8l0.1-0.2l0.3,0.2
		l78.5-72.6l-111.2-40L1208.2,246.8z M1271.9,63.7l-95.8,69.4l125.3-21.4L1271.9,63.7z M1177.8,133.9l110,39.6l14.5-60.8
		L1177.8,133.9z M1288.6,174.8l71.6,57.4l-57-118.8L1288.6,174.8z M1407.9,78.9l-103.5,32.9l134.5,25.3L1407.9,78.9z M1379.3,176.8
		l-0.1,0.3l33.6,55.6l0.1,0l27.3-93.6l-0.5-0.6L1379.3,176.8z M1438.5,76.6l1.9,60.2l0.3-0.2l0.2,0.3l89.5-54.5L1438.5,76.6z
		 M1531.4,83l-90.4,55l0,0l0.5,0.1l-0.2,0.7l35.3,43.9L1531.4,83L1531.4,83z M1477.5,183.1l124.9,50.7l-70.2-150.2L1477.5,183.1z
		 M1547.3,41.6l-14.6,39.8L1651.2,60L1547.3,41.6z M1534.4,82.1l115.1,28.3l2.9-49.6L1534.4,82.1z M1654,60.1l0.1,0.4l-0.6,0.1
		l-2.8,48l75.3-80.1L1654,60.1z M1727.5,28.3l-75.5,80.4l108.2-45.8L1727.5,28.3z M1653.2,109.2l169-15.5L1761,63.5L1653.2,109.2z
		 M1810.6,36.3l-22.8-10.9l0.4-0.8l-26.4,38.2L1823,93l0.1-0.4l0,0L1810.6,36.3z M1811.8,37.3L1811.8,37.3l12.2,54.4l20-29.1
		l-0.3-0.2l0.3-0.4l-0.3-0.4L1811.8,37.3z M1813,36.9l31.5,24.1l73.1-59.6L1813,36.9z"/>
</g>
</svg>
