<?xml version="1.0" encoding="utf-8"?>
<!-- Generator: Adobe Illustrator 19.1.0, SVG Export Plug-In . SVG Version: 6.00 Build 0)  -->
<svg version="1.1" id="Layer_1" xmlns="http://www.w3.org/2000/svg" xmlns:xlink="http://www.w3.org/1999/xlink" x="0px" y="0px"
	 viewBox="-253 336 103.5 122" style="enable-background:new -253 336 103.5 122;" xml:space="preserve">
<style type="text/css">
	.st0{fill:#FFC70B;}
</style>
<g>
	<path class="st0" d="M-150.5,457.7H-252c-0.6,0-1-0.4-1-1v-2c0-23.2,14.3-36.2,29.8-46.9c7.2-5,13.5-8.7,18.7-11.7
		c11.6-6.8,17.4-10.2,17.3-18c-0.2-6.7-5.2-10.8-13.2-10.8c-13.8,0-16.2,10-16.6,20.9c0,0.5-0.5,1-1,1h-31.7c-0.6,0-1-0.4-1-1v-1.7
		c0-32.9,17.9-50.2,51.7-50.2c28.9,0,47.6,15.2,47.6,38.7c0,21.1-12.9,29.6-26.6,38.5c-3.9,2.6-7.9,4.9-11.9,7.1
		c-4.2,2.4-8.5,4.8-12.6,7.6c9.2-0.9,13.8-1.2,22.4-1.2l29.7-0.2c0.3,0,0.5,0.1,0.7,0.3c0.2,0.2,0.3,0.4,0.3,0.7v28.8
		C-149.5,457.2-149.9,457.7-150.5,457.7z M-251,455.7h99.8v-26.8l-28.7,0.2c-9.7,0-14.2,0.3-26,1.5c-0.4,0-0.9-0.2-1-0.6
		c-0.2-0.4,0-0.9,0.3-1.2c5-3.8,10.5-6.9,15.8-9.9c3.9-2.2,7.9-4.5,11.7-7c13.2-8.6,25.7-16.8,25.7-36.9
		c-0.1-22.3-18-36.7-45.7-36.7c-32.5,0-49.7,16.6-49.7,48.1v0.7h29.8c0.6-11,3.5-21.8,18.6-21.8c9.1,0,15,5,15.2,12.7
		c0.1,9-6.4,12.8-18.4,19.8c-5,3-11.4,6.7-18.5,11.6c-17.3,11.9-28.9,24.2-28.9,45.2C-251,454.6-251,455.7-251,455.7z"/>
</g>
</svg>
