<?xml version="1.0" encoding="utf-8"?>
<!-- Generator: Adobe Illustrator 19.1.0, SVG Export Plug-In . SVG Version: 6.00 Build 0)  -->
<svg version="1.1" id="Layer_1" xmlns="http://www.w3.org/2000/svg" xmlns:xlink="http://www.w3.org/1999/xlink" x="0px" y="0px"
	 viewBox="-435.9 346.6 104.8 120.2" style="enable-background:new -435.9 346.6 104.8 120.2;" xml:space="preserve">
<style type="text/css">
	.st0{fill:#FFC600;}
</style>
<g>
	<g>
		<path class="st0" d="M-347.6,466.8h-34.8c-0.6,0-1-0.4-1-1V441h-51.5c-0.6,0-1-0.4-1-1v-31.1c0-0.2,0.1-0.5,0.2-0.7l53.3-61.3
			c0.2-0.2,0.5-0.3,0.8-0.3h33.9c0.6,0,1,0.4,1,1V411h14.6c0.6,0,1,0.4,1,1v28c0,0.6-0.4,1-1,1h-14.6v24.8
			C-346.6,466.4-347,466.8-347.6,466.8z M-381.4,464.8h32.8V440c0-0.6,0.4-1,1-1h14.6v-26h-14.6c-0.6,0-1-0.4-1-1v-63.4h-32.5
			l-52.8,60.7V439h51.5c0.6,0,1,0.4,1,1V464.8z M-408.9,413.7c-0.4,0-0.7-0.2-0.9-0.5c-0.2-0.4-0.1-0.8,0.1-1.1l28.3-34
			c0.3-0.3,0.7-0.4,1.1-0.3c0.4,0.1,0.7,0.5,0.6,1l-0.5,10.9v22.5c0,0.6-0.4,1-1,1h-17.1c-3,0-4.9,0.1-8.8,0.4L-408.9,413.7
			L-408.9,413.7z M-381.8,381.7l-24.9,29.9c3.5-0.2,5.5-0.4,8.4-0.4h16.1v-21.5L-381.8,381.7z"/>
	</g>
</g>
</svg>
