<?xml version="1.0" encoding="utf-8"?>
<!-- Generator: Adobe Illustrator 19.1.0, SVG Export Plug-In . SVG Version: 6.00 Build 0)  -->
<svg version="1.1" id="Layer_1" xmlns="http://www.w3.org/2000/svg" xmlns:xlink="http://www.w3.org/1999/xlink" x="0px" y="0px"
	 viewBox="-272 336 66.5 122" style="enable-background:new -272 336 66.5 122;" xml:space="preserve">
<style type="text/css">
	.st0{fill:#FFC70B;}
</style>
<g>
	<path class="st0" d="M-206.6,458h-36.2c-0.6,0-1-0.4-1-1v-67.7h-27.2c-0.6,0-1-0.4-1-1V363c0-0.6,0.4-1,1-1h3.3
		c14.6,0,30.7-7.8,31.2-25c0-0.5,0.5-1,1-1h28.9c0.6,0,1,0.4,1,1v120C-205.6,457.5-206.1,458-206.6,458z M-241.8,456h34.2V338h-27
		c-1,15.3-14.5,26-33.2,26h-2.3v23.2h27.2c0.6,0,1,0.4,1,1v67.7h0.1V456z"/>
</g>
</svg>
