<?xml version="1.0" encoding="utf-8"?>
<!-- Generator: Adobe Illustrator 19.1.0, SVG Export Plug-In . SVG Version: 6.00 Build 0)  -->
<svg version="1.1" id="Layer_1" xmlns="http://www.w3.org/2000/svg" xmlns:xlink="http://www.w3.org/1999/xlink" x="0px" y="0px"
	 viewBox="-224.3 285.6 104.2 122.9" style="enable-background:new -224.3 285.6 104.2 122.9;" xml:space="preserve">
<style type="text/css">
	.st0{fill:#FFC70B;}
</style>
<g>
	<path class="st0" d="M-171.5,408.5c-33,0-52.8-16.4-52.8-44c0-0.9,0-1.9,0.2-3.4c0.1-0.5,0.5-0.9,1-0.9h32.2c0.6,0,1,0.4,1,1v1.7
		c0,10.6,5.3,15.5,16.8,15.5c10.3,0,16-4.1,16-11.4c0-7.9-5.4-11.4-17.5-11.4c-0.1,0-0.4,0-0.7,0c-1,0-2.8,0.1-5.3,0.1h-1.4
		c-0.6,0-1-0.4-1-1v-22c0-0.3,0.1-0.5,0.3-0.7c0.2-0.2,0.5-0.3,0.8-0.3c2,0.2,2.4,0.2,5.6,0.2c3.5,0,6.5,0,8.8-0.2
		c6.1-0.5,10-3.8,10-8.6c0-5.8-5.6-9.6-14.3-9.6c-10,0-15,4.4-15.1,13.3c0,0.5-0.5,1-1,1h-32c-0.3,0-0.5-0.1-0.7-0.3
		s-0.3-0.5-0.3-0.7c1.2-26.5,18.6-41.2,49.2-41.2c29.1,0,48,13.6,48,34.8c0,10.8-5.3,18.9-14.2,22c11.3,3.9,17.8,13.2,17.8,26.1
		C-120.1,398-147.8,408.5-171.5,408.5z M-222.2,362.3c-0.1,0.9-0.1,1.6-0.1,2.2c0,26.3,19,42,50.8,42c22.8,0,49.4-10,49.4-38.1
		c0-13.2-7.2-22.3-19.8-25.1c-0.5-0.1-0.8-0.5-0.8-1s0.4-0.9,0.8-1c10-1.8,16.2-9.8,16.2-21c0-19.9-18-32.8-46-32.8
		c-28.9,0.1-45.6,13.7-47.1,38.5h30c0.5-9.5,6.3-14.3,17.1-14.3c9.9,0,16.3,4.5,16.3,11.6c0,5.9-4.7,10-11.9,10.5
		c-2.4,0.2-5.5,0.2-9,0.2c-2.6,0-3.4,0-4.7-0.1v19.9h0.4c2.4,0,4.2-0.1,5.2-0.1c0.4,0,0.7,0,0.8,0c8.4,0,19.5,1.4,19.5,13.4
		c0,8.5-6.6,13.4-18,13.4c-12.7,0-18.8-5.7-18.8-17.5v-0.7L-222.2,362.3L-222.2,362.3z"/>
</g>
</svg>
