<?xml version="1.0" encoding="utf-8"?>
<!-- Generator: Adobe Illustrator 19.1.0, SVG Export Plug-In . SVG Version: 6.00 Build 0)  -->
<svg version="1.1" id="Layer_1" xmlns="http://www.w3.org/2000/svg" xmlns:xlink="http://www.w3.org/1999/xlink" x="0px" y="0px"
	 viewBox="0 0 176.1 137.1" style="enable-background:new 0 0 176.1 137.1;" xml:space="preserve">
<style type="text/css">
	.st0{fill-rule:evenodd;clip-rule:evenodd;fill:#FFC70B;}
</style>
<path class="st0" d="M175.7,23.3c-0.5,1.7-4.4,18.2-8.9,35.1c-1.3,4.7-5.3,9.5-9.1,11.7l-114,65.8c-4.5,2.6-10.2,1.1-12.8-3.4
	L1.3,81.1c-2.6-4.5-1.1-10.2,3.4-12.8l114-65.8c3.8-2.2,9.9-3.3,14.7-2c16.8,4.5,33.1,9.3,34.8,9.8c1.7,0.5,5.6,2.2,7,4.6
	C176.6,17.4,176.1,21.5,175.7,23.3z M165.5,13.7l-34.1-9.1c-3.9-1.2-8.8,0.8-10.2,1.6L7.7,71.7c-3,1.7-4,5.5-2.3,8.5l28.4,49.2
	c1.7,3,5.5,4,8.5,2.3l113.5-65.5c1.4-0.8,5.6-4.1,6.5-8.1l9.1-34.1c0,0,1.2-4.8,0-6.8C170.2,15,165.5,13.7,165.5,13.7z M146.9,41.6
	c-4.3,2.5-9.7,1-12.1-3.3s-1-9.7,3.3-12.1c4.3-2.5,9.7-1,12.1,3.3C152.7,33.8,151.2,39.2,146.9,41.6z M139.6,29
	c-2.8,1.6-3.7,5.1-2.1,7.9c1.6,2.8,5.1,3.7,7.9,2.1c2.8-1.6,3.7-5.1,2.1-7.9C145.8,28.4,142.3,27.4,139.6,29z M116.9,61.9
	c-4.1,2.4-8.6,0.4-11.9-5.3c-2.4-4.2-3.8-10.1,1.3-13c5.1-3,9.4,1.2,11.9,5.4C121.4,54.7,121,59.6,116.9,61.9z M108,46.6
	c-3,1.7-0.5,6,0.7,8.1c2.4,4.1,4.5,5.5,6.5,4.3c2-1.2,1.8-3.7-0.6-7.9C112.1,46.8,110,45.4,108,46.6z M101.5,70.8
	c-4.1,2.4-8.6,0.4-11.9-5.3c-2.4-4.2-3.8-10.1,1.3-13c5.1-3,9.4,1.2,11.9,5.4C106.1,63.5,105.6,68.4,101.5,70.8z M92.6,55.4
	c-3,1.7-0.5,6,0.7,8.1c2.4,4.1,4.5,5.5,6.5,4.3c2-1.2,1.8-3.7-0.6-7.9C96.7,55.6,94.7,54.2,92.6,55.4z M86.2,79.6
	c-4.1,2.4-8.6,0.4-11.9-5.3c-2.4-4.2-3.8-10.1,1.3-13c5.1-3,9.4,1.2,11.9,5.4C90.7,72.4,90.3,77.3,86.2,79.6z M77.3,64.3
	c-3,1.7-0.5,6,0.7,8.1c2.4,4.1,4.5,5.5,6.5,4.3c2-1.2,1.8-3.7-0.6-7.9C81.4,64.5,79.4,63.1,77.3,64.3z M64.7,75.6
	c3.4-2,7.1-1,9.1,2.6c2.2,3.8,0.9,8.1-3,10.4c-3.6,2.1-7.4,1.7-9.8-1.8l3.6-2.1c1.1,1.5,2.9,1.9,4.5,0.9c1.8-1,2.3-3.2,1.1-5.2
	c-1.2-2-3.1-2.6-5-1.5c-1.2,0.7-1.7,1.6-1.8,3l-3.3,1.9l-4-10.9l10-5.8l1.8,3.1l-7.3,4.2l1.6,4.3C62.5,77.4,63.3,76.4,64.7,75.6z
	 M55.1,88.4c0.4,0.7,0.2,1.5-0.5,1.9L44.8,96c-0.1,1,0,2,0.5,2.9c1.2,2.1,3.9,2.8,6,1.6c2.5-1.4,2.2-3.4,2.2-3.4
	c0-0.5,0.2-1,0.7-1.2c0.7-0.4,1.5-0.2,1.9,0.5c0.2,0.4,0.2,0.8,0.2,0.9c-0.2,2.3-1.4,4.5-3.6,5.7c-3.4,2-7.8,0.8-9.8-2.7
	c-0.5-0.8-0.8-1.8-0.9-2.7l-2.8,1.6c-0.7,0.4-1.5,0.2-1.9-0.5c-0.4-0.7-0.2-1.5,0.5-1.9l4.6-2.6c0.3-1,0.8-2.3,1.2-3.6l-7,4.1
	c-0.7,0.4-1.5,0.2-1.9-0.5c-0.4-0.7-0.2-1.5,0.5-1.9l9.8-5.6c0.1-0.2,0.1-0.4,0.2-0.5c0.4-1.2,0.4-2.5-0.3-3.7
	c-1.2-2.1-3.9-2.8-6-1.6c-2.5,1.4-2.2,3.4-2.2,3.4c0,0.5-0.2,1-0.7,1.2c-0.7,0.4-1.5,0.2-1.9-0.5c-0.2-0.4-0.2-0.8-0.2-0.9
	c0.2-2.3,1.4-4.5,3.6-5.7c3.4-2,7.8-0.8,9.8,2.6c0.7,1.2,1,2.5,1,3.8l2.4-1.4c0.7-0.4,1.5-0.2,1.9,0.5c0.4,0.7,0.2,1.5-0.5,1.9
	l-4.7,2.7c-0.3,1-0.8,2.3-1.2,3.6l7.2-4.1C53.9,87.5,54.8,87.7,55.1,88.4z"/>
</svg>
