<?xml version="1.0" encoding="utf-8"?>
<!-- Generator: Adobe Illustrator 19.1.0, SVG Export Plug-In . SVG Version: 6.00 Build 0)  -->
<svg version="1.1" id="Layer_1" xmlns="http://www.w3.org/2000/svg" xmlns:xlink="http://www.w3.org/1999/xlink" x="0px" y="0px"
	 viewBox="0 0 87 86" style="enable-background:new 0 0 87 86;" xml:space="preserve">
<style type="text/css">
	.st0{fill-rule:evenodd;clip-rule:evenodd;fill:#FFC810;}
</style>
<path class="st0" d="M80.8,86H6.2C2.8,86,0,83.2,0,79.8V15.1c0-3.4,2.8-6.2,6.2-6.2h5V6.2c0-3.4,2.8-6.2,6.2-6.2h0.3
	c3.4,0,6.2,2.8,6.2,6.2v2.8h37.5V6.2c0-3.4,2.8-6.2,6.2-6.2h0.3C71.2,0,74,2.8,74,6.2v2.8h6.8c3.4,0,6.2,2.8,6.2,6.2v64.7
	C87,83.2,84.2,86,80.8,86z M20.4,6.2c0-1.5-1.2-2.8-2.8-2.8s-2.8,1.2-2.8,2.8v9.2c0,1.5,1.2,2.8,2.8,2.8s2.8-1.2,2.8-2.8V6.2z
	 M70.6,6.2c0-1.5-1.2-2.8-2.8-2.8c-1.5,0-2.8,1.2-2.8,2.8v9.2c0,1.5,1.2,2.8,2.8,2.8c1.5,0,2.8-1.2,2.8-2.8V6.2z M83.3,14.2
	c0-0.9-0.7-1.5-1.5-1.5H74v2.8c0,3.4-2.8,6.2-6.2,6.2h-0.3c-3.4,0-6.2-2.8-6.2-6.2v-2.8H23.8v2.8c0,3.4-2.8,6.2-6.2,6.2h-0.3
	c-3.4,0-6.2-2.8-6.2-6.2v-2.8H5.6c-0.9,0-1.5,0.7-1.5,1.5v9.6h79.3V14.2z M83.3,27.4H4v53.6c0,0.9,0.7,1.5,1.5,1.5h76.2
	c0.9,0,1.5-0.7,1.5-1.5V27.4z M59.4,69.7h-6.5v-7.1H41.5V57l10.2-17h7.4L48.9,57h4.3v-5.2h6.5v4.9h3.1v6.2h-3.4V69.7z M29.4,45.9
	h-5.3v-5.5h11.8v29.3h-6.5V45.9z"/>
</svg>
