<?xml version="1.0" encoding="utf-8"?>
<!-- Generator: Adobe Illustrator 19.1.0, SVG Export Plug-In . SVG Version: 6.00 Build 0)  -->
<svg version="1.1" id="Layer_1" xmlns="http://www.w3.org/2000/svg" xmlns:xlink="http://www.w3.org/1999/xlink" x="0px" y="0px"
	 viewBox="-252 301.6 105.6 191.4" style="enable-background:new -252 301.6 105.6 191.4;" xml:space="preserve">
<style type="text/css">
	.st0{fill:#FFC600;}
</style>
<g>
	<g>
		<g>
			<path class="st0" d="M-238.5,493c-7.7,0-13-4.7-13.5-12c0-0.3,0.1-0.6,0.3-0.8c0.2-0.2,0.5-0.3,0.7-0.3h8.2
				c0.4,0,0.7,0.2,0.9,0.6v-5.9c0-0.6,0.4-1,1-1h5.7c-0.7-1.3-1.8-2-3.3-2c-1.8,0-2.9,0.8-3.3,2.4c-0.1,0.4-0.5,0.7-1,0.7h-8
				c-0.3,0-0.6-0.1-0.7-0.3c-0.2-0.2-0.3-0.5-0.2-0.8c0.7-6.5,6.1-11,13.1-11c8.5,0,14.7,6.4,14.7,15.1
				C-223.9,486.7-229.9,493-238.5,493z M-249.9,481.8c1,6.7,6.5,9.1,11.4,9.1c7.4,0,12.6-5.4,12.6-13.2c0-7.6-5.3-13.1-12.7-13.1
				c-5.5,0-9.9,3.3-11,8.1h6.1c0.8-2.1,2.5-3.2,5-3.2c2.8,0,4.8,1.7,5.7,4.7c0.1,0.3,0,0.6-0.2,0.9c-0.2,0.3-0.5,0.4-0.8,0.4h-6.2v4
				h6.3c0.3,0,0.6,0.1,0.8,0.4s0.3,0.5,0.2,0.8c-0.8,3.3-3,5.3-5.9,5.3c-2.6,0-4.4-1.5-5.1-4.1h-6.2V481.8z M-241.7,481
				c0.4,2,1.5,2.9,3.3,2.9c2,0,3-1.3,3.5-2.5h-6C-241.2,481.5-241.6,481.3-241.7,481z"/>
			<path class="st0" d="M-207.3,492.3h-8.3c-0.6,0-1-0.4-1-1v-19.1h-6.6c-0.6,0-1-0.4-1-1v-6.9c0-0.6,0.4-1,1-1h23.4
				c0.6,0,1,0.4,1,1v6.9c0,0.6-0.4,1-1,1h-6.6v19.1C-206.3,491.9-206.7,492.3-207.3,492.3z M-214.5,490.3h6.3v-19.1c0-0.6,0.4-1,1-1
				h6.6v-4.9h-21.5v4.9h6.6c0.6,0,1,0.4,1,1V490.3z"/>
			<path class="st0" d="M-173.7,492.3h-8.4c-0.4,0-0.8-0.3-0.9-0.7l-1.1-3.2h-7.3l-1.1,3.2c-0.1,0.4-0.5,0.7-0.9,0.7h-8.4
				c-0.3,0-0.6-0.2-0.8-0.4c-0.2-0.3-0.2-0.6-0.1-0.9l10-27c0.1-0.4,0.5-0.7,0.9-0.7h8.2c0.4,0,0.8,0.3,0.9,0.7l10,27
				c0.1,0.3,0.1,0.6-0.1,0.9C-173.1,492.2-173.4,492.3-173.7,492.3z M-181.4,490.3h6.3l-9.2-25h-6.8l-9.3,25h6.3l1.1-3.2
				c0.1-0.4,0.5-0.7,0.9-0.7h8.7c0.4,0,0.8,0.3,0.9,0.7L-181.4,490.3z M-185.2,482.7h-5.1c-0.3,0-0.6-0.2-0.8-0.4
				c-0.2-0.3-0.2-0.6-0.1-0.9c0.9-2.7,1.5-4.6,1.5-4.6c0.5-1.7,0.7-2.3,1.1-4.1c0.1-0.4,0.5-0.8,1-0.8l0,0c0.5,0,0.9,0.3,1,0.8
				l0.1,0.5c0.3,1.4,0.4,1.9,0.9,3.5c0,0,0.9,3.1,1.4,4.6c0.1,0.3,0,0.6-0.1,0.9C-184.6,482.5-184.9,482.7-185.2,482.7z M-189,480.7
				h2.3c-0.5-1.5-1-3.3-1-3.3c0-0.1-0.1-0.3-0.1-0.4c0,0.1-0.1,0.3-0.1,0.4C-187.9,477.4-188.3,478.7-189,480.7z"/>
			<path class="st0" d="M-147.4,492.3h-8.3c-0.6,0-1-0.4-1-1v-19.1h-5.8v19.1c0,0.6-0.4,1-1,1h-8.3c-0.6,0-1-0.4-1-1v-27
				c0-0.6,0.4-1,1-1h24.4c0.6,0,1,0.4,1,1v27C-146.4,491.9-146.8,492.3-147.4,492.3z M-154.7,490.3h6.3v-25h-22.4v25h6.3v-19.1
				c0-0.6,0.4-1,1-1h7.8c0.6,0,1,0.4,1,1V490.3z"/>
		</g>
	</g>
	<g>
		<path class="st0" d="M-163.4,423.2h-34.8c-0.6,0-1-0.4-1-1v-24.8h-51.5c-0.6,0-1-0.4-1-1v-31.1c0-0.2,0.1-0.5,0.2-0.7l53.3-61.3
			c0.2-0.2,0.5-0.3,0.8-0.3h33.9c0.6,0,1,0.4,1,1v63.4h14.6c0.6,0,1,0.4,1,1v28c0,0.6-0.4,1-1,1h-14.6v24.8
			C-162.4,422.8-162.8,423.2-163.4,423.2z M-197.2,421.2h32.8v-24.8c0-0.6,0.4-1,1-1h14.6v-26h-14.6c-0.6,0-1-0.4-1-1V305h-32.5
			l-52.8,60.7v29.7h51.5c0.6,0,1,0.4,1,1V421.2z M-224.7,370.1c-0.4,0-0.7-0.2-0.9-0.5c-0.2-0.4-0.1-0.8,0.1-1.1l28.3-34
			c0.3-0.3,0.7-0.4,1.1-0.3s0.7,0.5,0.6,1l-0.5,10.9l0,22.5c0,0.6-0.4,1-1,1h-17.1c-3,0-4.9,0.1-8.8,0.4L-224.7,370.1
			C-224.7,370.1-224.7,370.1-224.7,370.1z M-197.6,338.1l-24.9,29.9c3.5-0.2,5.5-0.4,8.4-0.4h16.1v-21.5L-197.6,338.1z"/>
	</g>
</g>
</svg>
