<?xml version="1.0" encoding="utf-8"?>
<!-- Generator: Adobe Illustrator 19.1.0, SVG Export Plug-In . SVG Version: 6.00 Build 0)  -->
<svg version="1.1" id="Layer_1" xmlns="http://www.w3.org/2000/svg" xmlns:xlink="http://www.w3.org/1999/xlink" x="0px" y="0px"
	 viewBox="0 0 106 191.4" style="enable-background:new 0 0 106 191.4;" xml:space="preserve">
<style type="text/css">
	.st0{fill:#FFFFFF;}
</style>
<g>
	<path class="st0" d="M13.6,191.4c-7.7,0-13-4.7-13.6-12c0-0.3,0.1-0.6,0.3-0.8c0.2-0.2,0.5-0.3,0.7-0.3h8.2c0.4,0,0.7,0.2,0.9,0.6
		v-5.9c0-0.6,0.4-1,1-1h5.7c-0.7-1.3-1.8-2-3.3-2c-1.8,0-2.9,0.8-3.3,2.4c-0.1,0.4-0.5,0.7-1,0.7H1.2c-0.3,0-0.6-0.1-0.7-0.3
		c-0.2-0.2-0.3-0.5-0.2-0.8C1,165.5,6.4,161,13.4,161c8.6,0,14.8,6.4,14.8,15.1C28.2,185.1,22.2,191.4,13.6,191.4z M2.1,180.2
		c1,6.7,6.5,9.1,11.5,9.1c7.4,0,12.6-5.4,12.6-13.2c0-7.6-5.4-13.1-12.8-13.1c-5.6,0-10,3.3-11.1,8.1h6.2c0.8-2.1,2.6-3.2,5-3.2
		c2.8,0,4.8,1.7,5.7,4.7c0.1,0.3,0,0.6-0.2,0.9c-0.2,0.3-0.5,0.4-0.8,0.4h-6.2v4h6.4c0.3,0,0.6,0.1,0.8,0.4c0.2,0.2,0.3,0.6,0.2,0.8
		c-0.8,3.3-3,5.3-5.9,5.3c-2.6,0-4.4-1.5-5.2-4.1H2.1z M10.3,179.4c0.4,2,1.5,3,3.3,3c2,0,3-1.3,3.5-2.5h-6
		C10.8,179.9,10.5,179.7,10.3,179.4z"/>
	<path class="st0" d="M44.9,190.7h-8.3c-0.6,0-1-0.4-1-1v-19.1H29c-0.6,0-1-0.4-1-1v-6.9c0-0.6,0.4-1,1-1h23.5c0.6,0,1,0.4,1,1v6.9
		c0,0.6-0.4,1-1,1h-6.6v19.1C45.9,190.3,45.5,190.7,44.9,190.7z M37.6,188.7h6.3v-19.1c0-0.6,0.4-1,1-1h6.6v-4.9H30v4.9h6.6
		c0.6,0,1,0.4,1,1V188.7z"/>
	<path class="st0" d="M78.6,190.7h-8.4c-0.4,0-0.8-0.3-0.9-0.7l-1.1-3.2h-7.3l-1.1,3.2c-0.1,0.4-0.5,0.7-0.9,0.7h-8.4
		c-0.3,0-0.6-0.2-0.8-0.4c-0.2-0.3-0.2-0.6-0.1-0.9l10-27c0.1-0.4,0.5-0.7,0.9-0.7h8.2c0.4,0,0.8,0.3,0.9,0.7l10,27
		c0.1,0.3,0.1,0.6-0.1,0.9C79.2,190.6,78.9,190.7,78.6,190.7z M70.9,188.7h6.3l-9.3-25h-6.8l-9.3,25h6.3l1.1-3.2
		c0.1-0.4,0.5-0.7,0.9-0.7h8.7c0.4,0,0.8,0.3,0.9,0.7L70.9,188.7z M67,181.1h-5.1c-0.3,0-0.6-0.2-0.8-0.4c-0.2-0.3-0.2-0.6-0.1-0.9
		c0.9-2.7,1.5-4.6,1.5-4.6c0.5-1.6,0.7-2.2,1.1-4.1c0.1-0.4,0.5-0.8,1-0.8c0,0,0,0,0,0c0.5,0,0.9,0.3,1,0.8l0.1,0.5
		c0.3,1.4,0.4,1.9,0.9,3.5l0,0c0,0,1,3.1,1.4,4.6c0.1,0.3,0,0.6-0.1,0.9S67.3,181.1,67,181.1z M63.3,179.1h2.4c-0.5-1.5-1-3.3-1-3.3
		c0-0.1-0.1-0.3-0.1-0.4c0,0.1-0.1,0.3-0.1,0.5C64.3,175.8,63.9,177.1,63.3,179.1z"/>
	<path class="st0" d="M105,190.7h-8.3c-0.6,0-1-0.4-1-1v-19.1h-5.9v19.1c0,0.6-0.4,1-1,1h-8.4c-0.6,0-1-0.4-1-1v-27c0-0.6,0.4-1,1-1
		H105c0.6,0,1,0.4,1,1v27C106,190.3,105.6,190.7,105,190.7z M97.7,188.7h6.3v-25H81.5v25h6.4v-19.1c0-0.6,0.4-1,1-1h7.9
		c0.6,0,1,0.4,1,1V188.7z"/>
	<path class="st0" d="M77.9,120.2H42.2c-0.6,0-1-0.4-1-1V52.5H14.4c-0.6,0-1-0.4-1-1V26.6c0-0.6,0.4-1,1-1h3.3
		c14.4,0,30.2-7.7,30.7-24.6c0-0.5,0.5-1,1-1h28.5c0.6,0,1,0.4,1,1v118.2C78.9,119.7,78.4,120.2,77.9,120.2z M43.2,118.2h33.7V2
		H50.3c-1,15.1-14.3,25.6-32.7,25.6h-2.3v22.9h26.8c0.6,0,1,0.4,1,1V118.2z"/>
</g>
</svg>
