<?xml version="1.0" encoding="utf-8"?>
<!-- Generator: Adobe Illustrator 19.1.0, SVG Export Plug-In . SVG Version: 6.00 Build 0)  -->
<svg version="1.1" id="Layer_1" xmlns="http://www.w3.org/2000/svg" xmlns:xlink="http://www.w3.org/1999/xlink" x="0px" y="0px"
	 viewBox="0 0 135.8 73.3" style="enable-background:new 0 0 135.8 73.3;" xml:space="preserve">
<style type="text/css">
	.st0{fill-rule:evenodd;clip-rule:evenodd;fill:none;}
	.st1{fill-rule:evenodd;clip-rule:evenodd;fill:#FFC70B;}
</style>
<g>
	<path class="st0" d="M831.9-759.7c-37.5,0-67.9-16.4-67.9-36.6c0-20.2,30.4-36.6,67.9-36.6s67.9,16.4,67.9,36.6
		C899.8-776.1,869.4-759.7,831.9-759.7z M831.8-830.4c-35.9,0-65,15.2-65,34s29.1,34,65,34c35.9,0,65-15.2,65-34
		S867.7-830.4,831.8-830.4z M862.3-786c-1.6,0-9.7-0.3-9.7-0.3l-1.8,10.2h-3.3l5.9-33.3c0,0,11-0.1,12.5-0.1c3,0,13.3,1.1,11.8,12.5
		C876.8-789.7,870.2-786.2,862.3-786z M866.8-806.9c-1.5-0.1-10.5,0-10.5,0l-3,17.7c0,0,7.7,0.3,9.3,0.3c2.4,0,10.9-1.3,12-8.4
		C876-805.8,868.4-806.8,866.8-806.9z M845.1-786h-3.7l3.2-17.2c0.3-2-1.9-3.7-3.9-3.7c-1.2,0-11.6,0.3-11.6,0.3l-3.9,20.6h-4.3
		l6.7-34l4-0.2l-2,10.6c0,0,10.3-0.2,12.5-0.3c2.2-0.1,2.8,0.4,3.9,1.1c0.8,0.6,1.7,1.6,2.2,3c0.4,1.4,0.2,3.1-0.2,5L845.1-786z
		 M803.2-786c-1.6,0-9.7-0.3-9.7-0.3l-1.8,10.2h-3.3l5.9-33.3c0,0,11-0.1,12.5-0.1c3,0,13.3,1.1,11.8,12.5
		C817.7-789.7,811.1-786.2,803.2-786z M807.7-806.9c-1.5-0.1-10.5,0-10.5,0l-3,17.7c0,0,7.7,0.3,9.3,0.3c2.4,0,10.9-1.3,12-8.4
		C816.9-805.8,809.2-806.8,807.7-806.9z"/>
</g>
<g>
	<path class="st1" d="M67.9,73.3C30.4,73.3,0,56.9,0,36.6S30.4,0,67.9,0s67.9,16.4,67.9,36.6S105.4,73.3,67.9,73.3z M67.8,2.6
		c-35.9,0-65,15.2-65,34s29.1,34,65,34c35.9,0,65-15.2,65-34S103.7,2.6,67.8,2.6z M98.3,47c-1.6,0-9.7-0.3-9.7-0.3l-1.8,10.2h-3.3
		l5.9-33.3c0,0,11-0.1,12.5-0.1c3,0,13.3,1.1,11.8,12.5C112.8,43.3,106.2,46.8,98.3,47z M102.8,26.1c-1.5-0.1-10.5,0-10.5,0l-3,17.7
		c0,0,7.7,0.3,9.3,0.3c2.4,0,10.9-1.3,12-8.4C112,27.2,104.4,26.2,102.8,26.1z M81.1,47h-3.7l3.2-17.2c0.3-2-1.9-3.7-3.9-3.7
		c-1.2,0-11.6,0.3-11.6,0.3L61.2,47h-4.3l6.7-34l4-0.2l-2,10.6c0,0,10.3-0.2,12.5-0.3s2.8,0.4,3.9,1.1c0.8,0.6,1.7,1.6,2.2,3
		c0.4,1.4,0.2,3.1-0.2,5L81.1,47z M39.2,47c-1.6,0-9.7-0.3-9.7-0.3l-1.8,10.2h-3.3l5.9-33.3c0,0,11-0.1,12.5-0.1
		c3,0,13.3,1.1,11.8,12.5C53.7,43.3,47.1,46.8,39.2,47z M43.7,26.1c-1.5-0.1-10.5,0-10.5,0l-3,17.7c0,0,7.7,0.3,9.3,0.3
		c2.4,0,10.9-1.3,12-8.4C52.9,27.2,45.2,26.2,43.7,26.1z"/>
</g>
</svg>
