<?xml version="1.0" encoding="utf-8"?>
<!-- Generator: Adobe Illustrator 19.1.0, SVG Export Plug-In . SVG Version: 6.00 Build 0)  -->
<svg version="1.1" id="Layer_1" xmlns="http://www.w3.org/2000/svg" xmlns:xlink="http://www.w3.org/1999/xlink" x="0px" y="0px"
	 viewBox="0 0 89 89" style="enable-background:new 0 0 89 89;" xml:space="preserve">
<style type="text/css">
	.st0{fill-rule:evenodd;clip-rule:evenodd;fill:#FFC70B;}
</style>
<g>
	<path class="st0" d="M44.5,89C19.9,89,0,69,0,44.5S19.9,0,44.5,0S89,19.9,89,44.5S69,89,44.5,89z M85.6,44.5c0-7-1.8-13.7-4.9-19.4
		c0.4,3.6,0.5,8.8-1.2,14c-2.3,7.1-3.7,10.5-4.4,12.9c-0.7,2.1-5.3,15.4-9.8,28C77.4,72.8,85.6,59.6,85.6,44.5z M57.9,83.3
		c-4-11-11.7-32.1-12.2-33.5c-0.3-0.7-0.4-1.5-0.6-1.5c-0.2,0-0.5,0.7-0.6,1.2c-0.7,2.1-9,26.2-11.9,34.3c3.8,1.1,7.7,1.7,11.9,1.7
		C49.2,85.6,53.7,84.8,57.9,83.3z M25.9,81.1c-6.3-17.4-15.6-43-18.1-49.7c-0.3-0.8-0.7-1.8-1.2-2.9c-2.1,4.9-3.2,10.3-3.2,15.9
		C3.4,60.5,12.6,74.4,25.9,81.1z M10.5,21.4c5.3,0,12-0.3,12-0.3c3.7-0.5,3.1,3.3,0.9,3.3l-3.1,0.3c-0.7,0-1.4,0.3-1.3,0.9
		c0.2,0.9,0.6,1.7,0.8,2.4c3.5,10.2,11.1,33,13.7,40.6c0.3,0.8,0.5,0.7,0.9,0c1.4-4.6,6.9-20.4,8.4-25c0.2-0.6,0.1-1.5-0.2-2.5
		C42,39.4,38,28.9,37.4,26.9c-0.5-1.5-0.8-2.1-1.5-2.1c0,0-2.5-0.3-3.7-0.4c-1.5,0.3-2-3.3,0-3.2c0,0,5.6,0.4,11.1,0.4
		c5.8,0,11.5-0.3,11.5-0.3c2,0,2,3.1,0.2,3.1l-4.2,0.4c-0.4,0-0.5,0.2-0.5,0.7c0,0.2,0.3,1,0.8,2.3c1.6,5.1,11.1,33.4,13.3,40
		c0.3,0.7,0.5,1,0.7,1c0.1,0,0.4-0.2,0.5-0.6c0.6-2.1,4.3-14.5,5.6-18.8c2.8-8.8,0.2-14.8-2-18.2c-2.1-3.3-4.9-7.6-3.9-11.9
		c0.9-3.8,3.6-5.1,6.4-5.6C64.3,7.3,54.9,3.4,44.5,3.4C30.3,3.4,17.9,10.5,10.5,21.4z"/>
</g>
</svg>
