<?xml version="1.0" encoding="utf-8"?>
<!-- Generator: Adobe Illustrator 19.1.0, SVG Export Plug-In . SVG Version: 6.00 Build 0)  -->
<svg version="1.1" id="Layer_1" xmlns="http://www.w3.org/2000/svg" xmlns:xlink="http://www.w3.org/1999/xlink" x="0px" y="0px"
	 viewBox="0 0 105.6 191.4" style="enable-background:new 0 0 105.6 191.4;" xml:space="preserve">
<style type="text/css">
	.st0{fill:#FFFFFF;}
</style>
<g>
	<g>
		<path class="st0" d="M13.5,191.4c-7.7,0-13-4.7-13.5-12c0-0.3,0.1-0.6,0.3-0.8c0.2-0.2,0.5-0.3,0.7-0.3h8.2c0.4,0,0.7,0.2,0.9,0.6
			v-5.9c0-0.6,0.4-1,1-1h5.7c-0.7-1.3-1.8-2-3.3-2c-1.8,0-2.9,0.8-3.3,2.4c-0.1,0.4-0.5,0.7-1,0.7H1.2c-0.3,0-0.6-0.1-0.7-0.3
			c-0.2-0.2-0.3-0.5-0.2-0.8C1,165.5,6.4,161,13.4,161c8.5,0,14.7,6.4,14.7,15.1C28.1,185.1,22.1,191.4,13.5,191.4z M2.1,180.2
			c1,6.7,6.5,9.1,11.4,9.1c7.4,0,12.6-5.4,12.6-13.2c0-7.6-5.3-13.1-12.7-13.1c-5.5,0-9.9,3.3-11,8.1h6.1c0.8-2.1,2.5-3.2,5-3.2
			c2.8,0,4.8,1.7,5.7,4.7c0.1,0.3,0,0.6-0.2,0.9c-0.2,0.3-0.5,0.4-0.8,0.4h-6.2v4h6.3c0.3,0,0.6,0.1,0.8,0.4s0.3,0.5,0.2,0.8
			c-0.8,3.3-3,5.3-5.9,5.3c-2.6,0-4.4-1.5-5.1-4.1H2.1z M10.3,179.4c0.4,2,1.5,2.9,3.3,2.9c2,0,3-1.3,3.5-2.5h-6
			C10.8,179.9,10.4,179.7,10.3,179.4z"/>
		<path class="st0" d="M44.7,190.7h-8.3c-0.6,0-1-0.4-1-1v-19.1h-6.6c-0.6,0-1-0.4-1-1v-6.9c0-0.6,0.4-1,1-1h23.4c0.6,0,1,0.4,1,1
			v6.9c0,0.6-0.4,1-1,1h-6.6v19.1C45.7,190.3,45.3,190.7,44.7,190.7z M37.5,188.7h6.3v-19.1c0-0.6,0.4-1,1-1h6.6v-4.9H29.9v4.9h6.6
			c0.6,0,1,0.4,1,1V188.7z"/>
		<path class="st0" d="M78.3,190.7h-8.4c-0.4,0-0.8-0.3-0.9-0.7l-1.1-3.2h-7.3l-1.1,3.2c-0.1,0.4-0.5,0.7-0.9,0.7h-8.4
			c-0.3,0-0.6-0.2-0.8-0.4c-0.2-0.3-0.2-0.6-0.1-0.9l10-27c0.1-0.4,0.5-0.7,0.9-0.7h8.2c0.4,0,0.8,0.3,0.9,0.7l10,27
			c0.1,0.3,0.1,0.6-0.1,0.9C78.9,190.6,78.6,190.7,78.3,190.7z M70.6,188.7h6.3l-9.2-25h-6.8l-9.3,25h6.3l1.1-3.2
			c0.1-0.4,0.5-0.7,0.9-0.7h8.7c0.4,0,0.8,0.3,0.9,0.7L70.6,188.7z M66.8,181.1h-5.1c-0.3,0-0.6-0.2-0.8-0.4
			c-0.2-0.3-0.2-0.6-0.1-0.9c0.9-2.7,1.5-4.6,1.5-4.6c0.5-1.7,0.7-2.3,1.1-4.1c0.1-0.4,0.5-0.8,1-0.8c0,0,0,0,0,0
			c0.5,0,0.9,0.3,1,0.8l0.1,0.5c0.3,1.4,0.4,1.9,0.9,3.5c0,0,0.9,3.1,1.4,4.6c0.1,0.3,0,0.6-0.1,0.9
			C67.4,180.9,67.1,181.1,66.8,181.1z M63,179.1h2.3c-0.5-1.5-1-3.3-1-3.3c0-0.1-0.1-0.3-0.1-0.4c0,0.1-0.1,0.3-0.1,0.4
			C64.1,175.8,63.7,177.1,63,179.1z"/>
		<path class="st0" d="M104.6,190.7h-8.3c-0.6,0-1-0.4-1-1v-19.1h-5.8v19.1c0,0.6-0.4,1-1,1h-8.3c-0.6,0-1-0.4-1-1v-27
			c0-0.6,0.4-1,1-1h24.4c0.6,0,1,0.4,1,1v27C105.6,190.3,105.2,190.7,104.6,190.7z M97.3,188.7h6.3v-25H81.2v25h6.3v-19.1
			c0-0.6,0.4-1,1-1h7.8c0.6,0,1,0.4,1,1V188.7z"/>
	</g>
	<path class="st0" d="M53.5,122.9c-33,0-52.8-16.4-52.8-44c0-0.9,0-1.9,0.2-3.4c0.1-0.5,0.5-0.9,1-0.9h32.2c0.6,0,1,0.4,1,1v1.7
		c0,10.6,5.3,15.5,16.8,15.5c10.3,0,16-4.1,16-11.4c0-7.9-5.4-11.4-17.5-11.4c-0.1,0-0.4,0-0.7,0c-1,0-2.8,0.1-5.3,0.1H43
		c-0.6,0-1-0.4-1-1v-22c0-0.3,0.1-0.5,0.3-0.7c0.2-0.2,0.5-0.3,0.8-0.3c2,0.2,2.4,0.2,5.6,0.2c3.5,0,6.5,0,8.8-0.2
		c6.1-0.5,10-3.8,10-8.6c0-5.8-5.6-9.6-14.3-9.6c-10,0-15,4.4-15.1,13.3c0,0.5-0.5,1-1,1H5.1c-0.3,0-0.5-0.1-0.7-0.3
		s-0.3-0.5-0.3-0.7C5.3,14.7,22.7,0,53.3,0c29.1,0,48,13.6,48,34.8c0,10.8-5.3,18.9-14.2,22c11.3,3.9,17.8,13.2,17.8,26.1
		C104.9,112.4,77.2,122.9,53.5,122.9z M2.8,76.7c-0.1,0.9-0.1,1.6-0.1,2.2c0,26.3,19,42,50.8,42c22.8,0,49.4-10,49.4-38.1
		c0-13.2-7.2-22.3-19.8-25.1c-0.5-0.1-0.8-0.5-0.8-1c0-0.5,0.4-0.9,0.8-1c10-1.8,16.2-9.8,16.2-21c0-19.9-18-32.8-46-32.8
		C24.4,2,7.7,15.6,6.2,40.4h30c0.5-9.5,6.3-14.3,17.1-14.3c9.9,0,16.3,4.5,16.3,11.6c0,5.9-4.7,10-11.9,10.5c-2.4,0.2-5.5,0.2-9,0.2
		c-2.6,0-3.4,0-4.7-0.1v19.9h0.4c2.4,0,4.2-0.1,5.2-0.1c0.4,0,0.7,0,0.8,0c8.4,0,19.5,1.4,19.5,13.4c0,8.5-6.6,13.4-18,13.4
		c-12.7,0-18.8-5.7-18.8-17.5v-0.7H2.8z"/>
</g>
</svg>
