<?xml version="1.0" encoding="utf-8"?>
<!-- Generator: Adobe Illustrator 19.1.0, SVG Export Plug-In . SVG Version: 6.00 Build 0)  -->
<svg version="1.1" id="Layer_1" xmlns="http://www.w3.org/2000/svg" xmlns:xlink="http://www.w3.org/1999/xlink" x="0px" y="0px"
	 viewBox="0 0 105.6 192.4" style="enable-background:new 0 0 105.6 192.4;" xml:space="preserve">
<style type="text/css">
	.st0{fill:#FFFFFF;}
</style>
<g>
	<g>
		<path class="st0" d="M13.5,192.4c-7.7,0-13-4.7-13.5-12c0-0.3,0.1-0.6,0.3-0.8c0.2-0.2,0.5-0.3,0.7-0.3h8.2c0.4,0,0.7,0.2,0.9,0.6
			v-5.9c0-0.6,0.4-1,1-1h5.7c-0.7-1.3-1.8-2-3.3-2c-1.8,0-2.9,0.8-3.3,2.4c-0.1,0.4-0.5,0.7-1,0.7H1.2c-0.3,0-0.6-0.1-0.7-0.3
			c-0.2-0.2-0.3-0.5-0.2-0.8C1,166.5,6.4,162,13.4,162c8.5,0,14.7,6.4,14.7,15.1C28.1,186.1,22.1,192.4,13.5,192.4z M2.1,181.3
			c1,6.7,6.5,9.1,11.4,9.1c7.4,0,12.6-5.4,12.6-13.2c0-7.6-5.3-13.1-12.7-13.1c-5.5,0-9.9,3.3-11,8.1h6.1c0.8-2.1,2.5-3.2,5-3.2
			c2.8,0,4.8,1.7,5.7,4.7c0.1,0.3,0,0.6-0.2,0.9c-0.2,0.3-0.5,0.4-0.8,0.4h-6.2v4h6.3c0.3,0,0.6,0.1,0.8,0.4s0.3,0.6,0.2,0.8
			c-0.8,3.3-3,5.3-5.9,5.3c-2.6,0-4.4-1.5-5.1-4.1H2.1z M10.3,180.5c0.4,2,1.5,2.9,3.3,2.9c2,0,3-1.3,3.5-2.5h-6
			C10.8,180.9,10.4,180.7,10.3,180.5z"/>
		<path class="st0" d="M44.7,191.7h-8.3c-0.6,0-1-0.4-1-1v-19.1h-6.6c-0.6,0-1-0.4-1-1v-6.9c0-0.6,0.4-1,1-1h23.4c0.6,0,1,0.4,1,1
			v6.9c0,0.6-0.4,1-1,1h-6.6v19.1C45.7,191.3,45.3,191.7,44.7,191.7z M37.5,189.7h6.3v-19.1c0-0.6,0.4-1,1-1h6.6v-4.9H29.9v4.9h6.6
			c0.6,0,1,0.4,1,1V189.7z"/>
		<path class="st0" d="M78.3,191.7h-8.4c-0.4,0-0.8-0.3-0.9-0.7l-1.1-3.2h-7.3l-1.1,3.2c-0.1,0.4-0.5,0.7-0.9,0.7h-8.4
			c-0.3,0-0.6-0.2-0.8-0.4c-0.2-0.3-0.2-0.6-0.1-0.9l10-27c0.1-0.4,0.5-0.7,0.9-0.7h8.2c0.4,0,0.8,0.3,0.9,0.7l10,27
			c0.1,0.3,0.1,0.6-0.1,0.9C78.9,191.6,78.6,191.7,78.3,191.7z M70.6,189.7h6.3l-9.2-25h-6.8l-9.3,25h6.3l1.1-3.2
			c0.1-0.4,0.5-0.7,0.9-0.7h8.7c0.4,0,0.8,0.3,0.9,0.7L70.6,189.7z M66.8,182.1h-5.1c-0.3,0-0.6-0.2-0.8-0.4
			c-0.2-0.3-0.2-0.6-0.1-0.9c0.9-2.7,1.5-4.6,1.5-4.6c0.5-1.7,0.7-2.3,1.1-4.1c0.1-0.5,0.5-0.8,1-0.8c0.5,0,0.9,0.3,1,0.8l0.1,0.5
			c0.3,1.4,0.4,1.9,0.9,3.5l0,0c0,0,0.9,3.1,1.4,4.6c0.1,0.3,0,0.6-0.1,0.9C67.4,181.9,67.1,182.1,66.8,182.1z M63,180.1h2.3
			c-0.5-1.5-1-3.3-1-3.3c0-0.1-0.1-0.3-0.1-0.4c0,0.1-0.1,0.3-0.1,0.4C64.1,176.8,63.7,178.1,63,180.1z"/>
		<path class="st0" d="M104.6,191.7h-8.3c-0.6,0-1-0.4-1-1v-19.1h-5.8v19.1c0,0.6-0.4,1-1,1h-8.3c-0.6,0-1-0.4-1-1v-27
			c0-0.6,0.4-1,1-1h24.4c0.6,0,1,0.4,1,1v27C105.6,191.3,105.2,191.7,104.6,191.7z M97.3,189.7h6.3v-25H81.2v25h6.3v-19.1
			c0-0.6,0.4-1,1-1h7.8c0.6,0,1,0.4,1,1V189.7z"/>
	</g>
	<path class="st0" d="M104.2,121.4H1.4c-0.6,0-1-0.4-1-1v-2c0-23.2,14.5-36.2,30.1-46.9c7.3-5,13.7-8.7,18.9-11.7
		C61.1,53,67,49.6,66.9,41.8C66.7,35.1,61.6,31,53.5,31c-14,0-16.4,10-16.8,20.9c0,0.5-0.5,1-1,1H3.6c-0.6,0-1-0.4-1-1v-1.7
		C2.6,17.3,20.7,0,54.9,0C84.1,0,103,15.2,103,38.7c0,21.1-13,29.6-26.9,38.5c-3.9,2.6-8,4.9-12,7.1c-4.2,2.4-8.6,4.8-12.7,7.6
		c9.3-0.9,14-1.2,22.7-1.2l30-0.2c0.3,0,0.5,0.1,0.7,0.3s0.3,0.4,0.3,0.7v28.8C105.2,120.9,104.8,121.4,104.2,121.4z M2.4,119.4
		h100.9V92.6l-29,0.2c-9.8,0-14.4,0.3-26.3,1.5c-0.4,0-0.9-0.2-1-0.6c-0.2-0.4,0-0.9,0.3-1.2c5.1-3.8,10.6-6.9,16-9.9
		c3.9-2.2,8-4.5,11.8-7c13.3-8.6,26-16.8,26-36.9C101,16.4,82.9,2,54.9,2C22,2,4.6,18.6,4.6,50.1v0.7h30.1
		c0.6-11,3.5-21.8,18.8-21.8c9.2,0,15.2,5,15.4,12.7c0.1,9-6.5,12.8-18.6,19.8c-5.1,3-11.5,6.7-18.7,11.6
		C14.1,85,2.4,97.3,2.4,118.3V119.4z"/>
</g>
</svg>
